{"glyphs":{"0":{"ha":718,"x_min":99,"x_max":618,"o":"m 513 788 q 525 776 524 785 l 525 85 q 513 73 522 75 l 205 73 q 193 85 194 76 l 193 776 q 205 788 195 787 l 513 788 m 99 133 q 180 1 99 24 q 256 -8 212 -8 l 461 -8 q 608 64 581 -8 q 618 133 618 92 l 618 728 q 537 860 618 837 q 461 869 506 869 l 256 869 q 110 798 137 869 q 99 728 99 769 l 99 133 z "},"1":{"ha":564,"x_min":41,"x_max":524,"o":"m 524 73 l 359 73 l 359 861 l 278 861 l 41 704 l 79 643 l 270 764 l 270 73 l 73 73 l 73 0 l 524 0 l 524 73 z "},"2":{"ha":604,"x_min":56,"x_max":545,"o":"m 56 260 l 56 0 l 545 0 l 545 79 l 148 79 l 148 264 q 163 308 148 298 q 172 313 168 311 l 444 445 q 534 518 518 481 q 544 576 544 543 l 544 709 q 380 865 544 868 q 377 865 378 865 l 75 861 l 75 783 l 435 783 q 452 766 450 780 l 452 556 q 434 532 450 538 l 161 399 q 77 346 94 366 q 56 260 56 316 z "},"3":{"ha":608,"x_min":34,"x_max":507,"o":"m 507 155 l 507 323 q 437 449 506 422 q 500 567 499 481 l 500 709 q 354 865 500 859 q 331 865 343 865 l 38 861 l 38 785 l 389 785 q 406 768 404 783 l 406 502 q 389 484 403 486 l 111 484 l 111 407 l 396 407 q 412 391 412 407 l 412 95 q 396 79 410 80 l 34 79 l 34 0 l 332 -4 q 505 115 483 -8 q 507 155 507 134 z "},"4":{"ha":712,"x_min":27,"x_max":658,"o":"m 530 0 l 530 208 l 658 208 l 658 282 l 530 282 l 530 861 l 448 863 q 338 827 369 864 q 294 758 323 810 l 27 270 l 27 208 l 441 208 l 441 0 l 530 0 m 385 773 q 401 784 393 784 l 441 784 l 441 282 l 121 282 l 385 773 z "},"5":{"ha":604,"x_min":53,"x_max":532,"o":"m 155 518 l 155 783 l 506 783 l 506 861 l 64 861 l 64 439 l 422 439 q 438 423 437 437 l 438 95 q 422 79 438 79 l 53 79 l 53 0 l 362 -4 q 532 134 522 -8 q 532 152 532 144 l 532 368 q 357 518 529 517 l 155 518 z "},"6":{"ha":669,"x_min":103,"x_max":606,"o":"m 437 -4 q 602 109 583 -4 q 606 152 606 129 l 606 373 q 494 518 606 496 q 435 522 468 522 l 197 522 l 197 766 q 214 783 199 781 l 570 783 l 570 861 l 278 865 q 106 746 127 869 q 103 707 103 727 l 103 141 q 189 5 103 31 q 273 -4 222 -4 l 437 -4 m 214 79 q 197 95 198 81 l 197 445 l 495 445 q 513 427 511 442 l 513 95 q 495 79 510 80 l 214 79 z "},"7":{"ha":548,"x_min":26,"x_max":511,"o":"m 193 -3 l 511 768 q 415 861 509 860 l 26 861 l 26 787 l 407 787 q 415 770 420 787 l 96 -3 l 193 -3 z "},"8":{"ha":728,"x_min":100,"x_max":628,"o":"m 453 -4 q 628 155 627 -1 l 628 323 q 557 449 627 422 q 621 567 620 481 l 621 709 q 499 863 621 844 q 452 865 477 865 l 277 865 q 111 753 130 865 q 107 709 107 732 l 107 567 q 171 449 109 480 q 100 323 102 420 l 100 155 q 258 -4 100 5 q 275 -4 267 -4 l 453 -4 m 194 95 l 194 391 q 212 407 197 406 l 518 407 q 534 391 534 407 l 534 95 q 518 79 532 80 l 212 79 q 194 95 195 81 m 201 500 l 201 768 q 218 785 203 784 l 511 785 q 528 768 526 783 l 528 500 q 511 484 528 484 l 218 484 q 201 500 202 487 z "},"9":{"ha":669,"x_min":64,"x_max":566,"o":"m 566 155 l 566 720 q 480 856 566 830 q 396 865 446 865 l 233 865 q 68 753 87 865 q 64 709 64 732 l 64 480 q 171 338 64 359 q 235 332 199 332 l 472 332 l 472 95 q 456 79 469 80 l 91 79 l 91 0 l 391 -4 q 563 115 541 -8 q 566 155 566 134 m 174 410 q 157 426 159 412 l 157 766 q 174 783 157 783 l 454 783 q 472 766 471 780 l 472 410 l 174 410 z "},"A":{"ha":705,"x_min":18,"x_max":688,"o":"m 688 0 l 471 861 l 372 863 q 267 831 293 864 q 231 742 250 808 l 18 0 l 103 0 l 167 233 l 538 233 l 597 0 l 688 0 m 317 772 q 330 784 321 783 l 403 784 l 521 312 l 189 312 l 317 772 z "},"Æ":{"ha":1039,"x_min":5,"x_max":987,"o":"m 95 0 l 206 259 l 521 259 l 521 0 l 987 0 l 987 79 l 610 79 l 610 395 l 958 395 l 958 473 l 610 473 l 610 783 l 981 783 l 981 861 l 477 861 q 384 840 407 861 q 328 743 361 819 l 328 742 l 5 0 l 95 0 m 426 772 q 439 783 433 783 l 521 783 l 521 338 l 239 338 l 426 772 z "},"Á":{"ha":705,"x_min":18,"x_max":688,"o":"m 688 0 l 471 861 l 372 863 q 267 831 293 864 q 231 742 250 808 l 18 0 l 103 0 l 167 233 l 538 233 l 597 0 l 688 0 m 317 772 q 330 784 321 783 l 403 784 l 521 312 l 189 312 l 317 772 m 331 922 l 414 1104 l 513 1103 l 399 922 l 331 922 z "},"Ă":{"ha":705,"x_min":18,"x_max":688,"o":"m 688 0 l 471 861 l 372 863 q 267 831 293 864 q 231 742 250 808 l 18 0 l 103 0 l 167 233 l 538 233 l 597 0 l 688 0 m 317 772 q 330 784 321 783 l 403 784 l 521 312 l 189 312 l 317 772 m 229 1086 q 282 951 229 981 q 385 932 319 932 q 518 991 491 932 q 533 1086 533 1027 l 471 1086 q 439 1001 471 1019 q 385 991 419 991 q 298 1034 312 991 q 293 1086 293 1053 l 229 1086 z "},"Â":{"ha":705,"x_min":18,"x_max":688,"o":"m 688 0 l 471 861 l 372 863 q 267 831 293 864 q 231 742 250 808 l 18 0 l 103 0 l 167 233 l 538 233 l 597 0 l 688 0 m 317 772 q 330 784 321 783 l 403 784 l 521 312 l 189 312 l 317 772 m 415 1097 l 316 1097 l 191 922 l 273 922 l 365 1054 l 449 922 l 534 922 l 415 1097 z "},"Ä":{"ha":705,"x_min":18,"x_max":688,"o":"m 688 0 l 471 861 l 372 863 q 267 831 293 864 q 231 742 250 808 l 18 0 l 103 0 l 167 233 l 538 233 l 597 0 l 688 0 m 317 772 q 330 784 321 783 l 403 784 l 521 312 l 189 312 l 317 772 m 301 956 l 301 1065 l 212 1065 l 212 956 l 301 956 m 536 956 l 536 1065 l 445 1065 l 445 956 l 536 956 z "},"À":{"ha":705,"x_min":18,"x_max":688,"o":"m 688 0 l 471 861 l 372 863 q 267 831 293 864 q 231 742 250 808 l 18 0 l 103 0 l 167 233 l 538 233 l 597 0 l 688 0 m 317 772 q 330 784 321 783 l 403 784 l 521 312 l 189 312 l 317 772 m 225 1103 l 324 1104 l 416 922 l 349 922 l 225 1103 z "},"Ā":{"ha":705,"x_min":18,"x_max":688,"o":"m 688 0 l 471 861 l 372 863 q 267 831 293 864 q 231 742 250 808 l 18 0 l 103 0 l 167 233 l 538 233 l 597 0 l 688 0 m 317 772 q 330 784 321 783 l 403 784 l 521 312 l 189 312 l 317 772 m 541 1032 l 202 1032 l 202 966 l 541 966 l 541 1032 z "},"Ą":{"ha":705,"x_min":18,"x_max":713,"o":"m 688 0 l 471 861 l 372 863 q 267 831 293 864 q 231 742 250 808 l 18 0 l 103 0 l 167 233 l 538 233 l 597 0 l 618 0 l 548 -64 q 513 -153 513 -96 l 513 -182 q 583 -271 513 -255 q 650 -277 610 -277 l 713 -277 l 713 -209 l 600 -209 q 590 -199 591 -206 l 590 -121 q 601 -98 591 -107 l 688 0 m 317 772 q 330 784 321 783 l 403 784 l 521 312 l 189 312 l 317 772 z "},"Å":{"ha":705,"x_min":18,"x_max":688,"o":"m 688 0 l 471 861 l 372 863 q 267 831 293 864 q 231 742 250 808 l 18 0 l 103 0 l 167 233 l 538 233 l 597 0 l 688 0 m 317 772 q 330 784 321 783 l 403 784 l 521 312 l 189 312 l 317 772 m 491 1019 q 437 1123 491 1104 q 370 1133 411 1133 q 264 1082 283 1133 q 255 1019 255 1058 q 307 913 255 933 q 370 903 332 903 q 484 966 465 903 q 491 1019 491 987 m 309 1019 q 327 1081 309 1070 q 370 1088 340 1088 q 431 1065 422 1088 q 437 1019 437 1050 q 415 955 437 967 q 370 948 399 948 q 313 977 321 948 q 309 1019 309 990 z "},"Ã":{"ha":705,"x_min":18,"x_max":688,"o":"m 688 0 l 471 861 l 372 863 q 267 831 293 864 q 231 742 250 808 l 18 0 l 103 0 l 167 233 l 538 233 l 597 0 l 688 0 m 317 772 q 330 784 321 783 l 403 784 l 521 312 l 189 312 l 317 772 m 258 960 q 290 1012 259 1010 q 376 983 308 1012 q 458 962 426 962 q 538 1029 525 962 q 543 1080 543 1053 l 477 1080 q 454 1029 477 1035 q 441 1028 448 1028 q 355 1057 420 1028 q 273 1078 307 1078 q 198 1013 210 1078 q 194 962 194 991 l 258 960 z "},"B":{"ha":727,"x_min":99,"x_max":639,"o":"m 639 155 l 639 315 q 562 445 637 419 q 618 560 618 477 l 618 709 q 472 865 618 859 q 449 865 461 865 l 99 861 l 99 0 l 464 -4 q 636 115 614 -8 q 639 155 639 134 m 528 401 q 545 384 544 399 l 545 94 q 528 76 543 77 l 189 76 l 189 401 l 528 401 m 507 788 q 525 772 524 785 l 525 494 q 507 477 522 479 l 189 477 l 189 788 l 507 788 z "},"C":{"ha":579,"x_min":85,"x_max":549,"o":"m 549 81 l 190 81 q 179 94 180 84 l 179 768 q 190 780 182 779 l 549 780 l 549 861 l 243 861 q 96 789 123 861 q 85 720 85 761 l 85 141 q 167 9 85 33 q 243 0 198 0 l 549 0 l 549 81 z "},"Ć":{"ha":579,"x_min":85,"x_max":549,"o":"m 549 81 l 190 81 q 179 94 180 84 l 179 768 q 190 780 182 779 l 549 780 l 549 861 l 243 861 q 96 789 123 861 q 85 720 85 761 l 85 141 q 167 9 85 33 q 243 0 198 0 l 549 0 l 549 81 m 305 922 l 388 1104 l 487 1103 l 373 922 l 305 922 z "},"Č":{"ha":579,"x_min":85,"x_max":549,"o":"m 549 81 l 190 81 q 179 94 180 84 l 179 768 q 190 780 182 779 l 549 780 l 549 861 l 243 861 q 96 789 123 861 q 85 720 85 761 l 85 141 q 167 9 85 33 q 243 0 198 0 l 549 0 l 549 81 m 309 929 l 408 929 l 533 1104 l 452 1104 l 359 972 l 275 1104 l 190 1104 l 309 929 z "},"Ç":{"ha":579,"x_min":85,"x_max":549,"o":"m 549 81 l 190 81 q 179 94 180 84 l 179 768 q 190 780 182 779 l 549 780 l 549 861 l 243 861 q 96 789 123 861 q 85 720 85 761 l 85 141 q 167 9 85 33 q 243 0 198 0 l 289 0 l 262 -125 l 374 -125 q 384 -134 382 -127 l 384 -203 q 374 -213 381 -212 l 244 -213 l 244 -277 l 332 -277 q 453 -168 452 -274 l 453 -156 q 369 -71 453 -79 q 345 -69 357 -69 l 327 -69 l 340 0 l 549 0 l 549 81 z "},"D":{"ha":724,"x_min":99,"x_max":639,"o":"m 528 788 q 545 770 544 785 l 545 91 q 528 73 543 75 l 189 73 l 189 788 l 528 788 m 99 -1 l 464 -7 q 637 132 628 -8 q 639 152 639 142 l 639 709 q 525 864 639 844 q 469 868 499 868 l 99 861 l 99 -1 z "},"Ď":{"ha":724,"x_min":99,"x_max":639,"o":"m 528 788 q 545 770 544 785 l 545 91 q 528 73 543 75 l 189 73 l 189 788 l 528 788 m 99 -1 l 464 -7 q 637 132 628 -8 q 639 152 639 142 l 639 709 q 525 864 639 844 q 469 868 499 868 l 99 861 l 99 -1 m 320 929 l 419 929 l 544 1104 l 463 1104 l 370 972 l 286 1104 l 201 1104 l 320 929 z "},"Đ":{"ha":724,"x_min":20,"x_max":639,"o":"m 528 788 q 545 770 544 785 l 545 91 q 528 73 543 75 l 189 73 l 189 400 l 363 400 l 363 473 l 189 473 l 189 788 l 528 788 m 99 -1 l 464 -7 q 637 132 628 -8 q 639 152 639 142 l 639 709 q 525 864 639 844 q 469 868 499 868 l 99 861 l 99 473 l 20 473 l 20 400 l 99 400 l 99 -1 z "},"E":{"ha":617,"x_min":99,"x_max":571,"o":"m 571 0 l 571 79 l 189 79 l 189 400 l 541 400 l 541 477 l 189 477 l 189 783 l 564 783 l 564 861 l 99 861 l 99 0 l 571 0 z "},"É":{"ha":617,"x_min":99,"x_max":571,"o":"m 571 0 l 571 79 l 189 79 l 189 400 l 541 400 l 541 477 l 189 477 l 189 783 l 564 783 l 564 861 l 99 861 l 99 0 l 571 0 m 300 922 l 382 1104 l 481 1103 l 368 922 l 300 922 z "},"Ě":{"ha":617,"x_min":99,"x_max":571,"o":"m 571 0 l 571 79 l 189 79 l 189 400 l 541 400 l 541 477 l 189 477 l 189 783 l 564 783 l 564 861 l 99 861 l 99 0 l 571 0 m 301 929 l 400 929 l 525 1104 l 444 1104 l 351 972 l 267 1104 l 182 1104 l 301 929 z "},"Ê":{"ha":617,"x_min":99,"x_max":571,"o":"m 571 0 l 571 79 l 189 79 l 189 400 l 541 400 l 541 477 l 189 477 l 189 783 l 564 783 l 564 861 l 99 861 l 99 0 l 571 0 m 384 1097 l 285 1097 l 160 922 l 241 922 l 334 1054 l 418 922 l 503 922 l 384 1097 z "},"Ë":{"ha":617,"x_min":99,"x_max":571,"o":"m 571 0 l 571 79 l 189 79 l 189 400 l 541 400 l 541 477 l 189 477 l 189 783 l 564 783 l 564 861 l 99 861 l 99 0 l 571 0 m 269 956 l 269 1065 l 179 1065 l 179 956 l 269 956 m 503 956 l 503 1065 l 412 1065 l 412 956 l 503 956 z "},"Ė":{"ha":617,"x_min":99,"x_max":571,"o":"m 571 0 l 571 79 l 189 79 l 189 400 l 541 400 l 541 477 l 189 477 l 189 783 l 564 783 l 564 861 l 99 861 l 99 0 l 571 0 m 388 954 l 388 1072 l 293 1072 l 293 954 l 388 954 z "},"È":{"ha":617,"x_min":99,"x_max":571,"o":"m 571 0 l 571 79 l 189 79 l 189 400 l 541 400 l 541 477 l 189 477 l 189 783 l 564 783 l 564 861 l 99 861 l 99 0 l 571 0 m 193 1103 l 292 1104 l 384 922 l 316 922 l 193 1103 z "},"Ē":{"ha":617,"x_min":99,"x_max":571,"o":"m 571 0 l 571 79 l 189 79 l 189 400 l 541 400 l 541 477 l 189 477 l 189 783 l 564 783 l 564 861 l 99 861 l 99 0 l 571 0 m 510 1032 l 171 1032 l 171 966 l 510 966 l 510 1032 z "},"Ę":{"ha":617,"x_min":99,"x_max":597,"o":"m 571 0 l 571 79 l 189 79 l 189 400 l 541 400 l 541 477 l 189 477 l 189 783 l 564 783 l 564 861 l 99 861 l 99 0 l 502 0 l 431 -64 q 396 -153 396 -96 l 396 -182 q 467 -271 396 -255 q 533 -277 494 -277 l 597 -277 l 597 -209 l 483 -209 q 473 -199 475 -206 l 473 -121 q 484 -98 475 -107 l 571 0 z "},"Ð":{"ha":724,"x_min":20,"x_max":639,"o":"m 528 788 q 545 770 544 785 l 545 91 q 528 73 543 75 l 189 73 l 189 400 l 363 400 l 363 473 l 189 473 l 189 788 l 528 788 m 99 -1 l 464 -7 q 637 132 628 -8 q 639 152 639 142 l 639 709 q 525 864 639 844 q 469 868 499 868 l 99 861 l 99 473 l 20 473 l 20 400 l 99 400 l 99 -1 z "},"€":{"ha":631,"x_min":54,"x_max":586,"o":"m 586 734 l 586 814 l 293 814 q 149 746 176 814 q 138 673 138 716 l 138 515 l 54 515 l 54 454 l 138 454 l 138 368 l 54 368 l 54 307 l 138 307 l 138 141 q 214 9 138 34 q 293 0 245 0 l 586 0 l 586 80 l 241 80 q 229 92 231 83 l 229 307 l 434 307 l 434 368 l 229 368 l 229 454 l 434 454 l 434 515 l 229 515 l 229 722 q 241 734 232 732 l 586 734 z "},"F":{"ha":574,"x_min":99,"x_max":555,"o":"m 533 464 l 189 464 l 189 783 l 555 783 l 555 861 l 99 861 l 99 0 l 189 0 l 189 387 l 533 387 l 533 464 z "},"G":{"ha":709,"x_min":85,"x_max":637,"o":"m 480 -8 q 627 64 600 -8 q 637 133 637 92 l 637 445 l 381 445 l 381 368 l 547 368 l 547 85 q 534 73 544 75 l 191 73 q 179 85 180 76 l 179 776 q 191 788 182 787 l 623 788 l 623 869 l 243 869 q 96 798 123 869 q 85 728 85 769 l 85 133 q 167 1 85 24 q 243 -8 198 -8 l 480 -8 z "},"Ğ":{"ha":709,"x_min":85,"x_max":637,"o":"m 480 -8 q 627 64 600 -8 q 637 133 637 92 l 637 445 l 381 445 l 381 368 l 547 368 l 547 85 q 534 73 544 75 l 191 73 q 179 85 180 76 l 179 776 q 191 788 182 787 l 623 788 l 623 869 l 243 869 q 96 798 123 869 q 85 728 85 769 l 85 133 q 167 1 85 24 q 243 -8 198 -8 l 480 -8 m 228 1086 q 281 951 228 981 q 384 932 317 932 q 517 991 490 932 q 532 1086 532 1027 l 469 1086 q 438 1001 469 1019 q 384 991 418 991 q 297 1034 311 991 q 292 1086 292 1053 l 228 1086 z "},"H":{"ha":769,"x_min":99,"x_max":670,"o":"m 581 0 l 670 0 l 670 861 l 581 861 l 581 476 l 189 476 l 189 861 l 99 861 l 99 0 l 189 0 l 189 397 l 581 397 l 581 0 z "},"I":{"ha":326,"x_min":118,"x_max":208,"o":"m 208 0 l 208 861 l 118 861 l 118 0 l 208 0 z "},"Í":{"ha":326,"x_min":118,"x_max":305,"o":"m 208 0 l 208 861 l 118 861 l 118 0 l 208 0 m 123 922 l 206 1104 l 305 1103 l 191 922 l 123 922 z "},"Î":{"ha":326,"x_min":-18,"x_max":326,"o":"m 208 0 l 208 861 l 118 861 l 118 0 l 208 0 m 206 1097 l 107 1097 l -18 922 l 64 922 l 156 1054 l 240 922 l 326 922 l 206 1097 z "},"Ï":{"ha":326,"x_min":3,"x_max":327,"o":"m 208 0 l 208 861 l 118 861 l 118 0 l 208 0 m 92 956 l 92 1065 l 3 1065 l 3 956 l 92 956 m 327 956 l 327 1065 l 236 1065 l 236 956 l 327 956 z "},"İ":{"ha":326,"x_min":115,"x_max":210,"o":"m 208 0 l 208 861 l 118 861 l 118 0 l 208 0 m 210 954 l 210 1072 l 115 1072 l 115 954 l 210 954 z "},"Ì":{"ha":326,"x_min":16,"x_max":208,"o":"m 208 0 l 208 861 l 118 861 l 118 0 l 208 0 m 16 1103 l 115 1104 l 208 922 l 140 922 l 16 1103 z "},"Ī":{"ha":326,"x_min":-7,"x_max":332,"o":"m 208 0 l 208 861 l 118 861 l 118 0 l 208 0 m 332 1032 l -7 1032 l -7 966 l 332 966 l 332 1032 z "},"Į":{"ha":326,"x_min":33,"x_max":233,"o":"m 208 0 l 208 861 l 118 861 l 118 0 l 138 0 l 68 -64 q 33 -153 33 -96 l 33 -182 q 103 -271 33 -255 q 170 -277 130 -277 l 233 -277 l 233 -209 l 119 -209 q 110 -199 111 -206 l 110 -121 q 121 -98 111 -107 l 208 0 z "},"J":{"ha":358,"x_min":16,"x_max":255,"o":"m 255 861 l 164 861 l 164 85 q 153 73 161 75 l 16 73 l 16 -8 l 113 -8 q 243 54 217 -8 q 255 129 255 84 l 255 861 z "},"K":{"ha":724,"x_min":106,"x_max":712,"o":"m 410 397 q 422 387 418 395 l 614 0 l 712 0 l 544 334 q 486 425 506 408 q 463 438 475 433 q 526 518 496 453 q 536 541 530 529 l 678 861 l 586 861 l 422 488 q 411 476 416 477 l 195 476 l 195 861 l 106 861 l 106 0 l 195 0 l 195 397 l 410 397 z "},"L":{"ha":526,"x_min":99,"x_max":519,"o":"m 519 79 l 189 79 l 189 861 l 99 861 l 99 0 l 519 0 l 519 79 z "},"Ĺ":{"ha":526,"x_min":99,"x_max":519,"o":"m 519 79 l 189 79 l 189 861 l 99 861 l 99 0 l 519 0 l 519 79 m 104 922 l 187 1104 l 286 1103 l 172 922 l 104 922 z "},"Ľ":{"ha":526,"x_min":99,"x_max":519,"o":"m 519 79 l 189 79 l 189 861 l 99 861 l 99 0 l 519 0 l 519 79 m 391 608 q 456 755 456 675 l 456 863 l 357 863 l 357 735 l 393 735 q 358 635 389 684 l 391 608 z "},"Ł":{"ha":526,"x_min":99,"x_max":519,"o":"m 519 79 l 189 79 l 189 861 l 99 861 l 99 0 l 519 0 l 519 79 z "},"M":{"ha":865,"x_min":96,"x_max":772,"o":"m 707 861 l 680 861 l 435 389 l 220 811 q 168 860 199 854 q 148 861 159 861 l 96 861 l 96 0 l 178 0 l 178 720 l 403 278 l 454 278 l 685 718 l 685 0 l 772 0 l 772 792 q 730 860 772 850 q 707 861 719 861 z "},"N":{"ha":765,"x_min":95,"x_max":670,"o":"m 608 0 l 670 0 l 670 861 l 590 861 l 590 176 l 157 861 l 95 861 l 95 0 l 175 0 l 175 684 l 608 0 z "},"Ń":{"ha":765,"x_min":95,"x_max":670,"o":"m 608 0 l 670 0 l 670 861 l 590 861 l 590 176 l 157 861 l 95 861 l 95 0 l 175 0 l 175 684 l 608 0 m 340 922 l 423 1104 l 522 1103 l 408 922 l 340 922 z "},"Ň":{"ha":765,"x_min":95,"x_max":670,"o":"m 608 0 l 670 0 l 670 861 l 590 861 l 590 176 l 157 861 l 95 861 l 95 0 l 175 0 l 175 684 l 608 0 m 343 929 l 442 929 l 567 1104 l 486 1104 l 393 972 l 309 1104 l 224 1104 l 343 929 z "},"Ñ":{"ha":765,"x_min":95,"x_max":670,"o":"m 608 0 l 670 0 l 670 861 l 590 861 l 590 176 l 157 861 l 95 861 l 95 0 l 175 0 l 175 684 l 608 0 m 267 960 q 300 1012 269 1010 q 385 983 317 1012 q 468 962 435 962 q 548 1029 534 962 q 552 1080 552 1053 l 487 1080 q 464 1029 487 1035 q 450 1028 458 1028 q 365 1057 430 1028 q 282 1078 316 1078 q 208 1013 220 1078 q 203 962 203 991 l 267 960 z "},"O":{"ha":743,"x_min":85,"x_max":658,"o":"m 552 788 q 564 776 563 785 l 564 85 q 552 73 562 75 l 191 73 q 179 85 180 76 l 179 776 q 191 788 182 787 l 552 788 m 85 133 q 167 1 85 24 q 243 -8 198 -8 l 500 -8 q 647 64 620 -8 q 658 133 658 92 l 658 728 q 576 860 658 837 q 500 869 545 869 l 243 869 q 96 798 123 869 q 85 728 85 769 l 85 133 z "},"Œ":{"ha":1061,"x_min":72,"x_max":1009,"o":"m 1009 0 l 1009 79 l 629 79 l 629 400 l 979 400 l 979 477 l 629 477 l 629 783 l 1002 783 l 1002 861 l 229 865 q 83 793 110 865 q 72 724 72 765 l 72 137 q 153 5 72 28 q 229 -4 184 -4 l 1009 0 m 178 79 q 165 90 167 81 l 165 772 q 178 783 168 781 l 540 783 l 540 79 l 178 79 z "},"Ó":{"ha":743,"x_min":85,"x_max":658,"o":"m 552 788 q 564 776 563 785 l 564 85 q 552 73 562 75 l 191 73 q 179 85 180 76 l 179 776 q 191 788 182 787 l 552 788 m 85 133 q 167 1 85 24 q 243 -8 198 -8 l 500 -8 q 647 64 620 -8 q 658 133 658 92 l 658 728 q 576 860 658 837 q 500 869 545 869 l 243 869 q 96 798 123 869 q 85 728 85 769 l 85 133 m 335 922 l 418 1104 l 517 1103 l 403 922 l 335 922 z "},"Ô":{"ha":743,"x_min":85,"x_max":658,"o":"m 552 788 q 564 776 563 785 l 564 85 q 552 73 562 75 l 191 73 q 179 85 180 76 l 179 776 q 191 788 182 787 l 552 788 m 85 133 q 167 1 85 24 q 243 -8 198 -8 l 500 -8 q 647 64 620 -8 q 658 133 658 92 l 658 728 q 576 860 658 837 q 500 869 545 869 l 243 869 q 96 798 123 869 q 85 728 85 769 l 85 133 m 419 1097 l 320 1097 l 195 922 l 277 922 l 369 1054 l 453 922 l 538 922 l 419 1097 z "},"Ö":{"ha":743,"x_min":85,"x_max":658,"o":"m 552 788 q 564 776 563 785 l 564 85 q 552 73 562 75 l 191 73 q 179 85 180 76 l 179 776 q 191 788 182 787 l 552 788 m 85 133 q 167 1 85 24 q 243 -8 198 -8 l 500 -8 q 647 64 620 -8 q 658 133 658 92 l 658 728 q 576 860 658 837 q 500 869 545 869 l 243 869 q 96 798 123 869 q 85 728 85 769 l 85 133 m 304 956 l 304 1065 l 214 1065 l 214 956 l 304 956 m 538 956 l 538 1065 l 448 1065 l 448 956 l 538 956 z "},"Ò":{"ha":743,"x_min":85,"x_max":658,"o":"m 552 788 q 564 776 563 785 l 564 85 q 552 73 562 75 l 191 73 q 179 85 180 76 l 179 776 q 191 788 182 787 l 552 788 m 85 133 q 167 1 85 24 q 243 -8 198 -8 l 500 -8 q 647 64 620 -8 q 658 133 658 92 l 658 728 q 576 860 658 837 q 500 869 545 869 l 243 869 q 96 798 123 869 q 85 728 85 769 l 85 133 m 228 1103 l 327 1104 l 419 922 l 351 922 l 228 1103 z "},"Ő":{"ha":743,"x_min":85,"x_max":658,"o":"m 552 788 q 564 776 563 785 l 564 85 q 552 73 562 75 l 191 73 q 179 85 180 76 l 179 776 q 191 788 182 787 l 552 788 m 85 133 q 167 1 85 24 q 243 -8 198 -8 l 500 -8 q 647 64 620 -8 q 658 133 658 92 l 658 728 q 576 860 658 837 q 500 869 545 869 l 243 869 q 96 798 123 869 q 85 728 85 769 l 85 133 m 254 922 l 335 1104 l 431 1103 l 320 922 l 254 922 m 419 922 l 502 1104 l 600 1103 l 486 922 l 419 922 z "},"Ō":{"ha":743,"x_min":85,"x_max":658,"o":"m 552 788 q 564 776 563 785 l 564 85 q 552 73 562 75 l 191 73 q 179 85 180 76 l 179 776 q 191 788 182 787 l 552 788 m 85 133 q 167 1 85 24 q 243 -8 198 -8 l 500 -8 q 647 64 620 -8 q 658 133 658 92 l 658 728 q 576 860 658 837 q 500 869 545 869 l 243 869 q 96 798 123 869 q 85 728 85 769 l 85 133 m 544 1032 l 205 1032 l 205 966 l 544 966 l 544 1032 z "},"Ø":{"ha":743,"x_min":85,"x_max":658,"o":"m 582 925 l 553 865 q 500 869 529 869 l 243 869 q 96 798 123 869 q 85 728 85 769 l 85 133 q 137 14 87 43 l 98 -68 l 164 -68 l 195 -5 q 243 -8 222 -8 l 500 -8 q 647 64 620 -8 q 658 133 658 92 l 658 728 q 609 846 656 815 l 648 925 l 582 925 m 179 776 q 191 788 182 787 l 515 788 l 179 99 l 179 776 m 564 85 q 552 73 562 75 l 233 73 l 564 753 l 564 85 z "},"Õ":{"ha":743,"x_min":85,"x_max":658,"o":"m 552 788 q 564 776 563 785 l 564 85 q 552 73 562 75 l 191 73 q 179 85 180 76 l 179 776 q 191 788 182 787 l 552 788 m 85 133 q 167 1 85 24 q 243 -8 198 -8 l 500 -8 q 647 64 620 -8 q 658 133 658 92 l 658 728 q 576 860 658 837 q 500 869 545 869 l 243 869 q 96 798 123 869 q 85 728 85 769 l 85 133 m 262 960 q 294 1012 263 1010 q 380 983 312 1012 q 463 962 430 962 q 543 1029 529 962 q 547 1080 547 1053 l 481 1080 q 458 1029 481 1035 q 445 1028 453 1028 q 359 1057 425 1028 q 277 1078 311 1078 q 202 1013 214 1078 q 198 962 198 991 l 262 960 z "},"P":{"ha":670,"x_min":100,"x_max":629,"o":"m 191 0 l 190 343 l 460 343 q 629 500 628 346 l 629 709 q 483 865 629 859 q 460 865 472 865 l 100 861 l 100 0 l 191 0 m 519 788 q 536 770 534 785 l 536 438 q 519 422 533 423 l 190 422 l 190 788 l 519 788 z "},"Q":{"ha":749,"x_min":85,"x_max":658,"o":"m 552 788 q 564 776 563 785 l 564 85 q 552 73 562 75 l 191 73 q 179 85 180 76 l 179 776 q 191 788 182 787 l 552 788 m 85 133 q 167 1 85 24 q 243 -8 198 -8 l 381 -8 l 420 -153 l 507 -153 l 464 -8 l 500 -8 q 647 64 620 -8 q 658 133 658 92 l 658 728 q 576 860 658 837 q 500 869 545 869 l 243 869 q 96 798 123 869 q 85 728 85 769 l 85 133 z "},"R":{"ha":709,"x_min":100,"x_max":655,"o":"m 191 0 l 190 361 l 422 361 q 445 346 439 358 l 564 0 l 655 0 l 555 289 q 511 366 533 347 q 631 519 629 389 l 631 709 q 484 865 631 859 q 461 865 473 865 l 100 861 l 100 0 l 191 0 m 519 788 q 537 770 536 785 l 537 454 q 519 437 534 438 l 190 437 l 190 788 l 519 788 z "},"Ŕ":{"ha":709,"x_min":100,"x_max":655,"o":"m 191 0 l 190 361 l 422 361 q 445 346 439 358 l 564 0 l 655 0 l 555 289 q 511 366 533 347 q 631 519 629 389 l 631 709 q 484 865 631 859 q 461 865 473 865 l 100 861 l 100 0 l 191 0 m 519 788 q 537 770 536 785 l 537 454 q 519 437 534 438 l 190 437 l 190 788 l 519 788 m 308 922 l 391 1104 l 490 1103 l 376 922 l 308 922 z "},"Ř":{"ha":709,"x_min":100,"x_max":655,"o":"m 191 0 l 190 361 l 422 361 q 445 346 439 358 l 564 0 l 655 0 l 555 289 q 511 366 533 347 q 631 519 629 389 l 631 709 q 484 865 631 859 q 461 865 473 865 l 100 861 l 100 0 l 191 0 m 519 788 q 537 770 536 785 l 537 454 q 519 437 534 438 l 190 437 l 190 788 l 519 788 m 311 929 l 410 929 l 534 1104 l 453 1104 l 361 972 l 277 1104 l 191 1104 l 311 929 z "},"S":{"ha":639,"x_min":62,"x_max":583,"o":"m 174 473 q 156 491 157 476 l 156 766 q 174 783 159 781 l 560 783 l 560 861 l 237 865 q 65 746 87 869 q 62 707 62 727 l 62 540 q 153 400 62 425 q 232 392 187 392 l 472 392 q 490 374 488 389 l 490 95 q 472 79 487 80 l 72 79 l 72 0 l 414 -4 q 583 134 574 -8 q 583 152 583 144 l 583 324 q 408 473 581 472 l 174 473 z "},"Ś":{"ha":639,"x_min":62,"x_max":583,"o":"m 174 473 q 156 491 157 476 l 156 766 q 174 783 159 781 l 560 783 l 560 861 l 237 865 q 65 746 87 869 q 62 707 62 727 l 62 540 q 153 400 62 425 q 232 392 187 392 l 472 392 q 490 374 488 389 l 490 95 q 472 79 487 80 l 72 79 l 72 0 l 414 -4 q 583 134 574 -8 q 583 152 583 144 l 583 324 q 408 473 581 472 l 174 473 m 282 922 l 365 1104 l 464 1103 l 350 922 l 282 922 z "},"Š":{"ha":639,"x_min":62,"x_max":583,"o":"m 174 473 q 156 491 157 476 l 156 766 q 174 783 159 781 l 560 783 l 560 861 l 237 865 q 65 746 87 869 q 62 707 62 727 l 62 540 q 153 400 62 425 q 232 392 187 392 l 472 392 q 490 374 488 389 l 490 95 q 472 79 487 80 l 72 79 l 72 0 l 414 -4 q 583 134 574 -8 q 583 152 583 144 l 583 324 q 408 473 581 472 l 174 473 m 283 929 l 382 929 l 507 1104 l 426 1104 l 334 972 l 250 1104 l 164 1104 l 283 929 z "},"T":{"ha":544,"x_min":7,"x_max":537,"o":"m 317 0 l 317 783 l 537 783 l 537 861 l 7 861 l 7 783 l 227 783 l 227 0 l 317 0 z "},"Ť":{"ha":544,"x_min":7,"x_max":537,"o":"m 317 0 l 317 783 l 537 783 l 537 861 l 7 861 l 7 783 l 227 783 l 227 0 l 317 0 m 233 926 l 332 926 l 457 1101 l 376 1101 l 283 970 l 199 1101 l 114 1101 l 233 926 z "},"Þ":{"ha":689,"x_min":100,"x_max":628,"o":"m 191 0 l 190 187 l 458 187 q 628 346 627 190 l 628 555 q 513 705 628 685 q 458 709 488 709 l 190 709 l 190 861 l 100 861 l 100 0 l 191 0 m 517 631 q 534 613 533 628 l 534 282 q 517 266 532 267 l 190 266 l 190 631 l 517 631 z "},"U":{"ha":742,"x_min":85,"x_max":656,"o":"m 499 -8 q 646 64 618 -8 q 656 133 656 92 l 656 861 l 563 861 l 563 85 q 552 73 560 75 l 191 73 q 179 85 180 76 l 179 861 l 85 861 l 85 133 q 167 1 85 24 q 243 -8 198 -8 l 499 -8 z "},"Ú":{"ha":742,"x_min":85,"x_max":656,"o":"m 499 -8 q 646 64 618 -8 q 656 133 656 92 l 656 861 l 563 861 l 563 85 q 552 73 560 75 l 191 73 q 179 85 180 76 l 179 861 l 85 861 l 85 133 q 167 1 85 24 q 243 -8 198 -8 l 499 -8 m 332 922 l 415 1104 l 514 1103 l 400 922 l 332 922 z "},"Û":{"ha":742,"x_min":85,"x_max":656,"o":"m 499 -8 q 646 64 618 -8 q 656 133 656 92 l 656 861 l 563 861 l 563 85 q 552 73 560 75 l 191 73 q 179 85 180 76 l 179 861 l 85 861 l 85 133 q 167 1 85 24 q 243 -8 198 -8 l 499 -8 m 416 1097 l 317 1097 l 193 922 l 274 922 l 366 1054 l 450 922 l 536 922 l 416 1097 z "},"Ü":{"ha":742,"x_min":85,"x_max":656,"o":"m 499 -8 q 646 64 618 -8 q 656 133 656 92 l 656 861 l 563 861 l 563 85 q 552 73 560 75 l 191 73 q 179 85 180 76 l 179 861 l 85 861 l 85 133 q 167 1 85 24 q 243 -8 198 -8 l 499 -8 m 301 956 l 301 1065 l 212 1065 l 212 956 l 301 956 m 536 956 l 536 1065 l 445 1065 l 445 956 l 536 956 z "},"Ù":{"ha":742,"x_min":85,"x_max":656,"o":"m 499 -8 q 646 64 618 -8 q 656 133 656 92 l 656 861 l 563 861 l 563 85 q 552 73 560 75 l 191 73 q 179 85 180 76 l 179 861 l 85 861 l 85 133 q 167 1 85 24 q 243 -8 198 -8 l 499 -8 m 225 1103 l 324 1104 l 416 922 l 349 922 l 225 1103 z "},"Ű":{"ha":742,"x_min":85,"x_max":656,"o":"m 499 -8 q 646 64 618 -8 q 656 133 656 92 l 656 861 l 563 861 l 563 85 q 552 73 560 75 l 191 73 q 179 85 180 76 l 179 861 l 85 861 l 85 133 q 167 1 85 24 q 243 -8 198 -8 l 499 -8 m 252 922 l 334 1104 l 430 1103 l 319 922 l 252 922 m 418 922 l 500 1104 l 598 1103 l 484 922 l 418 922 z "},"Ū":{"ha":742,"x_min":85,"x_max":656,"o":"m 499 -8 q 646 64 618 -8 q 656 133 656 92 l 656 861 l 563 861 l 563 85 q 552 73 560 75 l 191 73 q 179 85 180 76 l 179 861 l 85 861 l 85 133 q 167 1 85 24 q 243 -8 198 -8 l 499 -8 m 543 1032 l 203 1032 l 203 966 l 543 966 l 543 1032 z "},"Ų":{"ha":742,"x_min":85,"x_max":656,"o":"m 499 -8 q 646 64 618 -8 q 656 133 656 92 l 656 861 l 563 861 l 563 85 q 552 73 560 75 l 191 73 q 179 85 180 76 l 179 861 l 85 861 l 85 133 q 167 1 85 24 q 243 -8 198 -8 l 372 -8 l 308 -65 q 273 -155 273 -98 l 273 -183 q 343 -273 273 -256 q 410 -278 370 -278 l 473 -278 l 473 -210 l 359 -210 q 350 -201 351 -208 l 350 -122 q 361 -99 351 -109 l 442 -8 l 499 -8 z "},"Ů":{"ha":742,"x_min":85,"x_max":656,"o":"m 499 -8 q 646 64 618 -8 q 656 133 656 92 l 656 861 l 563 861 l 563 85 q 552 73 560 75 l 191 73 q 179 85 180 76 l 179 861 l 85 861 l 85 133 q 167 1 85 24 q 243 -8 198 -8 l 499 -8 m 492 1019 q 438 1123 492 1104 q 372 1133 412 1133 q 266 1082 285 1133 q 256 1019 256 1058 q 308 913 256 933 q 372 903 334 903 q 486 966 467 903 q 492 1019 492 987 m 311 1019 q 328 1081 311 1070 q 372 1088 342 1088 q 433 1065 423 1088 q 438 1019 438 1050 q 416 955 438 967 q 372 948 400 948 q 315 977 323 948 q 311 1019 311 990 z "},"V":{"ha":688,"x_min":15,"x_max":675,"o":"m 469 125 l 675 861 l 590 861 l 378 90 q 368 79 374 80 l 304 79 l 104 861 l 15 861 l 236 0 l 331 -1 q 429 24 404 -1 q 469 125 449 49 z "},"W":{"ha":1024,"x_min":94,"x_max":930,"o":"m 393 -8 q 511 52 483 -7 q 631 -8 541 -8 l 787 -8 q 920 53 894 -8 q 930 125 930 81 l 930 861 l 837 861 l 837 85 q 826 73 834 75 l 568 73 q 557 85 559 76 l 557 861 l 467 861 l 467 85 q 454 73 467 73 l 198 73 q 187 85 189 76 l 187 861 l 94 861 l 94 122 q 157 3 94 26 q 241 -8 190 -8 l 393 -8 z "},"X":{"ha":741,"x_min":16,"x_max":724,"o":"m 433 487 q 419 476 427 476 l 326 476 q 311 487 315 479 l 130 863 l 30 863 l 187 541 q 244 450 224 467 q 264 438 255 442 q 203 365 233 423 q 187 334 201 359 l 16 1 l 110 1 l 305 387 q 321 397 315 397 l 415 397 q 429 387 426 395 l 625 0 l 724 0 l 549 332 q 491 423 509 408 q 472 437 481 431 q 530 505 502 450 q 548 541 534 513 l 707 861 l 613 861 l 433 487 z "},"Y":{"ha":703,"x_min":18,"x_max":684,"o":"m 396 0 l 396 315 q 476 358 452 319 q 509 427 488 378 l 684 861 l 591 861 l 408 403 q 395 392 403 392 l 315 392 q 300 403 304 395 l 115 863 l 18 863 l 193 429 q 252 332 224 351 q 307 315 274 319 l 307 0 l 396 0 z "},"Ý":{"ha":703,"x_min":18,"x_max":684,"o":"m 396 0 l 396 315 q 476 358 452 319 q 509 427 488 378 l 684 861 l 591 861 l 408 403 q 395 392 403 392 l 315 392 q 300 403 304 395 l 115 863 l 18 863 l 193 429 q 252 332 224 351 q 307 315 274 319 l 307 0 l 396 0 m 311 922 l 393 1104 l 492 1103 l 378 922 l 311 922 z "},"Ÿ":{"ha":703,"x_min":18,"x_max":684,"o":"m 396 0 l 396 315 q 476 358 452 319 q 509 427 488 378 l 684 861 l 591 861 l 408 403 q 395 392 403 392 l 315 392 q 300 403 304 395 l 115 863 l 18 863 l 193 429 q 252 332 224 351 q 307 315 274 319 l 307 0 l 396 0 m 281 956 l 281 1065 l 191 1065 l 191 956 l 281 956 m 515 956 l 515 1065 l 425 1065 l 425 956 l 515 956 z "},"Z":{"ha":646,"x_min":52,"x_max":598,"o":"m 590 73 l 167 73 q 159 88 153 73 q 160 92 160 91 l 598 768 q 500 861 595 860 l 80 861 l 80 788 l 490 788 q 496 772 503 785 l 52 84 q 148 0 54 1 l 590 0 l 590 73 z "},"Ź":{"ha":646,"x_min":52,"x_max":598,"o":"m 590 73 l 167 73 q 159 88 153 73 q 160 92 160 91 l 598 768 q 500 861 595 860 l 80 861 l 80 788 l 490 788 q 496 772 503 785 l 52 84 q 148 0 54 1 l 590 0 l 590 73 m 286 922 l 369 1104 l 468 1103 l 354 922 l 286 922 z "},"Ž":{"ha":646,"x_min":52,"x_max":598,"o":"m 590 73 l 167 73 q 159 88 153 73 q 160 92 160 91 l 598 768 q 500 861 595 860 l 80 861 l 80 788 l 490 788 q 496 772 503 785 l 52 84 q 148 0 54 1 l 590 0 l 590 73 m 288 929 l 387 929 l 511 1104 l 430 1104 l 338 972 l 254 1104 l 168 1104 l 288 929 z "},"Ż":{"ha":646,"x_min":52,"x_max":598,"o":"m 590 73 l 167 73 q 159 88 153 73 q 160 92 160 91 l 598 768 q 500 861 595 860 l 80 861 l 80 788 l 490 788 q 496 772 503 785 l 52 84 q 148 0 54 1 l 590 0 l 590 73 m 373 954 l 373 1072 l 278 1072 l 278 954 l 373 954 z "},"a":{"ha":555,"x_min":45,"x_max":487,"o":"m 397 64 l 144 64 q 133 75 134 66 l 133 301 q 144 313 136 312 l 397 313 l 397 64 m 293 -8 q 400 52 380 -7 l 410 0 l 487 0 l 487 528 q 416 655 487 631 q 336 665 385 665 l 80 665 l 80 593 l 387 593 q 397 581 396 590 l 397 380 l 194 380 q 58 323 85 380 q 45 245 45 293 l 45 123 q 113 1 45 24 q 189 -8 142 -8 l 293 -8 z "},"á":{"ha":555,"x_min":45,"x_max":487,"o":"m 397 64 l 144 64 q 133 75 134 66 l 133 301 q 144 313 136 312 l 397 313 l 397 64 m 293 -8 q 400 52 380 -7 l 410 0 l 487 0 l 487 528 q 416 655 487 631 q 336 665 385 665 l 80 665 l 80 593 l 387 593 q 397 581 396 590 l 397 380 l 194 380 q 58 323 85 380 q 45 245 45 293 l 45 123 q 113 1 45 24 q 189 -8 142 -8 l 293 -8 m 236 750 l 319 932 l 418 930 l 304 750 l 236 750 z "},"ă":{"ha":555,"x_min":45,"x_max":487,"o":"m 397 64 l 144 64 q 133 75 134 66 l 133 301 q 144 313 136 312 l 397 313 l 397 64 m 293 -8 q 400 52 380 -7 l 410 0 l 487 0 l 487 528 q 416 655 487 631 q 336 665 385 665 l 80 665 l 80 593 l 387 593 q 397 581 396 590 l 397 380 l 194 380 q 58 323 85 380 q 45 245 45 293 l 45 123 q 113 1 45 24 q 189 -8 142 -8 l 293 -8 m 133 914 q 186 779 133 808 q 289 760 222 760 q 422 819 395 760 q 437 914 437 854 l 374 914 q 343 829 374 846 q 289 819 323 819 q 202 861 216 819 q 197 914 197 880 l 133 914 z "},"â":{"ha":555,"x_min":45,"x_max":487,"o":"m 397 64 l 144 64 q 133 75 134 66 l 133 301 q 144 313 136 312 l 397 313 l 397 64 m 293 -8 q 400 52 380 -7 l 410 0 l 487 0 l 487 528 q 416 655 487 631 q 336 665 385 665 l 80 665 l 80 593 l 387 593 q 397 581 396 590 l 397 380 l 194 380 q 58 323 85 380 q 45 245 45 293 l 45 123 q 113 1 45 24 q 189 -8 142 -8 l 293 -8 m 320 925 l 221 925 l 96 750 l 178 750 l 270 882 l 354 750 l 439 750 l 320 925 z "},"´":{"ha":361,"x_min":84,"x_max":266,"o":"m 84 750 l 167 932 l 266 930 l 152 750 l 84 750 z "},"ä":{"ha":555,"x_min":45,"x_max":487,"o":"m 397 64 l 144 64 q 133 75 134 66 l 133 301 q 144 313 136 312 l 397 313 l 397 64 m 293 -8 q 400 52 380 -7 l 410 0 l 487 0 l 487 528 q 416 655 487 631 q 336 665 385 665 l 80 665 l 80 593 l 387 593 q 397 581 396 590 l 397 380 l 194 380 q 58 323 85 380 q 45 245 45 293 l 45 123 q 113 1 45 24 q 189 -8 142 -8 l 293 -8 m 205 784 l 205 892 l 115 892 l 115 784 l 205 784 m 439 784 l 439 892 l 349 892 l 349 784 l 439 784 z "},"æ":{"ha":897,"x_min":45,"x_max":838,"o":"m 486 590 q 498 601 488 600 l 739 601 q 750 590 749 598 l 750 353 l 486 353 l 486 590 m 823 -7 l 823 65 l 498 65 q 486 77 487 68 l 486 288 l 838 288 l 838 537 q 773 662 838 637 q 689 673 742 673 l 548 673 q 439 632 463 671 q 331 665 410 665 l 80 665 l 80 591 l 387 591 q 399 581 397 589 l 399 358 l 194 358 q 58 301 85 358 q 45 224 45 271 l 45 123 q 113 1 45 24 q 189 -8 142 -8 l 302 -8 q 407 58 393 -7 q 543 -7 434 -7 l 823 -7 m 144 64 q 133 75 134 66 l 133 279 q 144 292 136 290 l 399 292 l 399 110 q 406 64 399 85 l 144 64 z "},"à":{"ha":555,"x_min":45,"x_max":487,"o":"m 397 64 l 144 64 q 133 75 134 66 l 133 301 q 144 313 136 312 l 397 313 l 397 64 m 293 -8 q 400 52 380 -7 l 410 0 l 487 0 l 487 528 q 416 655 487 631 q 336 665 385 665 l 80 665 l 80 593 l 387 593 q 397 581 396 590 l 397 380 l 194 380 q 58 323 85 380 q 45 245 45 293 l 45 123 q 113 1 45 24 q 189 -8 142 -8 l 293 -8 m 129 930 l 228 932 l 320 750 l 252 750 l 129 930 z "},"ā":{"ha":555,"x_min":45,"x_max":487,"o":"m 397 64 l 144 64 q 133 75 134 66 l 133 301 q 144 313 136 312 l 397 313 l 397 64 m 293 -8 q 400 52 380 -7 l 410 0 l 487 0 l 487 528 q 416 655 487 631 q 336 665 385 665 l 80 665 l 80 593 l 387 593 q 397 581 396 590 l 397 380 l 194 380 q 58 323 85 380 q 45 245 45 293 l 45 123 q 113 1 45 24 q 189 -8 142 -8 l 293 -8 m 445 860 l 106 860 l 106 793 l 445 793 l 445 860 z "},"&":{"ha":765,"x_min":100,"x_max":722,"o":"m 438 -4 q 613 155 612 -1 l 613 380 q 629 396 616 395 l 720 396 l 722 480 l 686 480 q 522 370 543 480 q 519 328 519 350 l 519 95 q 503 79 517 80 l 212 79 q 194 95 195 81 l 194 408 q 212 425 197 423 l 406 425 l 406 498 l 218 498 q 201 514 202 500 l 201 768 q 218 785 203 784 l 496 785 q 513 768 511 783 l 513 628 l 606 628 l 606 709 q 484 863 606 844 q 437 865 463 865 l 277 865 q 111 753 130 865 q 107 709 107 732 l 107 582 q 170 464 109 498 q 100 338 102 435 l 100 155 q 258 -4 100 5 q 275 -4 267 -4 l 438 -4 z "},"ං":{"ha":566,"x_min":30,"x_max":506,"o":"m 103 24 q 30 94 31 27 l 30 528 q 100 605 30 597 q 114 605 107 605 l 431 605 q 506 526 505 602 l 506 99 q 448 26 506 33 q 430 24 438 24 l 103 24 m 103 507 l 103 121 q 141 88 106 90 l 397 88 q 433 125 431 91 l 433 505 q 399 543 430 541 l 141 543 q 103 507 104 540 z "},"ą":{"ha":555,"x_min":45,"x_max":513,"o":"m 397 64 l 144 64 q 133 75 134 66 l 133 301 q 144 313 136 312 l 397 313 l 397 64 m 293 -8 q 400 52 380 -7 l 410 0 l 418 0 l 347 -64 q 312 -153 312 -96 l 312 -182 q 382 -271 312 -255 q 449 -277 410 -277 l 513 -277 l 513 -209 l 399 -209 q 389 -199 391 -206 l 389 -121 q 400 -98 391 -107 l 487 0 l 487 528 q 416 655 487 631 q 336 665 385 665 l 80 665 l 80 593 l 387 593 q 397 581 396 590 l 397 380 l 194 380 q 58 323 85 380 q 45 245 45 293 l 45 123 q 113 1 45 24 q 189 -8 142 -8 l 293 -8 z "},"≈":{"ha":559,"x_min":58,"x_max":502,"o":"m 127 395 q 175 450 133 449 q 288 414 197 450 q 401 382 362 382 q 496 464 481 382 q 502 525 502 491 l 433 525 q 385 457 431 458 q 271 494 362 457 q 156 525 195 525 q 65 450 81 525 q 58 395 60 426 l 127 395 m 127 198 q 175 266 129 264 q 288 229 197 266 q 401 198 362 198 q 498 278 481 198 q 502 330 502 301 l 433 330 q 385 273 429 274 q 271 309 362 273 q 156 340 195 340 q 64 266 81 340 q 58 198 58 237 l 127 198 z "},"å":{"ha":555,"x_min":45,"x_max":487,"o":"m 397 64 l 144 64 q 133 75 134 66 l 133 301 q 144 313 136 312 l 397 313 l 397 64 m 293 -8 q 400 52 380 -7 l 410 0 l 487 0 l 487 528 q 416 655 487 631 q 336 665 385 665 l 80 665 l 80 593 l 387 593 q 397 581 396 590 l 397 380 l 194 380 q 58 323 85 380 q 45 245 45 293 l 45 123 q 113 1 45 24 q 189 -8 142 -8 l 293 -8 m 396 846 q 342 951 396 932 q 275 960 316 960 q 170 910 189 960 q 160 846 160 886 q 212 741 160 761 q 275 731 237 731 q 389 793 370 731 q 396 846 396 815 m 214 846 q 232 909 214 898 q 275 916 245 916 q 336 892 327 916 q 342 846 342 878 q 320 783 342 795 q 275 776 304 776 q 218 804 227 776 q 214 846 214 818 z "},"^":{"ha":587,"x_min":65,"x_max":522,"o":"m 266 916 l 65 509 l 138 509 l 293 834 l 448 509 l 522 509 l 320 916 l 266 916 z "},"~":{"ha":559,"x_min":58,"x_max":502,"o":"m 127 311 q 175 380 129 378 q 288 343 197 380 q 401 312 362 312 q 496 388 479 312 q 502 454 502 415 l 433 454 q 385 385 431 387 q 271 423 362 385 q 156 454 195 454 q 64 376 80 454 q 58 311 58 349 l 127 311 z "},"*":{"ha":479,"x_min":49,"x_max":430,"o":"m 199 595 l 231 665 l 206 682 l 151 631 l 103 566 l 153 530 l 199 595 m 377 568 l 330 633 l 274 684 l 250 667 l 281 597 l 328 533 l 377 568 m 354 708 l 430 734 l 411 791 l 335 765 l 270 728 l 278 700 l 354 708 m 255 739 l 270 814 l 270 892 l 209 892 l 209 812 l 225 739 l 255 739 m 199 700 l 209 728 l 144 765 l 66 789 l 49 732 l 125 708 l 199 700 z "},"@":{"ha":864,"x_min":92,"x_max":785,"o":"m 604 -62 l 604 8 l 183 8 q 172 19 174 11 l 172 734 q 183 745 175 743 l 694 745 q 707 734 705 742 l 707 205 q 694 193 704 194 l 614 193 q 604 205 605 195 l 604 621 l 411 625 q 277 562 301 628 q 267 496 267 534 l 267 258 q 338 140 267 160 q 403 132 365 132 l 431 132 q 526 184 509 133 q 609 132 533 133 l 684 132 q 776 179 758 132 q 785 251 785 205 l 785 674 q 709 806 785 781 q 631 815 678 815 l 247 815 q 103 747 130 815 q 92 674 92 718 l 92 79 q 168 -53 92 -28 q 247 -62 199 -62 l 604 -62 m 346 208 l 346 552 q 357 564 349 563 l 526 560 l 526 208 q 514 195 524 197 l 357 195 q 346 208 347 198 z "},"ã":{"ha":555,"x_min":45,"x_max":487,"o":"m 397 64 l 144 64 q 133 75 134 66 l 133 301 q 144 313 136 312 l 397 313 l 397 64 m 293 -8 q 400 52 380 -7 l 410 0 l 487 0 l 487 528 q 416 655 487 631 q 336 665 385 665 l 80 665 l 80 593 l 387 593 q 397 581 396 590 l 397 380 l 194 380 q 58 323 85 380 q 45 245 45 293 l 45 123 q 113 1 45 24 q 189 -8 142 -8 l 293 -8 m 163 788 q 195 840 164 838 q 281 811 213 840 q 363 789 331 789 q 444 857 430 789 q 448 907 448 880 l 382 907 q 359 857 382 863 q 346 856 353 856 q 260 884 326 856 q 178 906 212 906 q 103 841 115 906 q 99 789 99 819 l 163 788 z "},"b":{"ha":587,"x_min":79,"x_max":522,"o":"m 373 -5 q 509 53 483 -7 q 522 129 522 83 l 522 541 q 454 663 522 640 q 378 673 425 673 l 273 673 q 167 616 187 671 l 167 916 l 79 916 l 79 0 l 373 -5 m 167 590 q 178 601 170 600 l 423 601 q 435 590 434 598 l 435 79 q 423 66 433 68 l 167 71 l 167 590 z "},"\\":{"ha":524,"x_min":7,"x_max":517,"o":"m 427 -130 l 517 -130 l 95 916 l 7 916 l 427 -130 z "},"|":{"ha":357,"x_min":141,"x_max":216,"o":"m 216 -76 l 216 916 l 141 916 l 141 -76 l 216 -76 z "},"{":{"ha":412,"x_min":76,"x_max":381,"o":"m 222 841 q 233 852 225 850 l 381 852 l 381 922 l 296 922 q 133 810 149 922 q 130 773 130 792 l 130 401 q 117 388 127 389 l 76 388 l 76 304 l 117 304 q 130 290 129 301 l 130 -81 q 252 -228 130 -212 q 296 -231 274 -231 l 381 -231 l 381 -160 l 233 -160 q 222 -149 224 -157 l 222 237 q 146 346 221 332 q 222 454 221 361 l 222 841 z "},"}":{"ha":412,"x_min":31,"x_max":336,"o":"m 190 841 q 179 852 187 850 l 31 852 l 31 922 l 117 922 q 279 810 263 922 q 282 773 282 792 l 282 401 q 296 388 285 389 l 336 388 l 336 304 l 296 304 q 282 290 283 301 l 282 -81 q 160 -228 282 -212 q 117 -231 138 -231 l 31 -231 l 31 -160 l 179 -160 q 190 -149 189 -157 l 190 237 q 266 346 191 332 q 190 454 191 361 l 190 841 z "},"[":{"ha":381,"x_min":90,"x_max":334,"o":"m 334 -231 l 334 -163 l 180 -163 l 180 854 l 334 854 l 334 922 l 90 922 l 90 -231 l 334 -231 z "},"]":{"ha":381,"x_min":47,"x_max":292,"o":"m 47 -231 l 47 -163 l 201 -163 l 201 854 l 47 854 l 47 922 l 292 922 l 292 -231 l 47 -231 z "},"˘":{"ha":472,"x_min":88,"x_max":392,"o":"m 88 914 q 141 779 88 808 q 244 760 178 760 q 377 819 350 760 q 392 914 392 854 l 330 914 q 298 829 330 846 q 244 819 278 819 q 157 861 171 819 q 152 914 152 880 l 88 914 z "},"¦":{"ha":378,"x_min":152,"x_max":227,"o":"m 227 -76 l 227 307 l 152 307 l 152 -76 l 227 -76 m 227 533 l 227 916 l 152 916 l 152 533 l 227 533 z "},"•":{"ha":397,"x_min":113,"x_max":285,"o":"m 113 345 q 190 275 115 277 l 208 275 q 285 345 283 278 l 285 425 q 208 494 274 490 l 190 494 q 113 425 115 487 l 113 345 z "},"c":{"ha":452,"x_min":65,"x_max":429,"o":"m 429 -8 l 429 65 l 165 65 q 153 76 155 68 l 153 589 q 165 600 156 598 l 429 600 l 429 673 l 220 673 q 77 610 106 673 q 65 534 65 581 l 65 130 q 137 3 65 27 q 220 -8 170 -8 l 429 -8 z "},"ć":{"ha":452,"x_min":65,"x_max":429,"o":"m 429 -8 l 429 65 l 165 65 q 153 76 155 68 l 153 589 q 165 600 156 598 l 429 600 l 429 673 l 220 673 q 77 610 106 673 q 65 534 65 581 l 65 130 q 137 3 65 27 q 220 -8 170 -8 l 429 -8 m 203 750 l 286 932 l 385 930 l 271 750 l 203 750 z "},"ˇ":{"ha":460,"x_min":66,"x_max":410,"o":"m 186 757 l 285 757 l 410 932 l 328 932 l 236 800 l 152 932 l 66 932 l 186 757 z "},"č":{"ha":452,"x_min":65,"x_max":442,"o":"m 429 -8 l 429 65 l 165 65 q 153 76 155 68 l 153 589 q 165 600 156 598 l 429 600 l 429 673 l 220 673 q 77 610 106 673 q 65 534 65 581 l 65 130 q 137 3 65 27 q 220 -8 170 -8 l 429 -8 m 218 757 l 317 757 l 442 932 l 361 932 l 269 800 l 184 932 l 99 932 l 218 757 z "},"ç":{"ha":452,"x_min":65,"x_max":429,"o":"m 429 -8 l 429 65 l 165 65 q 153 76 155 68 l 153 589 q 165 600 156 598 l 429 600 l 429 673 l 220 673 q 77 610 106 673 q 65 534 65 581 l 65 130 q 137 3 65 27 q 220 -8 170 -8 l 194 -125 l 307 -125 q 316 -134 315 -127 l 316 -203 q 307 -213 313 -212 l 176 -213 l 176 -277 l 264 -277 q 385 -168 384 -274 l 385 -156 q 301 -71 385 -79 q 277 -69 289 -69 l 259 -69 l 271 -8 l 429 -8 z "},"¸":{"ha":347,"x_min":77,"x_max":286,"o":"m 217 -203 q 208 -213 214 -212 l 77 -213 l 77 -277 l 165 -277 q 286 -168 285 -274 l 286 -156 q 202 -71 286 -79 q 178 -69 190 -69 l 160 -69 l 175 5 l 125 14 l 95 -125 l 208 -125 q 217 -134 216 -127 l 217 -203 z "},"¢":{"ha":458,"x_min":62,"x_max":433,"o":"m 433 84 l 433 157 l 163 157 q 151 168 152 160 l 151 667 q 163 678 153 677 l 433 678 l 433 751 l 301 751 l 301 860 l 225 860 l 225 751 l 217 751 q 75 689 103 751 q 62 613 62 659 l 62 222 q 134 95 62 119 q 217 84 167 84 l 225 84 l 225 -23 l 301 -23 l 301 84 l 433 84 z "},"ˆ":{"ha":460,"x_min":50,"x_max":393,"o":"m 274 925 l 175 925 l 50 750 l 132 750 l 224 882 l 308 750 l 393 750 l 274 925 z "},":":{"ha":282,"x_min":90,"x_max":193,"o":"m 193 38 l 193 170 l 90 170 l 90 38 l 193 38 m 193 395 l 193 526 l 90 526 l 90 395 l 193 395 z "},",":{"ha":227,"x_min":61,"x_max":161,"o":"m 61 3 l 99 3 q 62 -99 92 -53 l 96 -126 q 161 23 161 -58 l 161 132 l 61 132 l 61 3 z "},"©":{"ha":693,"x_min":96,"x_max":597,"o":"m 522 818 q 533 807 532 815 l 533 302 q 522 292 530 293 l 171 292 q 160 302 161 294 l 160 807 q 171 818 163 817 l 522 818 m 96 363 q 159 250 96 271 q 233 240 189 240 l 460 240 q 586 296 562 240 q 597 363 597 323 l 597 746 q 534 860 597 838 q 460 869 505 869 l 233 869 q 107 814 132 869 q 96 746 96 787 l 96 363 m 479 340 l 479 404 l 305 404 q 293 415 294 407 l 293 694 q 305 705 296 704 l 479 705 l 479 769 l 354 769 q 229 713 254 769 q 217 643 217 686 l 217 467 q 278 350 217 373 q 354 340 308 340 l 479 340 z "},"¤":{"ha":780,"x_min":66,"x_max":713,"o":"m 515 591 q 528 579 526 589 l 528 258 q 515 245 525 247 l 270 245 q 259 258 260 248 l 259 579 q 270 591 262 590 l 515 591 m 171 308 q 180 240 171 266 l 66 126 l 118 75 l 231 187 q 324 171 263 171 l 463 171 q 552 184 519 171 l 662 75 l 713 126 l 602 237 q 614 308 614 264 l 614 529 q 602 602 614 574 l 713 713 l 662 764 l 549 652 q 463 666 515 666 l 324 666 q 232 651 266 666 l 122 761 l 71 709 l 182 598 q 171 529 171 567 l 171 308 z "},"d":{"ha":587,"x_min":65,"x_max":509,"o":"m 420 916 l 420 666 l 214 669 q 79 610 104 670 q 65 534 65 581 l 65 123 q 133 1 65 24 q 209 -8 163 -8 l 316 -8 q 423 53 404 -7 l 434 0 l 509 0 l 509 916 l 420 916 m 420 75 q 410 64 418 65 l 164 64 q 153 75 155 66 l 153 587 q 164 598 156 597 l 420 595 l 420 75 z "},"†":{"ha":534,"x_min":37,"x_max":498,"o":"m 286 0 l 298 336 l 298 490 l 282 613 l 252 613 l 236 491 l 236 336 l 248 0 l 286 0 m 157 618 l 231 633 l 231 663 l 157 680 l 37 680 l 37 618 l 157 618 m 498 618 l 498 680 l 377 680 l 302 663 l 302 633 l 377 618 l 498 618 m 282 685 l 297 760 l 297 892 l 237 892 l 237 758 l 252 685 l 282 685 z "},"‡":{"ha":764,"x_min":37,"x_max":498,"o":"m 282 273 l 297 353 l 297 534 l 282 614 l 252 614 l 237 536 l 237 351 l 252 273 l 282 273 m 297 -5 l 297 126 l 282 201 l 252 201 l 237 127 l 237 -5 l 297 -5 m 157 206 l 231 222 l 231 252 l 157 267 l 37 267 l 37 206 l 157 206 m 498 206 l 498 267 l 377 267 l 302 252 l 302 222 l 377 206 l 498 206 m 176 627 l 231 646 l 212 671 l 132 681 l 37 658 l 61 620 l 176 627 m 498 620 l 498 681 l 377 681 l 302 665 l 302 635 l 377 620 l 498 620 m 282 686 l 297 761 l 297 892 l 237 892 l 237 760 l 252 686 l 282 686 z "},"ď":{"ha":665,"x_min":65,"x_max":671,"o":"m 420 916 l 420 666 l 214 669 q 79 610 104 670 q 65 534 65 581 l 65 123 q 133 1 65 24 q 209 -8 163 -8 l 316 -8 q 423 53 404 -7 l 434 0 l 509 0 l 509 916 l 420 916 m 420 75 q 410 64 418 65 l 164 64 q 153 75 155 66 l 153 587 q 164 598 156 597 l 420 595 l 420 75 m 576 796 l 612 796 q 578 700 605 743 l 609 674 q 670 815 670 738 l 670 917 l 576 917 l 576 796 z "},"đ":{"ha":587,"x_min":65,"x_max":566,"o":"m 420 916 l 420 838 l 271 838 l 271 773 l 420 773 l 420 666 l 214 669 q 79 610 104 670 q 65 534 65 581 l 65 123 q 133 1 65 24 q 209 -8 163 -8 l 316 -8 q 423 53 404 -7 l 434 0 l 509 0 l 509 773 l 566 773 l 566 838 l 509 838 l 509 916 l 420 916 m 420 75 q 410 64 418 65 l 164 64 q 153 75 155 66 l 153 587 q 164 598 156 597 l 420 595 l 420 75 z "},"°":{"ha":388,"x_min":43,"x_max":345,"o":"m 43 602 q 129 503 43 513 q 156 502 142 502 l 231 502 q 345 589 338 502 q 345 602 345 595 l 345 769 q 262 868 345 856 q 231 869 247 869 l 156 869 q 46 796 57 869 q 43 769 43 784 l 43 602 m 262 807 q 273 796 271 804 l 273 575 q 262 563 270 564 l 126 563 q 115 575 117 566 l 115 796 q 126 807 118 806 l 262 807 z "},"¨":{"ha":457,"x_min":68,"x_max":392,"o":"m 157 784 l 157 892 l 68 892 l 68 784 l 157 784 m 392 784 l 392 892 l 301 892 l 301 784 l 392 784 z "},"÷":{"ha":654,"x_min":77,"x_max":576,"o":"m 576 365 l 576 435 l 77 435 l 77 365 l 576 365 m 374 113 l 374 237 l 278 237 l 278 113 l 374 113 m 374 564 l 374 689 l 278 689 l 278 564 l 374 564 z "},"$":{"ha":650,"x_min":73,"x_max":567,"o":"m 182 461 q 165 479 167 464 l 165 713 q 182 731 168 730 l 543 731 l 543 810 l 366 812 l 366 948 l 283 948 l 283 814 l 247 814 q 75 682 91 815 q 73 654 73 667 l 73 526 q 157 391 73 416 q 241 381 191 381 l 458 381 q 475 363 473 378 l 475 121 q 458 104 475 104 l 88 104 l 88 24 l 283 23 l 283 -110 l 366 -110 l 366 22 l 400 22 q 564 142 549 18 q 567 178 567 160 l 567 313 q 441 458 567 442 q 396 461 420 461 l 182 461 z "},"˙":{"ha":203,"x_min":54,"x_max":149,"o":"m 149 781 l 149 899 l 54 899 l 54 781 l 149 781 z "},"ı":{"ha":271,"x_min":92,"x_max":179,"o":"m 179 0 l 179 665 l 92 665 l 92 0 l 179 0 z "},"◌":{"ha":757,"x_min":64,"x_max":681,"o":"m 141 130 q 175 163 145 161 q 208 130 209 163 q 175 98 205 99 q 141 130 142 100 m 84 222 q 117 255 88 254 q 148 221 148 252 q 115 189 144 190 q 84 222 84 191 m 231 72 q 263 104 233 103 q 296 72 296 104 q 262 39 292 41 q 231 72 231 42 m 334 50 q 366 83 336 83 q 397 50 397 80 q 365 18 396 18 q 334 50 334 20 m 65 326 q 98 358 65 358 q 130 326 130 355 q 98 293 127 293 q 65 326 65 296 m 87 430 q 121 463 91 461 q 151 430 151 460 q 121 396 146 397 q 87 430 87 399 m 441 72 q 473 104 444 103 q 506 72 506 104 q 472 39 502 41 q 441 72 441 42 m 149 521 q 183 552 153 551 q 214 519 214 549 q 180 488 210 490 q 149 521 149 491 m 532 130 q 564 163 534 163 q 595 130 595 160 q 563 98 591 99 q 532 130 532 100 m 239 581 q 273 613 243 612 q 304 579 304 610 q 271 547 301 548 q 239 581 240 549 m 591 222 q 625 255 595 254 q 658 221 658 252 q 623 189 654 190 q 591 222 591 191 m 345 601 q 377 633 349 632 q 408 600 408 631 q 376 567 406 568 q 345 601 345 570 m 614 326 q 647 358 614 358 q 680 326 680 355 q 647 293 678 293 q 614 326 614 296 m 449 581 q 483 613 453 612 q 514 579 514 610 q 481 547 511 548 q 449 581 450 549 m 595 430 q 629 463 600 461 q 662 429 662 460 q 628 396 658 397 q 595 430 595 399 m 537 521 q 571 552 541 551 q 604 519 604 549 q 570 488 600 490 q 537 521 534 488 z "},"e":{"ha":568,"x_min":68,"x_max":510,"o":"m 495 -7 l 495 65 l 168 65 q 157 77 159 68 l 157 264 l 510 264 l 510 537 q 445 662 510 637 q 361 673 414 673 l 212 673 q 83 621 110 673 q 68 537 68 591 l 68 132 q 140 4 68 28 q 222 -7 172 -7 l 495 -7 m 157 590 q 168 601 160 600 l 411 601 q 422 590 420 598 l 422 331 l 157 331 l 157 590 z "},"é":{"ha":568,"x_min":68,"x_max":510,"o":"m 495 -7 l 495 65 l 168 65 q 157 77 159 68 l 157 264 l 510 264 l 510 537 q 445 662 510 637 q 361 673 414 673 l 212 673 q 83 621 110 673 q 68 537 68 591 l 68 132 q 140 4 68 28 q 222 -7 172 -7 l 495 -7 m 157 590 q 168 601 160 600 l 411 601 q 422 590 420 598 l 422 331 l 157 331 l 157 590 m 248 750 l 331 932 l 430 930 l 316 750 l 248 750 z "},"ě":{"ha":568,"x_min":68,"x_max":510,"o":"m 495 -7 l 495 65 l 168 65 q 157 77 159 68 l 157 264 l 510 264 l 510 537 q 445 662 510 637 q 361 673 414 673 l 212 673 q 83 621 110 673 q 68 537 68 591 l 68 132 q 140 4 68 28 q 222 -7 172 -7 l 495 -7 m 157 590 q 168 601 160 600 l 411 601 q 422 590 420 598 l 422 331 l 157 331 l 157 590 m 251 757 l 350 757 l 475 932 l 393 932 l 301 800 l 217 932 l 132 932 l 251 757 z "},"ê":{"ha":568,"x_min":68,"x_max":510,"o":"m 495 -7 l 495 65 l 168 65 q 157 77 159 68 l 157 264 l 510 264 l 510 537 q 445 662 510 637 q 361 673 414 673 l 212 673 q 83 621 110 673 q 68 537 68 591 l 68 132 q 140 4 68 28 q 222 -7 172 -7 l 495 -7 m 157 590 q 168 601 160 600 l 411 601 q 422 590 420 598 l 422 331 l 157 331 l 157 590 m 332 925 l 233 925 l 109 750 l 190 750 l 282 882 l 366 750 l 452 750 l 332 925 z "},"ë":{"ha":568,"x_min":68,"x_max":510,"o":"m 495 -7 l 495 65 l 168 65 q 157 77 159 68 l 157 264 l 510 264 l 510 537 q 445 662 510 637 q 361 673 414 673 l 212 673 q 83 621 110 673 q 68 537 68 591 l 68 132 q 140 4 68 28 q 222 -7 172 -7 l 495 -7 m 157 590 q 168 601 160 600 l 411 601 q 422 590 420 598 l 422 331 l 157 331 l 157 590 m 218 784 l 218 892 l 129 892 l 129 784 l 218 784 m 453 784 l 453 892 l 362 892 l 362 784 l 453 784 z "},"ė":{"ha":568,"x_min":68,"x_max":510,"o":"m 495 -7 l 495 65 l 168 65 q 157 77 159 68 l 157 264 l 510 264 l 510 537 q 445 662 510 637 q 361 673 414 673 l 212 673 q 83 621 110 673 q 68 537 68 591 l 68 132 q 140 4 68 28 q 222 -7 172 -7 l 495 -7 m 157 590 q 168 601 160 600 l 411 601 q 422 590 420 598 l 422 331 l 157 331 l 157 590 m 336 781 l 336 899 l 241 899 l 241 781 l 336 781 z "},"è":{"ha":568,"x_min":68,"x_max":510,"o":"m 495 -7 l 495 65 l 168 65 q 157 77 159 68 l 157 264 l 510 264 l 510 537 q 445 662 510 637 q 361 673 414 673 l 212 673 q 83 621 110 673 q 68 537 68 591 l 68 132 q 140 4 68 28 q 222 -7 172 -7 l 495 -7 m 157 590 q 168 601 160 600 l 411 601 q 422 590 420 598 l 422 331 l 157 331 l 157 590 m 142 930 l 241 932 l 334 750 l 266 750 l 142 930 z "},"…":{"ha":773,"x_min":87,"x_max":688,"o":"m 438 0 l 438 129 l 336 129 l 336 0 l 438 0 m 688 0 l 688 129 l 586 129 l 586 0 l 688 0 m 189 0 l 189 129 l 87 129 l 87 0 l 189 0 z "},"ē":{"ha":568,"x_min":68,"x_max":510,"o":"m 495 -7 l 495 65 l 168 65 q 157 77 159 68 l 157 264 l 510 264 l 510 537 q 445 662 510 637 q 361 673 414 673 l 212 673 q 83 621 110 673 q 68 537 68 591 l 68 132 q 140 4 68 28 q 222 -7 172 -7 l 495 -7 m 157 590 q 168 601 160 600 l 411 601 q 422 590 420 598 l 422 331 l 157 331 l 157 590 m 458 860 l 119 860 l 119 793 l 458 793 l 458 860 z "},"—":{"ha":841,"x_min":-1,"x_max":842,"o":"m 842 420 l -1 420 l -1 347 l 842 347 l 842 420 z "},"–":{"ha":567,"x_min":27,"x_max":540,"o":"m 540 420 l 27 420 l 27 347 l 540 347 l 540 420 z "},"ę":{"ha":568,"x_min":68,"x_max":521,"o":"m 495 -7 l 495 65 l 168 65 q 157 77 159 68 l 157 264 l 510 264 l 510 537 q 445 662 510 637 q 361 673 414 673 l 212 673 q 83 621 110 673 q 68 537 68 591 l 68 132 q 140 4 68 28 q 222 -7 172 -7 l 426 -7 l 355 -71 q 320 -160 320 -103 l 320 -189 q 391 -278 320 -262 q 457 -283 418 -283 l 521 -283 l 521 -216 l 407 -216 q 397 -206 399 -213 l 397 -127 q 408 -104 399 -114 l 495 -7 m 157 590 q 168 601 160 600 l 411 601 q 422 590 420 598 l 422 331 l 157 331 l 157 590 z "},"=":{"ha":673,"x_min":77,"x_max":585,"o":"m 585 519 l 77 519 l 77 449 l 585 449 l 585 519 m 585 283 l 77 283 l 77 213 l 585 213 l 585 283 z "},"℮":{"ha":694,"x_min":69,"x_max":625,"o":"m 170 133 l 170 347 l 625 347 q 505 623 625 533 q 355 673 437 673 q 121 533 201 673 q 69 330 69 444 q 182 52 69 146 q 347 -8 255 -8 q 570 90 472 -8 q 585 106 578 98 l 557 134 q 353 31 467 34 q 202 92 267 31 q 170 133 183 111 m 515 563 l 515 385 l 170 385 l 170 530 q 355 635 231 633 q 515 563 453 633 z "},"ð":{"ha":587,"x_min":65,"x_max":567,"o":"m 355 -8 q 498 54 469 -8 q 510 130 510 84 l 510 779 q 503 837 510 810 l 567 875 l 543 921 l 477 883 q 359 916 441 916 l 160 916 l 160 846 l 410 848 q 415 846 414 846 l 278 766 l 304 720 l 422 789 l 422 646 l 218 646 q 79 585 106 646 q 65 507 65 555 l 65 130 q 137 3 65 27 q 220 -8 170 -8 l 355 -8 m 153 76 l 153 566 q 164 576 156 575 l 422 576 l 422 76 q 411 65 419 66 l 164 65 q 153 76 155 68 z "},"!":{"ha":285,"x_min":106,"x_max":201,"o":"m 179 250 l 201 656 l 201 875 l 106 875 l 106 656 l 127 250 l 179 250 m 199 0 l 199 111 l 107 111 l 107 0 l 199 0 z "},"¡":{"ha":283,"x_min":99,"x_max":194,"o":"m 121 415 l 99 8 l 99 -210 l 194 -210 l 194 8 l 172 415 l 121 415 m 100 665 l 100 553 l 193 553 l 193 665 l 100 665 z "},"f":{"ha":388,"x_min":34,"x_max":404,"o":"m 404 850 l 404 924 l 269 924 q 132 865 160 924 q 118 787 118 834 l 118 665 l 34 665 l 34 595 l 118 595 l 118 0 l 205 0 l 205 595 l 382 595 l 382 665 l 205 665 l 205 840 q 216 850 208 849 l 404 850 z "},"ﬁ":{"ha":637,"x_min":31,"x_max":547,"o":"m 547 0 l 547 665 l 458 665 l 458 0 l 547 0 m 361 595 l 361 665 l 206 665 l 206 834 q 217 845 209 844 l 382 845 l 382 918 l 269 918 q 132 860 160 918 q 118 781 118 829 l 118 665 l 31 665 l 31 595 l 118 595 l 118 0 l 206 0 l 206 595 l 361 595 m 547 826 l 547 918 l 458 918 l 458 826 l 547 826 z "},"ﬂ":{"ha":644,"x_min":31,"x_max":553,"o":"m 372 595 l 372 665 l 205 665 l 205 840 q 216 850 208 849 l 385 850 l 385 924 l 267 924 q 130 865 159 924 q 117 787 117 834 l 117 665 l 31 665 l 31 595 l 117 595 l 117 0 l 205 0 l 205 595 l 372 595 m 553 0 l 553 916 l 467 916 l 467 0 l 553 0 z "},"ƒ":{"ha":519,"x_min":15,"x_max":483,"o":"m 94 -258 q 224 -206 194 -258 q 244 -121 240 -175 l 292 481 l 438 481 l 438 551 l 297 551 l 320 840 q 331 850 323 849 l 483 850 l 483 924 l 384 924 q 254 872 283 924 q 233 787 237 841 l 214 551 l 121 551 l 121 481 l 209 481 l 157 -174 q 146 -184 155 -183 l 15 -184 l 15 -258 l 94 -258 z "},"⁴":{"ha":506,"x_min":27,"x_max":452,"o":"m 376 338 l 376 457 l 452 457 l 452 518 l 376 518 l 376 863 l 290 863 q 218 836 239 863 q 197 799 210 825 l 27 507 l 27 457 l 301 457 l 301 338 l 376 338 m 266 795 q 275 802 273 802 l 301 802 l 301 518 l 106 518 l 266 795 z "},"⁄":{"ha":601,"x_min":22,"x_max":563,"o":"m 486 869 l 22 -8 l 100 -8 l 563 869 l 486 869 z "},"g":{"ha":570,"x_min":65,"x_max":509,"o":"m 420 75 q 410 64 418 65 l 164 64 q 153 75 155 66 l 153 586 q 164 597 156 595 l 420 594 l 420 75 m 410 -194 l 87 -194 l 87 -266 l 354 -266 q 496 -203 468 -266 q 509 -127 509 -174 l 509 665 l 214 669 q 79 610 104 670 q 65 534 65 581 l 65 123 q 133 1 65 24 q 209 -8 163 -8 l 316 -8 q 420 45 399 -7 l 420 -182 q 410 -194 418 -193 z "},"ğ":{"ha":570,"x_min":65,"x_max":509,"o":"m 420 75 q 410 64 418 65 l 164 64 q 153 75 155 66 l 153 586 q 164 597 156 595 l 420 594 l 420 75 m 410 -194 l 87 -194 l 87 -266 l 354 -266 q 496 -203 468 -266 q 509 -127 509 -174 l 509 665 l 214 669 q 79 610 104 670 q 65 534 65 581 l 65 123 q 133 1 65 24 q 209 -8 163 -8 l 316 -8 q 420 45 399 -7 l 420 -182 q 410 -194 418 -193 m 142 914 q 195 779 142 808 q 298 760 232 760 q 431 819 404 760 q 446 914 446 854 l 384 914 q 353 829 384 846 q 298 819 332 819 q 212 861 225 819 q 206 914 206 880 l 142 914 z "},"ß":{"ha":629,"x_min":27,"x_max":567,"o":"m 392 -4 q 567 155 566 -1 l 567 340 q 487 468 566 444 q 547 585 547 502 l 547 709 q 425 863 547 844 q 377 865 403 865 l 270 865 q 106 738 118 865 q 104 711 104 724 l 104 665 l 27 665 l 27 595 l 104 595 l 104 0 l 193 0 l 193 776 q 209 793 195 792 l 441 793 q 457 776 456 791 l 457 514 q 439 496 454 498 l 260 496 l 260 426 l 461 426 q 477 408 476 423 l 477 85 q 461 68 475 69 l 260 68 l 260 -4 l 392 -4 z "},"`":{"ha":365,"x_min":57,"x_max":248,"o":"m 57 930 l 156 932 l 248 750 l 180 750 l 57 930 z "},">":{"ha":635,"x_min":87,"x_max":562,"o":"m 562 437 l 87 677 l 87 595 l 468 408 l 87 221 l 87 141 l 562 382 l 562 437 z "},"≥":{"ha":627,"x_min":76,"x_max":551,"o":"m 551 442 l 76 674 l 76 593 l 454 414 l 76 235 l 76 155 l 551 388 l 551 442 m 540 121 l 76 121 l 76 50 l 540 50 l 540 121 z "},"«":{"ha":503,"x_min":46,"x_max":469,"o":"m 60 326 l 201 115 l 281 115 l 145 335 q 145 357 140 346 l 285 575 l 209 575 l 60 362 q 57 330 46 345 q 60 326 58 327 m 244 326 l 382 115 l 464 115 l 330 335 q 330 357 324 346 l 469 575 l 389 575 l 244 362 q 243 328 232 345 q 244 326 244 327 z "},"»":{"ha":503,"x_min":18,"x_max":441,"o":"m 427 365 l 286 575 l 206 575 l 342 355 q 342 334 347 345 l 202 115 l 278 115 l 427 328 q 430 361 441 346 q 427 365 429 363 m 243 365 l 104 575 l 23 575 l 157 355 q 157 334 163 345 l 18 115 l 98 115 l 243 328 q 244 362 255 346 q 243 365 243 363 z "},"‹":{"ha":324,"x_min":46,"x_max":292,"o":"m 60 326 l 201 115 l 286 115 l 151 335 q 151 357 145 347 l 292 575 l 208 575 l 60 362 q 57 330 46 345 q 60 326 58 327 z "},"›":{"ha":326,"x_min":34,"x_max":279,"o":"m 266 365 l 125 575 l 39 575 l 175 355 q 175 334 180 343 l 34 115 l 118 115 l 266 328 q 269 361 279 346 q 266 365 267 363 z "},"h":{"ha":589,"x_min":77,"x_max":521,"o":"m 270 673 q 164 627 190 671 l 164 916 l 77 916 l 77 0 l 164 0 l 164 590 q 175 601 167 601 l 422 601 q 433 590 431 598 l 433 0 l 521 0 l 521 541 q 453 663 521 640 q 377 673 423 673 l 270 673 z "},"˝":{"ha":454,"x_min":62,"x_max":408,"o":"m 62 750 l 144 932 l 240 930 l 129 750 l 62 750 m 228 750 l 311 932 l 408 930 l 294 750 l 228 750 z "},"-":{"ha":433,"x_min":45,"x_max":388,"o":"m 388 420 l 45 420 l 45 347 l 388 347 l 388 420 z "},"i":{"ha":270,"x_min":91,"x_max":179,"o":"m 179 0 l 179 665 l 91 665 l 91 0 l 179 0 m 179 808 l 179 901 l 91 901 l 91 808 l 179 808 z "},"í":{"ha":271,"x_min":92,"x_max":277,"o":"m 179 0 l 179 665 l 92 665 l 92 0 l 179 0 m 95 750 l 178 932 l 277 930 l 163 750 l 95 750 z "},"î":{"ha":271,"x_min":-45,"x_max":298,"o":"m 179 0 l 179 665 l 92 665 l 92 0 l 179 0 m 179 925 l 80 925 l -45 750 l 37 750 l 129 882 l 213 750 l 298 750 l 179 925 z "},"ï":{"ha":271,"x_min":-24,"x_max":300,"o":"m 179 0 l 179 665 l 92 665 l 92 0 l 179 0 m 65 784 l 65 892 l -24 892 l -24 784 l 65 784 m 300 784 l 300 892 l 209 892 l 209 784 l 300 784 z "},"ì":{"ha":271,"x_min":-11,"x_max":180,"o":"m 179 0 l 179 665 l 92 665 l 92 0 l 179 0 m -11 930 l 88 932 l 180 750 l 113 750 l -11 930 z "},"ī":{"ha":271,"x_min":-9,"x_max":281,"o":"m 179 0 l 179 665 l 92 665 l 92 0 l 179 0 m 279 860 l -8 860 l -8 793 l 279 793 l 279 860 z "},"∞":{"ha":1024,"x_min":62,"x_max":962,"o":"m 161 239 q 146 254 148 241 l 146 502 q 161 517 149 515 l 370 517 q 392 502 384 515 l 469 376 l 397 260 q 372 239 385 241 q 355 239 365 239 l 161 239 m 812 165 q 962 309 960 168 l 962 445 q 861 585 962 566 q 812 589 840 589 l 680 589 q 587 553 618 589 q 553 507 575 538 l 515 448 l 480 505 q 411 578 441 564 q 349 589 387 589 l 212 589 q 72 514 98 589 q 62 445 62 486 l 62 309 q 179 167 62 180 q 212 165 195 165 l 340 165 q 438 206 406 165 q 472 256 445 214 l 509 313 l 544 255 q 601 183 582 197 q 678 165 628 165 l 812 165 m 674 239 q 635 252 646 239 q 629 260 632 256 l 553 384 l 627 499 q 651 517 640 517 l 863 517 q 878 502 876 514 l 878 254 q 863 239 875 240 l 674 239 z "},"∫":{"ha":438,"x_min":19,"x_max":406,"o":"m 167 787 l 167 -172 q 156 -184 164 -183 l 19 -184 l 19 -266 l 115 -266 q 245 -203 220 -266 q 258 -129 258 -174 l 258 830 q 269 842 260 841 l 406 842 l 406 924 l 309 924 q 179 861 205 924 q 167 787 167 831 z "},"į":{"ha":271,"x_min":4,"x_max":205,"o":"m 179 0 l 179 665 l 92 665 l 92 0 l 110 0 l 39 -64 q 4 -153 4 -96 l 4 -182 q 75 -271 4 -255 q 141 -277 102 -277 l 205 -277 l 205 -209 l 91 -209 q 81 -199 83 -206 l 81 -121 q 92 -98 83 -107 l 179 0 m 183 781 l 183 899 l 88 899 l 88 781 l 183 781 z "},"j":{"ha":259,"x_min":-42,"x_max":176,"o":"m 176 808 l 176 901 l 90 901 l 90 808 l 176 808 m 79 -193 l -42 -193 l -42 -266 l 22 -266 q 164 -203 136 -266 q 176 -127 176 -174 l 176 665 l 90 665 l 90 -182 q 79 -193 87 -191 z "},"k":{"ha":594,"x_min":92,"x_max":589,"o":"m 370 309 q 382 298 380 307 l 499 0 l 589 0 l 491 241 q 437 338 461 320 q 411 351 425 346 q 464 449 437 372 l 536 665 l 453 665 l 361 392 q 349 381 355 382 l 179 381 l 179 916 l 92 916 l 92 0 l 179 0 l 179 309 l 370 309 z "},"l":{"ha":269,"x_min":91,"x_max":178,"o":"m 178 0 l 178 916 l 91 916 l 91 0 l 178 0 z "},"ĺ":{"ha":269,"x_min":91,"x_max":274,"o":"m 178 0 l 178 916 l 91 916 l 91 0 l 178 0 m 92 962 l 175 1143 l 274 1142 l 160 962 l 92 962 z "},"ľ":{"ha":334,"x_min":91,"x_max":339,"o":"m 178 0 l 178 916 l 91 916 l 91 0 l 178 0 m 244 796 l 279 796 q 245 700 273 743 l 277 674 q 338 815 338 738 l 338 917 l 244 917 l 244 796 z "},"<":{"ha":632,"x_min":71,"x_max":545,"o":"m 71 354 l 545 114 l 545 195 l 164 382 l 545 570 l 545 650 l 71 408 l 71 354 z "},"≤":{"ha":627,"x_min":76,"x_max":551,"o":"m 76 387 l 551 155 l 551 236 l 172 415 l 551 594 l 551 674 l 76 441 l 76 387 m 551 121 l 84 121 l 84 50 l 551 50 l 551 121 z "},"¬":{"ha":704,"x_min":54,"x_max":627,"o":"m 627 438 l 54 438 l 54 372 l 549 372 l 549 199 l 627 199 l 627 438 z "},"◊":{"ha":661,"x_min":30,"x_max":631,"o":"m 351 -4 l 631 434 l 354 865 l 301 865 l 30 430 l 296 -4 l 351 -4 m 146 391 l 115 433 l 298 726 l 327 779 l 514 475 l 545 430 l 354 132 l 327 80 l 146 391 z "},"ł":{"ha":271,"x_min":-11,"x_max":285,"o":"m 179 0 l 179 434 l 285 473 l 264 534 l 179 503 l 179 916 l 92 916 l 92 472 l -11 435 l 9 372 l 92 403 l 92 0 l 179 0 z "},"m":{"ha":905,"x_min":66,"x_max":838,"o":"m 259 673 q 151 618 172 671 l 141 665 l 66 665 l 66 0 l 155 0 l 153 590 q 165 601 156 601 l 397 601 q 410 590 408 598 l 410 0 l 496 0 l 496 541 q 495 563 496 556 l 496 590 q 507 601 499 601 l 739 601 q 751 590 750 598 l 751 0 l 838 0 l 838 541 q 770 663 838 640 q 694 673 741 673 l 602 673 q 487 605 507 671 q 353 673 454 670 l 259 673 z "},"¯":{"ha":491,"x_min":76,"x_max":415,"o":"m 415 860 l 76 860 l 76 793 l 415 793 l 415 860 z "},"−":{"ha":713,"x_min":77,"x_max":636,"o":"m 636 438 l 77 438 l 77 368 l 636 368 l 636 438 z "},"×":{"ha":601,"x_min":77,"x_max":524,"o":"m 473 625 l 301 453 l 129 625 l 77 575 l 250 403 l 77 231 l 129 179 l 301 351 l 472 179 l 524 231 l 351 403 l 524 575 l 473 625 z "},"n":{"ha":590,"x_min":79,"x_max":522,"o":"m 271 673 q 163 618 184 671 l 153 665 l 79 665 l 79 0 l 167 0 l 165 590 q 178 601 168 601 l 423 601 q 435 590 434 598 l 435 0 l 522 0 l 522 541 q 454 663 522 640 q 378 673 425 673 l 271 673 z "},"ń":{"ha":590,"x_min":79,"x_max":522,"o":"m 271 673 q 163 618 184 671 l 153 665 l 79 665 l 79 0 l 167 0 l 165 590 q 178 601 168 601 l 423 601 q 435 590 434 598 l 435 0 l 522 0 l 522 541 q 454 663 522 640 q 378 673 425 673 l 271 673 m 269 750 l 351 932 l 450 930 l 336 750 l 269 750 z "},"ň":{"ha":590,"x_min":79,"x_max":522,"o":"m 271 673 q 163 618 184 671 l 153 665 l 79 665 l 79 0 l 167 0 l 165 590 q 178 601 168 601 l 423 601 q 435 590 434 598 l 435 0 l 522 0 l 522 541 q 454 663 522 640 q 378 673 425 673 l 271 673 m 264 757 l 363 757 l 488 932 l 407 932 l 315 800 l 231 932 l 145 932 l 264 757 z "},"≠":{"ha":662,"x_min":77,"x_max":585,"o":"m 438 684 l 362 519 l 77 519 l 77 449 l 330 449 l 254 283 l 77 283 l 77 213 l 220 213 l 144 47 l 221 47 l 297 213 l 585 213 l 585 283 l 330 283 l 406 449 l 585 449 l 585 519 l 438 519 l 514 684 l 438 684 z "},"ñ":{"ha":590,"x_min":79,"x_max":522,"o":"m 271 673 q 163 618 184 671 l 153 665 l 79 665 l 79 0 l 167 0 l 165 590 q 178 601 168 601 l 423 601 q 435 590 434 598 l 435 0 l 522 0 l 522 541 q 454 663 522 640 q 378 673 425 673 l 271 673 m 195 788 q 228 840 197 838 q 313 811 245 840 q 396 789 363 789 q 476 857 463 789 q 480 907 480 880 l 415 907 q 392 857 415 863 q 378 856 387 856 q 293 884 358 856 q 210 906 244 906 q 136 841 148 906 q 132 789 132 819 l 195 788 z "},"#":{"ha":708,"x_min":23,"x_max":685,"o":"m 94 0 l 163 0 l 206 231 l 422 231 l 377 0 l 446 0 l 490 231 l 621 231 l 621 298 l 503 298 l 555 571 l 685 571 l 685 639 l 568 639 l 612 868 l 544 868 l 500 639 l 285 639 l 328 868 l 260 868 l 217 639 l 87 639 l 87 571 l 203 571 l 151 298 l 23 298 l 23 231 l 138 231 l 94 0 m 487 571 l 434 298 l 220 298 l 271 571 l 487 571 z "},"o":{"ha":587,"x_min":65,"x_max":522,"o":"m 422 600 q 434 589 433 597 l 434 76 q 422 65 431 66 l 165 65 q 153 76 155 68 l 153 589 q 165 600 156 598 l 422 600 m 65 130 q 137 3 65 27 q 220 -8 170 -8 l 368 -8 q 510 54 481 -8 q 522 130 522 84 l 522 534 q 450 662 522 637 q 368 673 418 673 l 220 673 q 77 610 106 673 q 65 534 65 581 l 65 130 z "},"ó":{"ha":587,"x_min":65,"x_max":522,"o":"m 422 600 q 434 589 433 597 l 434 76 q 422 65 431 66 l 165 65 q 153 76 155 68 l 153 589 q 165 600 156 598 l 422 600 m 65 130 q 137 3 65 27 q 220 -8 170 -8 l 368 -8 q 510 54 481 -8 q 522 130 522 84 l 522 534 q 450 662 522 637 q 368 673 418 673 l 220 673 q 77 610 106 673 q 65 534 65 581 l 65 130 m 255 750 l 338 932 l 437 930 l 323 750 l 255 750 z "},"ô":{"ha":587,"x_min":65,"x_max":522,"o":"m 422 600 q 434 589 433 597 l 434 76 q 422 65 431 66 l 165 65 q 153 76 155 68 l 153 589 q 165 600 156 598 l 422 600 m 65 130 q 137 3 65 27 q 220 -8 170 -8 l 368 -8 q 510 54 481 -8 q 522 130 522 84 l 522 534 q 450 662 522 637 q 368 673 418 673 l 220 673 q 77 610 106 673 q 65 534 65 581 l 65 130 m 339 925 l 240 925 l 115 750 l 197 750 l 289 882 l 373 750 l 458 750 l 339 925 z "},"ö":{"ha":587,"x_min":65,"x_max":522,"o":"m 422 600 q 434 589 433 597 l 434 76 q 422 65 431 66 l 165 65 q 153 76 155 68 l 153 589 q 165 600 156 598 l 422 600 m 65 130 q 137 3 65 27 q 220 -8 170 -8 l 368 -8 q 510 54 481 -8 q 522 130 522 84 l 522 534 q 450 662 522 637 q 368 673 418 673 l 220 673 q 77 610 106 673 q 65 534 65 581 l 65 130 m 225 784 l 225 892 l 136 892 l 136 784 l 225 784 m 460 784 l 460 892 l 369 892 l 369 784 l 460 784 z "},"œ":{"ha":933,"x_min":65,"x_max":875,"o":"m 423 600 q 434 589 433 597 l 434 76 q 423 65 431 66 l 165 65 q 153 76 155 68 l 153 589 q 165 600 156 598 l 423 600 m 521 590 q 532 601 524 600 l 774 601 q 787 590 785 598 l 787 331 l 521 331 l 521 590 m 598 -7 l 860 -7 l 860 65 l 532 65 q 521 77 522 68 l 521 264 l 875 264 l 875 537 q 810 662 875 637 q 726 673 779 673 l 587 673 q 476 635 500 671 q 359 673 445 673 l 220 673 q 77 610 106 673 q 65 534 65 581 l 65 130 q 137 3 65 27 q 220 -8 170 -8 l 359 -8 q 480 34 450 -7 q 598 -7 510 -7 z "},"˛":{"ha":387,"x_min":121,"x_max":321,"o":"m 321 -277 l 321 -209 l 208 -209 q 198 -199 199 -206 l 198 -121 q 209 -98 199 -107 l 296 0 l 236 8 l 156 -64 q 121 -153 121 -96 l 121 -182 q 191 -271 121 -255 q 258 -277 218 -277 l 321 -277 z "},"ò":{"ha":587,"x_min":65,"x_max":522,"o":"m 422 600 q 434 589 433 597 l 434 76 q 422 65 431 66 l 165 65 q 153 76 155 68 l 153 589 q 165 600 156 598 l 422 600 m 65 130 q 137 3 65 27 q 220 -8 170 -8 l 368 -8 q 510 54 481 -8 q 522 130 522 84 l 522 534 q 450 662 522 637 q 368 673 418 673 l 220 673 q 77 610 106 673 q 65 534 65 581 l 65 130 m 149 930 l 248 932 l 340 750 l 273 750 l 149 930 z "},"ő":{"ha":587,"x_min":65,"x_max":522,"o":"m 422 600 q 434 589 433 597 l 434 76 q 422 65 431 66 l 165 65 q 153 76 155 68 l 153 589 q 165 600 156 598 l 422 600 m 65 130 q 137 3 65 27 q 220 -8 170 -8 l 368 -8 q 510 54 481 -8 q 522 130 522 84 l 522 534 q 450 662 522 637 q 368 673 418 673 l 220 673 q 77 610 106 673 q 65 534 65 581 l 65 130 m 175 750 l 256 932 l 353 930 l 241 750 l 175 750 m 340 750 l 423 932 l 521 930 l 407 750 l 340 750 z "},"ō":{"ha":587,"x_min":65,"x_max":522,"o":"m 422 600 q 434 589 433 597 l 434 76 q 422 65 431 66 l 165 65 q 153 76 155 68 l 153 589 q 165 600 156 598 l 422 600 m 65 130 q 137 3 65 27 q 220 -8 170 -8 l 368 -8 q 510 54 481 -8 q 522 130 522 84 l 522 534 q 450 662 522 637 q 368 673 418 673 l 220 673 q 77 610 106 673 q 65 534 65 581 l 65 130 m 465 860 l 126 860 l 126 793 l 465 793 l 465 860 z "},"½":{"ha":1015,"x_min":41,"x_max":956,"o":"m 382 399 l 277 399 l 277 861 l 205 861 l 41 753 l 73 700 l 202 783 l 202 399 l 60 399 l 60 338 l 382 338 l 382 399 m 722 869 l 258 -8 l 336 -8 l 799 869 l 722 869 m 632 164 l 632 0 l 956 0 l 956 61 l 708 61 l 708 157 q 723 186 709 179 l 895 267 q 954 320 945 290 q 956 347 956 332 l 956 431 q 857 528 956 528 q 854 528 856 528 l 647 524 l 647 464 l 869 464 q 880 453 879 461 l 880 345 q 869 332 880 336 l 868 331 l 697 250 q 640 209 650 227 q 632 164 632 193 z "},"¼":{"ha":1050,"x_min":41,"x_max":996,"o":"m 920 0 l 920 119 l 996 119 l 996 180 l 920 180 l 920 525 l 834 525 q 762 498 783 525 q 741 461 754 487 l 571 170 l 571 119 l 845 119 l 845 0 l 920 0 m 810 457 q 819 464 817 464 l 845 464 l 845 180 l 650 180 l 810 457 m 382 399 l 277 399 l 277 861 l 205 861 l 41 753 l 73 700 l 202 783 l 202 399 l 60 399 l 60 338 l 382 338 l 382 399 m 730 869 l 266 -8 l 345 -8 l 807 869 l 730 869 z "},"¹":{"ha":422,"x_min":41,"x_max":382,"o":"m 382 399 l 277 399 l 277 861 l 205 861 l 41 753 l 73 700 l 202 783 l 202 399 l 60 399 l 60 338 l 382 338 l 382 399 z "},"ª":{"ha":452,"x_min":52,"x_max":387,"o":"m 309 473 l 138 473 q 127 486 129 476 l 127 636 q 138 647 130 646 l 309 647 l 309 473 m 213 408 q 312 463 294 410 l 321 416 l 387 416 l 387 772 q 338 888 387 865 q 248 903 307 903 l 77 903 l 77 841 l 298 841 q 309 829 308 838 l 309 707 l 190 707 q 66 658 92 707 q 52 575 52 628 l 52 538 q 109 419 52 442 q 184 408 137 408 l 213 408 z "},"º":{"ha":479,"x_min":60,"x_max":420,"o":"m 332 842 q 343 831 342 840 l 343 484 q 332 472 340 473 l 148 472 q 137 484 138 475 l 137 831 q 148 842 140 841 l 332 842 m 60 544 q 129 418 60 441 q 205 408 160 408 l 275 408 q 408 471 382 408 q 420 544 420 500 l 420 770 q 351 897 420 873 q 275 906 320 906 l 205 906 q 72 844 98 906 q 60 770 60 814 l 60 544 z "},"ø":{"ha":587,"x_min":65,"x_max":522,"o":"m 457 742 l 423 669 q 368 673 397 673 l 220 673 q 77 610 106 673 q 65 534 65 581 l 65 130 q 114 14 66 43 l 72 -76 l 133 -76 l 167 -4 q 220 -8 190 -8 l 368 -8 q 510 54 481 -8 q 522 130 522 84 l 522 534 q 475 651 521 620 l 518 742 l 457 742 m 153 589 q 165 600 156 598 l 391 600 l 153 96 l 153 589 m 434 76 q 422 65 431 66 l 199 65 l 434 563 l 434 76 z "},"õ":{"ha":587,"x_min":65,"x_max":522,"o":"m 422 600 q 434 589 433 597 l 434 76 q 422 65 431 66 l 165 65 q 153 76 155 68 l 153 589 q 165 600 156 598 l 422 600 m 65 130 q 137 3 65 27 q 220 -8 170 -8 l 368 -8 q 510 54 481 -8 q 522 130 522 84 l 522 534 q 450 662 522 637 q 368 673 418 673 l 220 673 q 77 610 106 673 q 65 534 65 581 l 65 130 m 182 788 q 214 840 183 838 q 300 811 232 840 q 382 789 350 789 q 463 857 449 789 q 467 907 467 880 l 401 907 q 378 857 401 863 q 365 856 373 856 q 279 884 345 856 q 197 906 231 906 q 122 841 134 906 q 118 789 118 819 l 182 788 z "},"p":{"ha":587,"x_min":79,"x_max":522,"o":"m 167 -258 l 167 0 l 373 -4 q 509 54 483 -5 q 522 130 522 84 l 522 541 q 454 663 522 640 q 378 673 425 673 l 271 673 q 164 612 183 671 l 153 665 l 79 665 l 79 -258 l 167 -258 m 167 590 q 178 601 170 600 l 423 601 q 434 590 433 598 l 434 79 q 423 66 431 68 l 167 71 l 167 590 z "},"¶":{"ha":658,"x_min":47,"x_max":557,"o":"m 475 0 l 557 0 l 557 861 l 217 865 q 47 712 49 867 l 47 610 q 217 454 50 456 l 305 454 l 304 0 l 387 0 l 387 788 l 475 788 l 475 0 z "},"(":{"ha":373,"x_min":90,"x_max":342,"o":"m 342 -231 l 342 -160 l 193 -160 q 182 -148 183 -157 l 182 840 q 193 852 184 850 l 342 852 l 342 922 l 255 922 q 92 810 109 922 q 90 773 90 792 l 90 -81 q 212 -228 90 -212 q 255 -231 233 -231 l 342 -231 z "},")":{"ha":373,"x_min":31,"x_max":283,"o":"m 31 -231 l 31 -160 l 180 -160 q 191 -148 190 -157 l 191 840 q 180 852 189 850 l 31 852 l 31 922 l 118 922 q 281 810 264 922 q 283 773 283 792 l 283 -81 q 161 -228 283 -212 q 118 -231 140 -231 l 31 -231 z "},"∂":{"ha":669,"x_min":64,"x_max":566,"o":"m 396 -4 q 553 68 524 -4 q 566 141 566 98 l 566 707 q 439 863 566 842 q 391 865 416 865 l 99 861 l 99 783 l 456 783 q 472 766 471 780 l 472 450 q 363 509 449 509 l 229 509 q 68 404 87 509 q 64 361 64 384 l 64 152 q 186 -1 64 18 q 233 -4 208 -4 l 396 -4 m 174 79 q 157 95 157 79 l 157 415 q 174 431 160 430 l 461 431 q 472 420 471 429 l 472 95 q 454 79 469 80 l 174 79 z "},"%":{"ha":955,"x_min":45,"x_max":910,"o":"m 45 486 q 156 385 56 389 l 267 385 q 381 486 382 388 l 381 764 q 304 861 380 849 q 267 864 286 864 l 156 864 q 46 789 58 864 q 45 764 45 777 l 45 486 m 292 796 q 304 785 302 793 l 304 464 q 292 453 301 454 l 133 453 q 122 464 123 456 l 122 785 q 133 796 125 795 l 292 796 m 574 98 q 659 -1 574 8 q 686 -3 673 -3 l 798 -3 q 910 98 905 9 l 910 374 q 819 475 910 467 q 798 476 808 476 l 686 476 q 575 397 586 476 q 574 374 574 387 l 574 98 m 822 408 q 833 397 831 406 l 833 76 q 822 65 830 66 l 663 65 q 651 76 652 68 l 651 397 q 663 408 654 407 l 822 408 m 671 869 l 208 -8 l 286 -8 l 749 869 l 671 869 z "},".":{"ha":250,"x_min":73,"x_max":176,"o":"m 176 0 l 176 132 l 73 132 l 73 0 l 176 0 z "},"·":{"ha":241,"x_min":64,"x_max":178,"o":"m 178 326 l 178 460 l 64 460 l 64 326 l 178 326 z "},"‰":{"ha":1375,"x_min":45,"x_max":1331,"o":"m 996 98 q 1082 -1 996 8 q 1107 -3 1095 -3 l 1218 -3 q 1329 77 1320 -3 q 1331 98 1331 87 l 1331 374 q 1248 475 1331 464 q 1218 476 1233 476 l 1107 476 q 997 396 1006 476 q 996 374 996 385 l 996 98 m 1242 408 q 1253 397 1252 406 l 1253 76 q 1242 65 1251 66 l 1084 65 q 1073 76 1074 68 l 1073 397 q 1084 408 1076 407 l 1242 408 m 45 486 q 156 385 56 389 l 267 385 q 381 486 382 388 l 381 764 q 304 861 380 849 q 267 864 286 864 l 156 864 q 46 789 58 864 q 45 764 45 777 l 45 486 m 292 796 q 304 785 302 793 l 304 464 q 292 453 301 454 l 133 453 q 122 464 123 456 l 122 785 q 133 796 125 795 l 292 796 m 574 98 q 659 -1 574 8 q 686 -3 673 -3 l 798 -3 q 910 98 905 9 l 910 374 q 819 475 910 467 q 798 476 808 476 l 686 476 q 575 397 586 476 q 574 374 574 387 l 574 98 m 822 408 q 833 397 831 406 l 833 76 q 822 65 830 66 l 663 65 q 651 76 652 68 l 651 397 q 663 408 654 407 l 822 408 m 671 869 l 208 -8 l 286 -8 l 749 869 l 671 869 z "},"π":{"ha":665,"x_min":26,"x_max":639,"o":"m 199 0 l 199 595 l 465 595 l 465 0 l 553 0 l 553 595 l 639 595 l 639 665 l 26 665 l 26 595 l 111 595 l 111 0 l 199 0 z "},"+":{"ha":713,"x_min":79,"x_max":635,"o":"m 635 438 l 393 438 l 393 674 l 320 674 l 320 438 l 79 438 l 79 368 l 320 368 l 320 133 l 393 133 l 393 368 l 635 368 l 635 438 z "},"±":{"ha":713,"x_min":79,"x_max":635,"o":"m 635 484 l 393 484 l 393 697 l 320 697 l 320 484 l 79 484 l 79 414 l 320 414 l 320 202 l 393 202 l 393 414 l 635 414 l 635 484 m 635 121 l 79 121 l 79 50 l 635 50 l 635 121 z "},"∏":{"ha":736,"x_min":37,"x_max":700,"o":"m 700 861 l 37 861 l 37 783 l 121 783 l 121 0 l 210 0 l 210 783 l 526 783 l 526 0 l 616 0 l 616 783 l 700 783 l 700 861 z "},"q":{"ha":587,"x_min":65,"x_max":509,"o":"m 214 669 q 79 610 104 670 q 65 534 65 581 l 65 123 q 133 1 65 24 q 209 -8 163 -8 l 316 -8 q 420 45 399 -7 l 420 -258 l 509 -258 l 509 665 l 214 669 m 420 75 q 410 64 418 65 l 164 64 q 153 75 155 66 l 153 586 q 164 597 156 595 l 420 594 l 420 75 z "},"?":{"ha":495,"x_min":46,"x_max":419,"o":"m 221 205 l 222 297 q 240 355 222 335 q 245 361 244 358 l 332 450 q 400 528 395 518 q 419 589 419 556 l 419 719 q 323 857 419 836 q 262 863 296 863 l 46 863 l 46 785 l 316 785 q 328 773 327 783 l 328 571 q 317 547 327 556 l 203 430 q 142 358 151 374 q 133 304 133 336 l 133 205 l 221 205 m 222 0 l 222 111 l 132 111 l 132 0 l 222 0 z "},"¿":{"ha":509,"x_min":90,"x_max":463,"o":"m 288 460 l 286 368 q 269 309 286 330 q 263 304 264 307 l 176 214 q 109 137 114 146 q 90 76 90 109 l 90 -54 q 186 -193 90 -171 q 247 -198 213 -198 l 463 -198 l 463 -121 l 193 -121 q 180 -109 182 -118 l 180 94 q 191 118 182 109 l 305 235 q 366 307 358 290 q 376 361 376 328 l 376 460 l 288 460 m 286 665 l 286 553 l 377 553 l 377 665 l 286 665 z "},"\"":{"ha":336,"x_min":50,"x_max":270,"o":"m 50 669 l 50 920 l 132 920 l 132 812 l 99 669 l 50 669 m 190 669 l 190 920 l 270 920 l 270 812 l 239 669 l 190 669 z "},"„":{"ha":373,"x_min":60,"x_max":308,"o":"m 212 8 l 247 8 q 213 -88 241 -45 l 245 -115 q 279 -69 264 -94 q 300 -20 293 -45 q 307 27 307 4 l 307 130 l 212 130 l 212 8 m 61 8 l 96 8 q 62 -88 91 -45 l 95 -115 q 113 -93 104 -104 q 129 -69 122 -81 q 141 -45 136 -57 q 150 -20 146 -33 q 155 4 153 -8 q 156 27 156 16 l 156 130 l 61 130 l 61 8 z "},"“":{"ha":377,"x_min":66,"x_max":316,"o":"m 165 807 l 129 807 q 164 907 136 861 l 132 935 q 66 787 68 868 l 66 680 l 165 680 l 165 807 m 315 807 l 278 807 q 313 907 285 861 l 281 935 q 216 787 217 868 l 216 680 l 315 680 l 315 807 z "},"”":{"ha":373,"x_min":57,"x_max":308,"o":"m 209 793 l 245 793 q 210 693 239 739 l 243 666 q 308 814 307 732 l 308 921 l 209 921 l 209 793 m 58 793 l 95 793 q 60 693 88 739 l 92 666 q 157 814 156 732 l 157 921 l 58 921 l 58 793 z "},"‘":{"ha":216,"x_min":66,"x_max":167,"o":"m 165 807 l 129 807 q 164 907 136 861 l 132 935 q 66 787 68 868 l 66 680 l 165 680 l 165 807 z "},"’":{"ha":209,"x_min":49,"x_max":149,"o":"m 50 793 l 87 793 q 52 693 80 739 l 84 666 q 149 814 148 732 l 149 921 l 50 921 l 50 793 z "},"‚":{"ha":227,"x_min":61,"x_max":161,"o":"m 61 3 l 99 3 q 62 -99 92 -53 l 96 -126 q 161 23 161 -58 l 161 132 l 61 132 l 61 3 z "},"'":{"ha":202,"x_min":50,"x_max":137,"o":"m 50 667 l 50 920 l 137 920 l 137 812 l 100 667 l 50 667 z "},"r":{"ha":355,"x_min":77,"x_max":354,"o":"m 271 673 q 161 620 186 671 l 153 665 l 77 665 l 79 0 l 165 0 l 165 587 q 176 598 168 598 l 354 598 l 354 673 l 271 673 z "},"ŕ":{"ha":355,"x_min":77,"x_max":354,"o":"m 271 673 q 161 620 186 671 l 153 665 l 77 665 l 79 0 l 165 0 l 165 587 q 176 598 168 598 l 354 598 l 354 673 l 271 673 m 123 750 l 206 932 l 305 930 l 191 750 l 123 750 z "},"√":{"ha":768,"x_min":31,"x_max":730,"o":"m 429 -52 l 730 924 l 652 924 l 388 72 l 184 665 l 31 665 l 31 586 l 121 586 l 343 -52 l 429 -52 z "},"ř":{"ha":357,"x_min":54,"x_max":397,"o":"m 271 673 q 161 620 186 671 l 153 665 l 77 665 l 79 0 l 165 0 l 165 587 q 176 598 168 598 l 354 598 l 354 673 l 271 673 m 174 757 l 273 757 l 397 932 l 316 932 l 224 800 l 140 932 l 54 932 l 174 757 z "},"®":{"ha":708,"x_min":96,"x_max":621,"o":"m 547 818 q 557 807 556 815 l 557 302 q 547 292 556 293 l 171 292 q 160 302 161 294 l 160 807 q 171 818 163 817 l 547 818 m 96 363 q 159 250 96 271 q 233 240 189 240 l 484 240 q 610 296 586 240 q 621 363 621 323 l 621 746 q 559 860 621 838 q 484 869 529 869 l 233 869 q 107 814 132 869 q 96 746 96 787 l 96 363 m 290 330 l 289 503 l 374 503 q 395 490 391 502 l 448 330 l 519 330 l 484 437 q 446 510 465 495 q 513 624 511 534 l 513 655 q 388 772 513 774 q 385 772 387 772 l 217 768 l 217 330 l 290 330 m 422 715 q 437 700 435 712 l 437 575 q 422 560 434 562 l 289 560 l 289 715 l 422 715 z "},"˚":{"ha":427,"x_min":98,"x_max":334,"o":"m 334 846 q 279 951 334 932 q 213 960 254 960 q 107 910 126 960 q 98 846 98 886 q 149 741 98 761 q 213 731 175 731 q 327 793 308 731 q 334 846 334 815 m 152 846 q 170 909 152 898 q 213 916 183 916 q 274 892 264 916 q 279 846 279 878 q 258 783 279 795 q 213 776 241 776 q 156 804 164 776 q 152 846 152 818 z "},"s":{"ha":502,"x_min":46,"x_max":469,"o":"m 326 -5 q 457 53 431 -5 q 469 126 469 81 l 469 239 q 404 362 469 338 q 320 373 373 373 l 146 373 q 134 385 136 376 l 134 589 q 146 600 137 598 l 439 600 l 439 673 l 197 673 q 60 614 88 673 q 46 536 46 583 l 46 438 q 111 315 46 339 q 195 304 142 304 l 370 304 q 381 293 380 301 l 381 77 q 370 65 378 66 l 56 65 l 56 -5 l 326 -5 z "},"ś":{"ha":502,"x_min":46,"x_max":469,"o":"m 326 -5 q 457 53 431 -5 q 469 126 469 81 l 469 239 q 404 362 469 338 q 320 373 373 373 l 146 373 q 134 385 136 376 l 134 589 q 146 600 137 598 l 439 600 l 439 673 l 197 673 q 60 614 88 673 q 46 536 46 583 l 46 438 q 111 315 46 339 q 195 304 142 304 l 370 304 q 381 293 380 301 l 381 77 q 370 65 378 66 l 56 65 l 56 -5 l 326 -5 m 214 750 l 297 932 l 396 930 l 282 750 l 214 750 z "},"š":{"ha":502,"x_min":46,"x_max":469,"o":"m 326 -5 q 457 53 431 -5 q 469 126 469 81 l 469 239 q 404 362 469 338 q 320 373 373 373 l 146 373 q 134 385 136 376 l 134 589 q 146 600 137 598 l 439 600 l 439 673 l 197 673 q 60 614 88 673 q 46 536 46 583 l 46 438 q 111 315 46 339 q 195 304 142 304 l 370 304 q 381 293 380 301 l 381 77 q 370 65 378 66 l 56 65 l 56 -5 l 326 -5 m 218 757 l 317 757 l 442 932 l 361 932 l 269 800 l 184 932 l 99 932 l 218 757 z "},"§":{"ha":600,"x_min":61,"x_max":538,"o":"m 538 28 l 538 323 q 498 429 538 399 q 433 461 477 442 l 171 570 q 153 594 155 578 l 153 766 q 170 783 156 781 l 521 783 l 521 861 l 228 865 q 61 711 62 867 l 61 415 q 102 311 61 340 q 167 278 121 297 l 429 170 q 446 145 445 160 l 446 -27 q 430 -45 444 -43 l 79 -45 l 79 -122 l 372 -127 q 538 28 537 -127 m 176 358 q 153 389 155 368 q 153 407 153 397 l 153 492 l 423 380 q 446 350 444 370 q 446 331 446 343 l 446 245 l 176 358 z "},";":{"ha":289,"x_min":90,"x_max":193,"o":"m 90 3 l 126 3 q 92 -92 119 -50 l 127 -122 q 193 23 193 -54 l 193 132 l 90 132 l 90 3 m 193 363 l 193 495 l 90 495 l 90 363 l 193 363 z "},"අ":{"ha":735,"x_min":30,"x_max":675,"o":"m 423 582 q 483 671 423 655 q 507 674 494 674 l 675 674 l 675 620 l 627 620 q 609 606 610 617 q 636 563 609 601 q 671 467 671 511 l 671 334 q 604 262 669 263 l 496 262 l 496 64 l 669 64 l 669 0 l 496 0 l 496 -190 l 423 -190 l 423 0 l 95 0 q 33 39 41 0 q 30 69 30 52 l 30 403 q 104 479 33 477 l 288 479 l 288 562 q 248 612 288 608 q 232 613 240 613 l 30 613 l 30 674 l 254 674 q 351 585 350 671 l 351 416 l 141 416 q 104 392 109 416 q 103 373 103 382 l 103 99 q 132 64 113 66 l 423 64 l 423 582 m 496 323 l 575 323 q 606 345 604 323 q 608 358 608 351 l 608 469 q 572 555 608 499 q 551 604 551 587 q 553 614 552 612 q 499 589 507 613 q 496 566 496 578 l 496 323 z "},"ආ":{"ha":1061,"x_min":30,"x_max":1010,"o":"m 423 582 q 483 671 423 655 q 507 674 494 674 l 675 674 l 675 620 l 627 620 q 609 606 610 617 q 636 563 609 601 q 671 467 671 511 l 671 334 q 604 262 669 263 l 496 262 l 496 64 l 669 64 l 669 0 l 496 0 l 496 -190 l 423 -190 l 423 0 l 95 0 q 33 39 41 0 q 30 69 30 52 l 30 403 q 104 479 33 477 l 288 479 l 288 562 q 248 612 288 608 q 232 613 240 613 l 30 613 l 30 674 l 254 674 q 351 585 350 671 l 351 416 l 141 416 q 104 392 109 416 q 103 373 103 382 l 103 99 q 132 64 113 66 l 423 64 l 423 582 m 496 323 l 575 323 q 606 345 604 323 q 608 358 608 351 l 608 469 q 572 555 608 499 q 551 604 551 587 q 553 614 552 612 q 499 589 507 613 q 496 566 496 578 l 496 323 m 776 674 l 955 674 q 1010 617 1009 671 l 1010 52 q 955 0 1008 1 l 776 0 l 776 64 l 914 64 q 936 90 936 66 l 936 590 q 914 613 933 612 l 776 613 l 776 674 z "},"ඈ":{"ha":1085,"x_min":30,"x_max":1029,"o":"m 423 582 q 483 671 423 655 q 507 674 494 674 l 675 674 l 675 620 l 627 620 q 609 606 610 617 q 636 563 609 601 q 671 467 671 511 l 671 334 q 604 262 669 263 l 496 262 l 496 64 l 669 64 l 669 0 l 496 0 l 496 -190 l 423 -190 l 423 0 l 95 0 q 33 39 41 0 q 30 69 30 52 l 30 403 q 104 479 33 477 l 288 479 l 288 562 q 248 612 288 608 q 232 613 240 613 l 30 613 l 30 674 l 254 674 q 351 585 350 671 l 351 416 l 141 416 q 104 392 109 416 q 103 373 103 382 l 103 99 q 132 64 113 66 l 423 64 l 423 582 m 496 323 l 575 323 q 606 345 604 323 q 608 358 608 351 l 608 469 q 572 555 608 499 q 551 604 551 587 q 553 614 552 612 q 499 589 507 613 q 496 566 496 578 l 496 323 m 779 674 l 1029 674 l 1029 614 l 872 488 l 1029 488 l 1029 431 l 884 301 q 852 247 854 275 q 852 227 852 237 l 852 90 q 859 65 852 68 q 875 64 865 64 l 1029 64 l 1029 0 l 819 0 q 779 49 779 0 l 779 232 q 806 316 779 289 q 814 324 810 321 l 935 429 l 779 429 l 779 484 l 933 612 l 779 612 l 779 674 z "},"ඇ":{"ha":1092,"x_min":30,"x_max":1038,"o":"m 788 674 l 1038 674 l 1038 609 l 880 355 q 863 281 863 326 l 863 90 q 890 64 865 65 l 1038 64 l 1038 0 l 836 0 q 788 49 792 8 l 788 277 q 811 380 789 343 l 958 612 l 788 612 l 788 674 m 423 582 q 483 671 423 655 q 507 674 494 674 l 675 674 l 675 620 l 627 620 q 609 606 610 617 q 636 563 609 601 q 671 467 671 511 l 671 334 q 604 262 669 263 l 496 262 l 496 64 l 669 64 l 669 0 l 496 0 l 496 -190 l 423 -190 l 423 0 l 95 0 q 33 39 41 0 q 30 69 30 52 l 30 403 q 104 479 33 477 l 288 479 l 288 562 q 248 612 288 608 q 232 613 240 613 l 30 613 l 30 674 l 254 674 q 351 585 350 671 l 351 416 l 141 416 q 104 392 109 416 q 103 373 103 382 l 103 99 q 132 64 113 66 l 423 64 l 423 582 m 496 323 l 575 323 q 606 345 604 323 q 608 358 608 351 l 608 469 q 572 555 608 499 q 551 604 551 587 q 553 614 552 612 q 499 589 507 613 q 496 566 496 578 l 496 323 z "},"ඓ":{"ha":1237,"x_min":30,"x_max":1187,"o":"m 796 842 l 796 697 q 814 669 796 670 q 830 667 821 667 l 1112 667 l 1112 675 q 1072 734 1112 711 q 1058 741 1067 736 q 880 830 1058 741 q 811 842 856 842 l 796 842 m 1187 670 l 1187 69 q 1138 1 1187 9 q 1124 0 1131 0 l 644 0 q 579 60 581 3 l 579 235 q 618 312 581 289 l 533 312 l 533 372 l 844 372 l 844 454 q 806 494 841 492 l 583 494 l 583 552 l 836 552 q 917 469 916 549 l 917 311 l 757 311 q 654 232 656 307 l 654 96 q 686 64 663 66 l 1084 64 q 1114 99 1112 66 l 1114 614 l 788 614 q 728 651 736 614 q 726 678 726 663 l 726 842 l 636 842 l 636 901 l 803 901 q 910 879 863 901 q 918 875 914 878 l 1092 788 q 1180 713 1164 757 q 1187 670 1187 693 m 446 674 l 102 674 q 31 620 41 674 q 30 604 30 612 l 30 62 q 92 0 33 1 l 384 0 q 453 66 450 4 l 453 372 q 381 439 450 438 l 232 439 l 232 377 l 342 377 q 378 351 374 377 q 380 338 380 345 l 380 95 q 347 64 377 65 l 130 64 q 103 95 104 66 l 103 574 q 144 612 113 609 l 446 612 l 446 674 z "},"ඖ":{"ha":1176,"x_min":30,"x_max":1130,"o":"m 732 674 l 732 395 q 777 350 735 351 l 890 350 q 949 397 948 353 l 949 582 q 974 612 954 610 l 1034 612 q 1058 585 1057 609 l 1058 98 q 1029 65 1055 66 l 840 65 q 810 96 812 73 l 810 208 l 732 208 l 732 65 q 787 1 738 5 l 1065 1 q 1128 47 1118 1 q 1130 64 1130 56 l 1130 618 q 1093 671 1130 658 q 1073 674 1084 674 l 935 674 q 888 616 890 671 l 888 441 q 861 414 880 415 l 815 414 q 792 427 793 414 q 791 439 791 433 l 791 674 l 732 674 m 385 340 l 267 340 q 220 381 221 343 l 220 543 q 203 559 220 559 l 138 559 q 103 517 104 556 l 103 102 q 125 65 103 69 q 138 64 130 64 l 247 64 q 296 106 292 64 q 297 121 297 113 l 297 245 l 363 245 l 363 121 q 415 64 372 66 l 522 64 q 556 102 555 69 l 556 728 q 517 781 556 777 q 500 783 509 783 l 30 783 l 30 849 l 532 849 q 631 760 629 846 l 631 68 q 567 0 628 1 l 397 0 q 331 41 342 1 q 267 0 316 4 l 94 0 q 30 65 31 3 l 30 534 q 110 623 33 621 l 221 623 q 277 575 275 620 l 277 423 q 294 401 279 403 l 361 401 q 380 423 378 404 l 380 623 l 438 623 l 438 388 q 385 340 435 342 z "},"බ":{"ha":699,"x_min":30,"x_max":631,"o":"m 529 848 l 30 848 l 30 784 l 498 784 q 555 751 547 784 q 557 722 557 739 l 557 96 q 530 64 555 65 l 389 64 q 357 102 359 76 l 357 564 q 282 637 354 636 l 106 637 q 30 563 31 635 l 30 73 q 75 1 30 11 q 98 0 85 0 l 233 0 l 233 64 l 133 64 q 103 100 106 75 l 103 537 q 136 574 109 571 l 254 574 q 286 537 285 571 l 288 73 q 358 0 298 4 l 563 0 q 629 47 621 0 q 631 73 631 60 l 631 742 q 557 846 631 834 q 529 848 544 848 z "},"භ":{"ha":803,"x_min":-8,"x_max":741,"o":"m 30 69 q 65 3 30 14 q 95 0 79 0 l 380 0 q 465 41 452 0 q 471 81 471 58 l 471 338 q 420 391 469 389 l 378 391 l 415 570 q 468 610 426 609 l 625 610 q 667 570 665 602 l 667 113 q 644 65 667 72 q 625 64 635 64 l 522 64 l 522 0 l 655 0 q 734 37 720 0 q 741 87 741 56 l 741 589 q 678 673 741 662 q 650 674 665 674 l 444 674 q 349 605 363 673 l 296 336 l 374 336 q 397 307 396 334 l 397 104 q 372 65 397 69 q 357 64 365 64 l 129 64 q 103 98 103 66 l 103 358 q 157 419 106 418 l 262 419 l 262 585 q 191 671 262 658 q 164 674 178 674 l 30 674 l 30 612 l 145 612 q 197 566 195 609 l 197 481 l -8 481 l -8 420 l 61 420 q 30 365 31 404 l 30 69 z "},"ච":{"ha":731,"x_min":-8,"x_max":686,"o":"m 585 848 l 85 848 l 85 784 l 553 784 q 609 751 601 784 q 612 722 612 739 l 612 102 q 582 64 609 65 l 190 64 q 159 99 160 66 l 159 288 q 237 362 161 361 l 388 362 l 388 566 q 316 637 385 636 l 85 637 l 85 575 l 283 575 q 315 549 313 572 l 315 422 l -8 422 l -8 362 l 114 362 q 85 293 85 339 l 85 73 q 130 1 85 11 q 153 0 141 0 l 618 0 q 685 47 677 0 q 686 73 686 60 l 686 742 q 605 846 686 838 q 585 848 594 848 z "},"ඡ":{"ha":696,"x_min":30,"x_max":693,"o":"m 349 567 q 377 609 350 598 q 391 612 385 612 l 525 612 q 559 571 557 609 l 559 444 q 506 376 556 377 l 374 376 q 350 407 350 378 l 349 567 m 98 0 l 564 0 q 631 47 623 0 q 632 73 632 60 l 632 245 q 600 342 632 315 q 590 349 594 346 q 632 450 632 378 l 632 591 q 557 674 629 673 l 467 674 q 506 704 487 685 l 693 872 l 605 872 l 422 715 q 353 670 389 688 q 320 650 334 665 q 251 674 297 674 l 31 674 l 31 612 l 232 612 q 274 576 273 609 l 274 481 l 106 481 q 30 407 31 479 l 30 73 q 75 1 30 11 q 98 0 85 0 m 134 64 q 104 90 107 64 q 103 104 103 96 l 103 385 q 138 419 106 418 l 288 419 l 288 376 q 346 315 290 316 l 502 315 q 557 256 556 312 l 557 102 q 528 64 552 66 l 134 64 z "},"ද":{"ha":624,"x_min":30,"x_max":590,"o":"m 559 0 l 302 0 q 227 -45 241 0 q 224 -65 224 -54 l 224 -141 q 255 -170 227 -170 l 590 -170 l 590 -232 l 218 -232 q 148 -171 149 -229 l 148 -68 q 187 0 149 -20 l 90 0 q 30 53 35 0 q 30 68 30 61 l 30 401 q 109 479 33 477 l 480 479 l 480 575 q 446 612 477 610 l 30 612 l 30 674 l 481 674 q 553 602 552 671 l 553 416 l 144 416 q 103 377 104 414 l 103 99 q 134 64 106 65 l 559 64 l 559 0 z "},"ඩ":{"ha":696,"x_min":-8,"x_max":631,"o":"m -8 472 l -8 411 l 65 411 q 30 340 31 391 l 30 73 q 68 3 30 12 q 95 0 80 0 l 267 0 q 328 33 315 0 q 331 41 330 38 q 397 0 343 1 l 567 0 q 631 68 629 3 l 631 760 q 532 849 628 848 l 30 849 l 30 783 l 500 783 q 555 745 549 783 q 556 728 556 736 l 556 102 q 522 64 551 66 l 415 64 q 363 121 368 76 l 363 241 l 297 241 l 297 121 q 247 64 286 68 l 130 64 q 103 96 104 66 l 103 330 q 183 410 106 408 l 335 410 l 335 590 q 248 667 332 666 l 31 667 l 31 604 l 220 604 q 264 567 263 601 l 264 472 l -8 472 z "},"ඪ":{"ha":696,"x_min":-8,"x_max":631,"o":"m 363 791 l 513 791 q 555 762 551 791 q 556 747 556 755 l 556 633 l 393 633 q 365 646 369 633 q 363 663 363 652 l 363 791 m -8 377 l -8 320 l 65 320 q 30 250 31 300 l 30 73 q 68 3 30 12 q 95 0 80 0 l 267 0 q 328 33 315 0 q 331 41 330 38 q 397 0 343 1 l 567 0 q 631 68 629 3 l 631 758 q 587 844 631 830 q 541 849 568 849 l 209 849 l 209 792 l 293 792 l 293 643 q 331 582 293 590 q 355 579 342 579 l 556 579 l 556 102 q 522 64 551 66 l 415 64 q 363 121 368 76 l 363 203 l 297 203 l 297 121 q 247 64 286 68 l 130 64 q 103 96 104 66 l 103 239 q 183 319 106 317 l 335 319 l 335 492 q 248 568 332 567 l 31 568 l 31 509 l 227 509 q 270 472 269 506 l 271 377 l -8 377 z "},"ධ":{"ha":699,"x_min":30,"x_max":632,"o":"m 339 602 l 144 602 q 103 562 104 600 l 103 98 q 134 64 106 65 l 240 64 q 296 145 296 66 l 296 332 l 363 332 l 363 146 q 425 64 366 65 l 529 64 q 557 100 556 66 l 557 731 q 521 783 557 777 q 502 784 513 784 l 30 784 l 30 849 l 533 849 q 632 760 631 846 l 632 68 q 568 0 629 1 l 396 0 q 330 50 345 3 q 288 3 324 16 q 266 0 275 0 l 94 0 q 30 65 31 3 l 30 579 q 110 667 38 663 l 339 667 l 339 602 z "},"එ":{"ha":724,"x_min":5,"x_max":659,"o":"m 269 842 l 269 697 q 286 669 269 670 q 302 667 293 667 l 585 667 l 585 675 q 544 734 585 711 q 530 741 540 736 q 353 830 530 741 q 283 842 328 842 l 269 842 m 659 670 l 659 69 q 610 1 659 9 q 597 0 604 0 l 117 0 q 52 60 53 3 l 52 235 q 91 312 53 289 l 5 312 l 5 372 l 316 372 l 316 454 q 278 494 313 492 l 56 494 l 56 552 l 308 552 q 389 469 388 549 l 389 311 l 229 311 q 126 232 129 307 l 126 96 q 159 64 136 66 l 556 64 q 586 99 585 66 l 586 614 l 260 614 q 201 651 209 614 q 198 678 198 663 l 198 842 l 109 842 l 109 901 l 275 901 q 382 879 335 901 q 391 875 387 876 l 564 788 q 652 713 636 757 q 659 670 659 693 z "},"ඒ":{"ha":724,"x_min":5,"x_max":659,"o":"m 269 842 l 283 842 q 353 830 330 842 q 530 741 530 741 q 581 700 572 719 q 585 675 585 688 l 585 667 l 302 667 q 270 681 274 667 q 269 697 269 688 l 269 842 m 589 960 l 589 777 q 576 783 585 779 q 564 788 568 787 l 391 875 q 275 901 332 901 l 109 901 l 109 842 l 198 842 l 198 678 q 236 617 198 625 q 260 614 247 614 l 586 614 l 586 99 q 556 64 583 65 l 159 64 q 126 96 129 72 l 126 232 q 214 311 126 305 q 229 311 222 311 l 389 311 l 389 469 q 308 552 387 551 l 56 552 l 56 494 l 278 494 q 316 454 315 491 l 316 372 l 5 372 l 5 312 l 91 312 q 52 235 53 288 l 52 60 q 117 0 54 1 l 597 0 q 658 53 650 0 q 659 69 659 61 l 659 960 l 589 960 z "},"ෆ":{"ha":765,"x_min":30,"x_max":700,"o":"m 415 64 l 590 64 q 625 107 624 66 l 625 572 q 593 612 623 610 l 448 612 q 400 547 401 610 l 400 227 l 330 227 l 330 547 q 296 610 330 600 q 283 612 289 612 l 138 612 q 103 572 104 609 l 103 106 q 137 64 106 65 l 311 64 l 311 0 l 99 0 q 30 84 34 9 l 30 598 q 72 669 30 650 q 103 674 87 674 l 290 674 q 365 633 351 674 q 366 628 366 629 q 444 674 381 673 l 627 674 q 697 627 684 674 q 700 604 700 614 l 700 83 q 648 3 700 18 q 627 0 637 0 l 415 0 l 415 64 z "},"ග":{"ha":800,"x_min":30,"x_max":736,"o":"m 255 674 l 255 612 l 142 612 q 104 590 109 612 q 103 574 103 582 l 103 99 q 133 64 109 65 l 326 64 q 369 83 363 64 q 372 106 372 92 l 372 305 q 347 334 369 332 l 293 334 l 340 605 q 438 674 353 674 l 646 674 q 734 616 723 674 q 736 589 736 604 l 736 85 q 682 3 736 14 q 651 0 669 0 l 528 0 l 528 64 l 618 64 q 659 85 654 64 q 662 114 662 96 l 662 563 q 629 609 662 605 q 616 610 623 610 l 457 610 q 406 574 412 609 l 372 388 l 397 388 q 445 332 444 385 l 445 81 q 397 4 445 16 q 354 0 380 0 l 96 0 q 31 60 37 0 q 30 77 30 68 l 30 598 q 106 674 33 673 l 255 674 z "},"ඝ":{"ha":779,"x_min":-8,"x_max":699,"o":"m 445 0 l 631 0 q 697 47 689 0 q 699 73 699 60 l 699 404 q 620 480 696 479 l 460 480 l 460 575 q 505 612 463 610 l 697 612 l 697 674 l 481 674 q 395 598 396 671 l 395 416 l 593 416 q 624 389 623 414 l 624 96 q 598 64 621 65 l 469 64 q 434 90 437 64 q 433 104 433 96 l 433 127 q 453 161 433 145 q 457 164 456 163 q 491 197 487 190 q 494 213 494 203 l 494 273 q 458 311 487 305 l 267 311 q 232 273 236 304 l 232 213 q 254 176 232 194 q 269 164 267 165 q 293 127 292 140 l 293 104 q 273 65 293 71 q 256 64 264 64 l 130 64 q 103 96 104 66 l 103 338 q 183 416 106 415 l 335 416 l 335 598 q 248 674 332 673 l 31 674 l 31 612 l 227 612 q 270 575 269 609 l 271 480 l -8 480 l -8 419 l 65 419 q 30 347 31 396 l 30 73 q 75 1 30 11 q 98 0 85 0 l 281 0 q 345 38 327 0 q 350 65 350 52 l 350 140 q 319 186 349 163 q 292 229 293 218 l 292 251 q 307 264 294 263 l 419 264 q 434 251 433 262 l 434 229 q 419 197 434 210 q 406 186 414 193 q 376 140 377 160 l 376 65 q 423 3 376 16 q 445 0 435 0 z "},"හ":{"ha":800,"x_min":30,"x_max":736,"o":"m 103 99 q 133 64 109 65 l 334 64 q 376 85 370 64 q 378 106 378 94 l 378 305 q 354 334 376 332 l 300 334 l 347 605 q 445 674 359 674 l 646 674 q 734 616 723 674 q 736 589 736 604 l 736 87 q 688 4 736 16 q 651 0 671 0 l 528 0 l 528 64 l 623 64 q 661 91 655 64 q 662 111 662 100 l 662 563 q 629 609 662 605 q 616 610 623 610 l 464 610 q 412 574 419 609 l 378 388 l 406 388 q 452 332 450 385 l 452 81 q 404 4 452 16 q 361 0 387 0 l 95 0 q 31 53 37 0 q 30 69 30 61 l 30 404 q 104 479 33 477 l 190 479 l 190 562 q 159 610 190 605 q 141 612 151 612 l 30 612 l 30 674 l 164 674 q 255 585 254 671 l 255 416 l 142 416 q 104 397 110 416 q 103 378 103 389 l 103 99 z "},"්":{"ha":3,"x_min":-132,"x_max":-58,"o":"m -132 667 l -132 880 l -58 880 l -58 591 q -64 604 -60 594 q -81 640 -76 632 q -119 667 -99 665 l -132 667 z "},"ඉ":{"ha":704,"x_min":30,"x_max":636,"o":"m 362 469 l 362 279 q 290 212 359 213 l 106 212 q 30 285 31 214 l 30 600 q 94 673 30 663 q 113 674 103 674 l 553 674 q 636 600 635 671 l 636 114 q 589 33 635 46 q 613 -33 613 16 l 613 -134 q 556 -214 613 -206 q 537 -216 547 -216 l 62 -216 l 62 -152 l 502 -152 q 538 -133 534 -152 q 540 -121 540 -127 l 540 -37 q 496 0 537 -1 l 64 0 l 64 64 l 487 64 q 559 92 548 64 q 563 119 563 104 l 563 575 q 522 612 560 610 l 148 612 q 103 576 104 609 l 103 312 q 123 275 103 281 q 144 274 133 274 l 263 274 q 292 311 290 281 l 292 469 l 362 469 z "},"ඊ":{"ha":612,"x_min":30,"x_max":541,"o":"m 30 65 q 92 0 39 4 l 467 0 q 540 61 534 0 q 541 83 541 71 l 541 594 q 458 674 538 673 l 184 674 l 442 899 l 347 899 l 85 675 q 30 583 33 625 l 30 65 m 103 552 q 153 612 106 610 l 422 612 q 468 581 463 612 q 469 562 469 572 l 469 106 q 452 65 469 69 q 434 64 445 64 l 149 64 q 106 80 113 64 q 103 113 103 90 l 103 552 m 84 899 l 168 899 l 168 815 l 84 815 l 84 899 m 430 810 l 514 810 l 514 726 l 430 726 l 430 810 z "},"ජ":{"ha":694,"x_min":30,"x_max":697,"o":"m 526 64 l 136 64 q 103 102 104 66 l 103 378 q 142 416 106 415 l 301 416 l 301 598 q 214 674 298 673 l 31 674 l 31 612 l 191 612 q 235 571 233 609 l 235 480 l 106 480 q 30 404 31 477 l 30 73 q 83 1 30 8 q 100 0 91 0 l 562 0 q 631 54 624 0 q 632 73 632 64 l 632 404 q 556 480 629 479 l 426 480 l 426 571 q 469 612 431 610 l 631 612 l 631 674 l 507 674 q 544 708 522 684 l 697 872 l 606 872 l 456 713 q 393 663 426 682 l 395 663 q 359 598 361 643 l 359 416 l 518 416 q 557 378 555 411 l 557 102 q 526 64 552 66 z "},"ඣ":{"ha":1241,"x_min":16,"x_max":1187,"o":"m 16 298 l 61 298 q 30 208 30 278 l 30 64 q 75 1 30 12 q 91 0 83 0 l 213 0 q 266 39 255 1 q 316 0 278 1 l 434 0 q 499 46 484 0 q 503 72 503 58 l 503 423 q 438 492 496 488 l 286 492 l 372 557 q 454 597 422 597 q 502 593 476 597 l 597 583 q 585 528 585 560 l 585 65 q 648 0 587 1 l 821 0 q 880 37 864 0 q 884 50 883 43 q 951 0 901 1 l 1123 0 q 1187 68 1185 3 l 1187 760 q 1088 849 1184 848 l 585 849 l 585 784 l 1057 784 q 1109 755 1101 784 q 1112 731 1112 745 l 1112 100 q 1085 64 1109 65 l 979 64 q 918 146 920 66 l 918 332 l 852 332 l 852 145 q 795 64 849 65 l 689 64 q 659 98 661 69 l 659 513 q 699 555 662 553 l 894 555 l 894 618 l 883 618 l 892 620 l 526 656 q 449 663 463 663 q 342 618 403 662 l 270 563 l 270 604 q 210 674 262 669 l 47 674 l 47 612 l 168 612 q 206 570 205 606 l 206 509 q 16 350 16 350 l 16 298 m 434 400 l 434 104 q 401 64 431 65 l 342 64 q 297 109 301 64 q 296 136 296 119 l 296 255 l 237 255 l 237 136 q 212 68 237 79 q 187 64 201 64 l 126 64 q 100 95 102 69 l 100 208 q 123 293 100 270 q 145 308 133 301 l 145 342 l 109 342 l 216 433 l 403 433 q 434 400 433 430 z "},"ඥ":{"ha":1366,"x_min":30,"x_max":1336,"o":"m 1305 0 l 1305 64 l 880 64 q 849 99 850 66 l 849 377 q 890 416 852 415 l 1299 416 l 1299 602 q 1227 674 1297 673 l 655 674 q 557 605 570 674 l 510 334 l 564 334 q 589 305 587 331 l 589 106 q 566 65 589 71 q 543 64 556 64 l 350 64 q 320 99 323 72 l 320 537 q 384 612 327 608 l 472 612 l 472 674 l 144 674 q 33 601 52 674 q 30 570 30 585 l 30 0 l 102 0 l 102 548 q 146 612 102 604 q 170 613 157 613 l 255 613 q 247 568 247 594 l 247 75 q 290 1 247 11 q 312 0 301 0 l 571 0 q 656 41 643 0 q 662 81 662 58 l 662 332 q 614 388 659 387 l 589 388 l 623 574 q 675 612 633 610 l 1192 612 q 1226 575 1225 609 l 1226 479 l 854 479 q 776 401 777 476 l 776 68 q 823 1 776 7 q 836 0 829 0 l 933 0 q 894 -68 894 -22 l 894 -171 q 964 -232 897 -231 l 1336 -232 l 1336 -170 l 1001 -170 q 970 -141 971 -167 l 970 -65 q 1025 -3 970 -14 q 1048 0 1038 0 l 1305 0 z "},"ක":{"ha":803,"x_min":16,"x_max":736,"o":"m 434 400 q 403 433 431 431 l 216 433 l 109 342 l 145 342 l 145 308 q 102 245 107 286 q 100 208 100 229 l 100 95 q 126 64 103 65 l 187 64 q 236 111 232 64 q 237 136 237 121 l 237 255 l 296 255 l 296 136 q 316 69 296 80 q 342 64 327 64 l 401 64 q 434 104 434 66 l 434 400 m 270 563 l 362 642 q 450 674 404 674 l 659 674 q 734 621 720 674 q 736 600 736 610 l 736 72 q 682 1 736 12 q 665 0 673 0 l 528 0 l 528 64 l 631 64 q 662 102 661 66 l 662 571 q 621 612 659 610 l 471 612 q 393 582 429 610 l 286 492 l 438 492 q 503 423 499 484 l 503 72 q 454 3 503 16 q 434 0 444 0 l 316 0 q 266 39 277 3 q 213 0 254 1 l 91 0 q 31 47 41 0 q 30 64 30 57 l 30 208 q 61 298 31 281 l 16 298 l 16 350 q 206 509 16 350 l 206 570 q 168 612 203 610 l 47 612 l 47 674 l 210 674 q 270 604 264 662 l 270 563 z "},"ඛ":{"ha":701,"x_min":30,"x_max":631,"o":"m 30 581 l 30 65 q 88 0 33 1 l 187 0 l 189 64 l 130 64 q 103 95 104 66 l 103 557 q 141 602 106 601 l 292 602 q 326 563 324 600 l 326 313 l 233 -7 l 298 -7 l 332 95 q 373 39 351 58 q 444 0 408 1 l 568 0 q 629 56 623 0 q 631 69 631 62 l 631 768 q 566 846 631 831 q 536 849 551 849 l 30 849 l 30 783 l 496 783 q 557 734 555 779 l 557 106 q 530 68 555 69 q 511 68 529 68 q 472 71 492 69 l 453 72 q 362 157 411 72 q 354 174 357 167 l 396 302 l 396 593 q 334 666 396 659 q 320 667 327 667 l 110 667 q 31 602 43 667 q 30 581 30 591 z "},"ල":{"ha":755,"x_min":30,"x_max":689,"o":"m 317 65 l 317 363 l 218 363 l 218 423 l 492 423 l 492 365 l 392 365 l 392 94 q 423 64 395 65 l 586 64 q 616 106 614 66 l 616 556 q 572 612 613 610 l 142 612 q 103 564 104 609 l 103 -91 q 134 -152 103 -144 q 160 -155 145 -155 l 689 -155 l 689 -221 l 125 -221 q 30 -123 31 -218 l 30 589 q 76 669 30 648 q 103 674 90 674 l 606 674 q 680 623 658 674 q 689 581 689 602 l 689 83 q 618 0 686 1 l 384 0 q 319 47 330 0 q 317 65 317 56 z "},"ළ":{"ha":750,"x_min":30,"x_max":686,"o":"m 103 343 q 145 400 104 392 l 145 134 q 224 71 153 75 l 684 71 l 684 138 l 237 138 q 197 176 198 141 l 197 401 l 686 401 l 686 604 q 608 674 685 673 l 454 674 q 406 646 422 673 q 359 674 392 673 l 198 674 q 125 598 130 665 l 125 460 q 38 404 62 458 q 30 362 30 384 l 30 -100 q 136 -206 33 -205 l 686 -206 l 686 -140 l 167 -140 q 103 -75 109 -126 l 103 343 m 612 461 l 438 461 l 438 578 q 469 614 441 613 l 581 614 q 612 579 610 612 l 612 461 m 197 461 l 197 578 q 228 614 199 613 l 345 614 q 372 578 370 612 l 372 461 l 197 461 z "},"ම":{"ha":699,"x_min":30,"x_max":631,"o":"m 529 848 l 30 848 l 30 784 l 498 784 q 555 751 547 784 q 557 722 557 739 l 557 106 q 522 64 555 65 l 134 64 q 103 103 104 66 l 103 225 l 340 225 q 410 286 404 225 q 411 304 411 294 l 411 568 q 331 637 408 636 l 113 637 q 33 579 45 637 q 30 559 30 570 l 30 77 q 102 0 33 1 l 555 0 q 631 80 629 3 l 631 742 q 557 846 631 834 q 529 848 544 848 m 103 537 q 140 574 106 572 l 305 574 q 339 541 338 571 l 339 323 q 313 289 336 290 l 103 289 l 103 537 z "},"ා":{"ha":315,"x_min":28,"x_max":263,"o":"m 28 674 l 208 674 q 263 617 262 671 l 263 52 q 208 0 260 1 l 28 0 l 28 64 l 167 64 q 189 90 189 66 l 189 590 q 167 613 186 612 l 28 613 l 28 674 z "},"ෑ":{"ha":336,"x_min":30,"x_max":281,"o":"m 30 674 l 281 674 l 281 614 l 123 488 l 281 488 l 281 431 l 136 301 q 103 245 106 274 q 103 227 103 236 l 103 90 q 113 65 103 66 q 126 64 118 64 l 281 64 l 281 0 l 71 0 q 30 49 30 0 l 30 232 q 65 324 33 293 l 186 429 l 30 429 l 30 484 l 184 612 l 30 612 l 30 674 z "},"ැ":{"ha":339,"x_min":30,"x_max":279,"o":"m 30 674 l 279 674 l 279 609 l 122 355 q 103 281 103 324 l 103 90 q 130 64 106 65 l 279 64 l 279 0 l 77 0 q 30 49 31 3 l 30 277 q 53 380 31 343 l 199 612 l 30 612 l 30 674 z "},"ෛ":{"ha":1020,"x_min":30,"x_max":968,"o":"m 446 674 l 102 674 q 31 620 41 674 q 30 604 30 612 l 30 62 q 92 0 33 1 l 384 0 q 453 66 450 4 l 453 372 q 381 439 450 438 l 232 439 l 232 377 l 342 377 q 378 351 374 377 q 380 338 380 345 l 380 95 q 347 64 377 65 l 130 64 q 103 95 104 66 l 103 574 q 144 612 113 609 l 446 612 l 446 674 m 962 674 l 617 674 q 547 620 556 674 q 545 604 545 612 l 545 62 q 608 0 548 1 l 899 0 q 968 66 966 4 l 968 372 q 897 439 966 438 l 747 439 l 747 377 l 857 377 q 894 351 890 377 q 895 338 895 346 l 895 95 q 863 64 892 65 l 646 64 q 618 95 620 66 l 618 574 q 659 612 628 609 l 962 612 l 962 674 z "},"ෞ":{"ha":1927,"x_min":30,"x_max":1771,"o":"m 446 674 l 102 674 q 31 620 41 674 q 30 604 30 612 l 30 62 q 92 0 33 1 l 384 0 q 453 66 450 4 l 453 372 q 381 439 450 438 l 232 439 l 232 377 l 342 377 q 378 351 374 377 q 380 338 380 345 l 380 95 q 347 64 377 65 l 130 64 q 103 95 104 66 l 103 574 q 144 612 113 609 l 446 612 l 446 674 m 1374 674 l 1374 395 q 1419 350 1377 351 l 1533 350 q 1592 397 1591 353 l 1592 582 q 1615 612 1596 610 l 1676 612 q 1699 583 1698 609 l 1699 96 q 1672 64 1697 65 l 1481 64 q 1451 95 1454 72 l 1451 206 l 1374 206 l 1374 64 q 1428 0 1379 4 l 1706 0 q 1770 49 1762 0 q 1771 62 1771 56 l 1771 618 q 1735 671 1771 658 q 1714 674 1725 674 l 1576 674 q 1530 616 1531 671 l 1530 439 q 1503 412 1522 414 l 1457 412 q 1435 427 1436 412 q 1434 439 1434 434 l 1434 674 l 1374 674 z "},"ෙ":{"ha":510,"x_min":30,"x_max":453,"o":"m 446 674 l 102 674 q 31 620 41 674 q 30 604 30 612 l 30 62 q 92 0 33 1 l 384 0 q 453 66 450 4 l 453 372 q 381 439 450 438 l 232 439 l 232 377 l 342 377 q 378 351 374 377 q 380 338 380 345 l 380 95 q 347 64 377 65 l 130 64 q 103 95 104 66 l 103 574 q 144 612 113 609 l 446 612 l 446 674 z "},"ේ":{"ha":1426,"x_min":30,"x_max":1301,"o":"m 446 674 l 102 674 q 31 620 41 674 q 30 604 30 612 l 30 62 q 92 0 33 1 l 384 0 q 453 66 450 4 l 453 372 q 381 439 450 438 l 232 439 l 232 377 l 342 377 q 378 351 374 377 q 380 338 380 345 l 380 95 q 347 64 377 65 l 130 64 q 103 95 104 66 l 103 574 q 144 612 113 609 l 446 612 l 446 674 m 1227 667 l 1227 880 l 1301 880 l 1301 591 q 1295 604 1299 594 q 1278 640 1283 632 q 1240 667 1260 665 l 1227 667 z "},"ි":{"ha":3,"x_min":-769,"x_max":-91,"o":"m -769 693 l -769 808 q -709 868 -766 867 l -146 868 q -91 810 -92 865 l -91 693 l -164 693 l -164 780 q -190 808 -167 807 l -671 808 q -694 781 -693 806 l -694 693 l -769 693 z "},"ී":{"ha":699,"x_min":-762,"x_max":-83,"o":"m -323 818 q -343 802 -343 818 l -343 770 q -326 753 -340 754 l -165 753 q -148 772 -149 758 l -148 798 q -171 818 -151 817 l -323 818 m -665 808 q -689 784 -688 806 l -689 693 l -762 693 l -762 808 q -703 868 -760 867 l -140 868 q -83 814 -84 865 l -83 749 q -123 708 -83 708 l -370 708 q -408 742 -406 715 l -408 798 q -406 808 -408 806 l -665 808 z "},"ෳ":{"ha":486,"x_min":28,"x_max":426,"o":"m 28 674 l 28 395 q 73 350 31 351 l 187 350 q 247 397 245 353 l 247 582 q 270 612 251 610 l 331 612 q 354 583 353 609 l 354 96 q 327 64 351 65 l 136 64 q 106 95 109 72 l 106 206 l 28 206 l 28 64 q 83 0 34 4 l 361 0 q 425 49 416 0 q 426 62 426 56 l 426 618 q 389 671 426 658 q 369 674 380 674 l 231 674 q 184 616 186 671 l 184 439 q 157 412 176 414 l 111 412 q 90 427 91 412 q 88 439 88 434 l 88 674 l 28 674 z "},"ෟ":{"ha":486,"x_min":28,"x_max":426,"o":"m 28 674 l 28 395 q 73 350 31 351 l 187 350 q 247 397 245 353 l 247 582 q 270 612 251 610 l 331 612 q 354 583 353 609 l 354 96 q 327 64 351 65 l 136 64 q 106 95 109 72 l 106 206 l 28 206 l 28 64 q 83 0 34 4 l 361 0 q 425 49 416 0 q 426 62 426 56 l 426 618 q 389 671 426 658 q 369 674 380 674 l 231 674 q 184 616 186 671 l 184 439 q 157 412 176 414 l 111 412 q 90 427 91 412 q 88 439 88 434 l 88 674 l 28 674 z "},"ො":{"ha":1469,"x_min":30,"x_max":1322,"o":"m 446 674 l 102 674 q 31 620 41 674 q 30 604 30 612 l 30 62 q 92 0 33 1 l 384 0 q 453 66 450 4 l 453 372 q 381 439 450 438 l 232 439 l 232 377 l 342 377 q 378 351 374 377 q 380 338 380 345 l 380 95 q 347 64 377 65 l 130 64 q 103 95 104 66 l 103 574 q 144 612 113 609 l 446 612 l 446 674 m 1089 674 l 1267 674 q 1322 617 1321 671 l 1322 52 q 1267 0 1320 1 l 1089 0 l 1089 64 l 1227 64 q 1249 90 1248 66 l 1249 590 q 1226 613 1246 612 l 1089 613 l 1089 674 z "},"ෝ":{"ha":1443,"x_min":30,"x_max":1299,"o":"m 446 674 l 102 674 q 31 620 41 674 q 30 604 30 612 l 30 62 q 92 0 33 1 l 384 0 q 453 66 450 4 l 453 372 q 381 439 450 438 l 232 439 l 232 377 l 342 377 q 378 351 374 377 q 380 338 380 345 l 380 95 q 347 64 377 65 l 130 64 q 103 95 104 66 l 103 574 q 144 612 113 609 l 446 612 l 446 674 m 1065 674 l 1065 613 l 1203 613 q 1225 590 1223 610 l 1225 90 q 1203 64 1222 65 l 1065 64 l 1065 0 l 1244 0 q 1299 52 1298 3 l 1299 880 l 1226 880 l 1226 674 l 1065 674 z "},"ෘ":{"ha":469,"x_min":30,"x_max":410,"o":"m 30 674 l 343 674 q 410 610 408 671 l 410 0 l 355 0 l 342 53 q 271 0 319 1 l 80 0 q 30 57 31 3 l 30 380 q 77 437 30 431 q 88 438 83 438 l 335 438 l 335 578 q 319 610 335 606 q 302 612 312 612 l 30 612 l 30 674 m 335 377 l 126 377 q 103 349 106 368 l 103 90 q 127 64 111 66 l 251 64 q 335 167 328 64 q 335 187 335 176 l 335 377 z "},"ෲ":{"ha":922,"x_min":30,"x_max":857,"o":"m 30 674 l 343 674 q 410 610 408 671 l 410 0 l 355 0 l 342 53 q 271 0 319 1 l 80 0 q 30 57 31 3 l 30 380 q 77 437 30 431 q 88 438 83 438 l 335 438 l 335 578 q 319 610 335 606 q 302 612 312 612 l 30 612 l 30 674 m 335 377 l 126 377 q 103 349 106 368 l 103 90 q 127 64 111 66 l 251 64 q 335 167 328 64 q 335 187 335 176 l 335 377 m 477 674 l 791 674 q 857 610 856 671 l 857 0 l 803 0 l 789 53 q 719 0 766 1 l 528 0 q 477 57 479 3 l 477 380 q 525 437 477 431 q 536 438 530 438 l 783 438 l 783 578 q 766 610 783 606 q 750 612 760 612 l 477 612 l 477 674 m 783 377 l 575 377 q 552 349 555 366 l 552 90 q 575 64 560 65 l 699 64 q 783 167 776 64 q 783 187 783 176 l 783 377 z "},"ු":{"ha":3,"x_min":-667,"x_max":-71,"o":"m -71 -216 l -667 -216 l -667 -152 l -144 -152 l -144 38 l -118 38 q -75 73 -90 38 q -71 88 -72 80 l -71 -216 z "},"ූ":{"ha":3,"x_min":-681,"x_max":-81,"o":"m -81 -216 l -146 -216 q -179 -180 -157 -197 q -239 -165 -201 -165 l -307 -165 q -372 -180 -334 -165 l -434 -208 q -534 -221 -476 -221 l -616 -221 q -681 -165 -680 -218 l -681 -39 l -609 -39 l -609 -136 q -586 -160 -606 -159 l -526 -160 q -438 -145 -479 -160 l -387 -123 q -311 -106 -340 -106 l -233 -106 q -170 -122 -194 -106 q -155 -134 -160 -129 l -155 42 l -119 42 q -87 75 -99 42 q -81 99 -83 87 l -81 -216 z "},"ඹ":{"ha":699,"x_min":30,"x_max":631,"o":"m 103 541 q 138 575 106 574 l 279 575 q 315 545 313 572 l 315 467 q 286 433 313 434 l 103 433 l 103 541 m 30 73 q 73 1 30 9 q 91 0 81 0 l 252 0 q 309 37 292 0 q 316 64 316 50 l 316 141 q 314 155 316 148 q 309 167 312 161 q 301 176 305 172 q 292 184 297 180 q 283 189 286 187 q 275 194 281 191 l 270 197 q 239 235 240 218 l 239 256 q 256 270 240 269 l 406 270 q 422 256 420 267 l 422 235 q 392 199 422 214 l 391 199 q 357 174 362 179 q 346 141 346 157 l 346 64 q 384 5 346 22 q 410 0 397 0 l 570 0 q 629 50 623 0 q 631 73 631 61 l 631 742 q 557 846 631 834 q 529 848 544 848 l 30 848 l 30 784 l 498 784 q 555 751 547 784 q 557 722 557 739 l 557 96 q 530 64 555 65 l 425 64 q 397 88 399 66 l 397 130 q 426 171 399 153 q 471 206 464 190 q 475 222 475 214 l 475 278 q 437 316 473 315 l 222 316 q 184 278 186 313 l 184 222 q 228 172 184 198 q 231 171 229 171 q 263 130 262 151 l 263 87 q 236 64 262 64 l 126 64 q 103 98 104 66 l 103 381 l 316 381 q 385 438 378 381 q 387 458 387 448 l 387 568 q 307 637 384 636 l 113 637 q 33 583 47 637 q 30 560 30 571 l 30 73 z "},"න":{"ha":802,"x_min":30,"x_max":736,"o":"m 400 0 q 486 41 472 0 q 491 81 491 58 l 491 372 q 439 437 491 431 q 426 437 433 437 l 315 437 l 434 574 q 515 610 476 608 l 617 610 q 662 567 659 605 l 662 113 q 647 68 662 75 q 623 64 636 64 l 528 64 l 528 0 l 651 0 q 731 43 718 0 q 736 90 736 61 l 736 589 q 674 673 736 662 q 646 674 661 674 l 481 674 q 381 616 433 674 q 368 601 377 612 l 304 526 l 304 593 q 255 671 304 661 q 221 674 240 674 l 30 674 l 30 612 l 201 612 q 241 570 239 604 l 241 454 l 134 330 q 113 316 119 316 q 100 321 106 317 l 100 463 l 30 463 l 30 69 q 65 3 30 14 q 95 0 79 0 l 400 0 m 153 252 l 262 377 l 385 377 q 418 345 416 374 l 418 107 q 400 66 418 72 q 376 64 391 64 l 133 64 q 104 81 107 64 q 103 95 103 88 l 103 236 q 119 233 113 233 q 153 252 138 235 z "},"ඳ":{"ha":842,"x_min":30,"x_max":810,"o":"m 779 0 l 779 64 l 354 64 q 323 99 324 69 l 323 377 q 363 416 331 414 l 773 416 l 773 602 q 701 674 770 673 l 144 674 q 33 601 52 674 q 30 570 30 585 l 30 0 l 102 0 l 102 551 q 146 613 102 606 q 170 614 157 614 l 250 614 l 250 612 l 666 612 q 699 575 697 609 l 699 479 l 328 479 q 250 401 251 476 l 250 68 q 297 1 250 7 q 309 0 302 0 l 407 0 q 368 -68 368 -20 l 368 -171 q 438 -232 370 -231 l 810 -232 l 810 -170 l 473 -170 q 442 -141 444 -167 l 442 -65 q 499 -3 442 -14 q 522 0 511 0 l 779 0 z "},"ඦ":{"ha":926,"x_min":30,"x_max":918,"o":"m 747 64 l 357 64 q 326 102 328 73 l 326 378 q 365 416 328 415 l 524 416 l 524 598 q 437 674 521 673 l 144 674 q 33 601 52 674 q 30 570 30 585 l 30 0 l 102 0 l 102 552 q 146 614 102 608 q 170 616 157 616 l 252 616 l 252 612 l 414 612 q 457 571 456 609 l 457 480 l 327 480 q 251 404 252 477 l 251 73 q 304 1 251 8 q 321 0 312 0 l 783 0 q 852 54 845 0 q 853 73 853 64 l 853 404 q 777 480 850 479 l 648 480 l 648 571 q 692 612 654 610 l 852 612 l 852 674 l 728 674 q 766 708 746 685 l 918 872 l 827 872 l 677 713 q 616 663 650 684 q 582 598 583 643 l 582 416 l 741 416 q 780 378 779 414 l 780 102 q 747 64 777 65 z "},"ඞ":{"ha":784,"x_min":24,"x_max":715,"o":"m 24 572 q 99 639 27 637 l 361 639 q 445 589 433 639 q 449 555 449 574 l 449 312 l 248 312 q 190 282 198 312 q 187 250 187 269 l 187 96 q 214 64 190 65 l 331 64 q 380 106 376 64 q 381 121 381 113 l 381 236 l 448 236 l 448 121 q 499 64 456 66 l 606 64 q 640 102 639 69 l 640 728 q 601 781 640 777 q 585 783 593 783 l 114 783 l 114 849 l 616 849 q 715 760 713 846 l 715 68 q 651 0 712 1 l 481 0 q 415 41 426 1 q 362 1 408 7 q 351 0 357 0 l 179 0 q 117 43 125 0 q 114 73 114 57 l 114 277 q 164 359 114 338 q 201 366 182 366 l 381 366 l 381 544 q 340 586 378 585 l 262 586 q 271 571 271 582 l 271 467 q 233 429 267 431 l 87 429 q 24 492 26 431 l 24 572 m 83 564 l 83 500 q 103 479 85 480 l 194 479 q 213 496 213 481 l 213 570 q 201 586 212 583 l 111 586 q 83 564 84 583 z "},"ණ":{"ha":1146,"x_min":30,"x_max":1084,"o":"m 479 64 l 213 64 q 180 99 183 64 q 179 137 179 111 q 145 197 178 193 l 198 269 l 378 269 l 378 327 l 241 327 l 453 613 l 471 613 q 525 564 513 613 q 528 545 528 553 l 528 123 q 479 64 525 65 m 146 392 l 146 574 q 189 613 149 612 l 372 613 l 163 335 q 146 392 146 350 m 514 674 l 499 674 l 618 836 l 538 836 l 418 674 l 157 674 q 75 601 77 669 l 75 370 q 119 278 76 304 l 30 159 l 30 75 l 90 142 q 117 115 113 142 q 118 99 118 107 q 151 4 118 16 q 172 0 161 0 l 503 0 q 601 102 600 3 l 601 547 q 636 609 601 597 q 651 612 644 612 l 719 612 q 766 538 765 609 l 766 245 l 838 245 l 838 540 q 872 608 838 593 q 888 612 882 612 l 970 612 q 1008 581 1004 612 q 1009 559 1009 571 l 1009 102 q 990 65 1009 69 q 977 64 985 64 l 656 64 l 656 0 l 985 0 q 1084 88 1081 7 l 1084 595 q 1001 674 1081 673 l 882 674 q 804 629 822 673 q 738 674 788 673 l 652 674 q 579 633 598 673 q 514 674 555 673 z "},"ඬ":{"ha":947,"x_min":30,"x_max":879,"o":"m 240 472 l 240 411 l 312 411 q 278 340 278 391 l 278 73 q 316 3 278 12 q 343 0 328 0 l 514 0 q 576 35 564 0 q 578 41 578 39 q 644 0 590 1 l 815 0 q 879 68 878 3 l 879 760 q 780 849 876 848 l 278 849 l 278 783 l 749 783 q 803 745 798 783 q 804 728 804 736 l 804 102 q 770 64 799 66 l 663 64 q 612 121 616 76 l 612 241 l 544 241 l 544 121 q 495 64 532 68 l 378 64 q 351 96 353 66 l 351 330 q 431 410 354 408 l 583 410 l 583 590 q 496 667 581 666 l 144 667 q 34 597 54 667 q 30 563 30 581 l 30 0 l 102 0 l 102 545 q 146 608 102 601 q 170 609 157 609 l 279 609 l 279 604 l 468 604 q 513 567 511 601 l 513 472 l 240 472 z "},"ඟ":{"ha":1029,"x_min":30,"x_max":954,"o":"m 472 674 l 144 674 q 33 601 52 674 q 30 570 30 585 l 30 0 l 102 0 l 102 548 q 146 612 102 604 q 170 613 157 613 l 255 613 q 247 568 247 594 l 247 75 q 290 1 247 11 q 312 0 301 0 l 571 0 q 656 41 643 0 q 662 81 662 58 l 662 332 q 614 388 659 387 l 589 388 l 623 574 q 674 610 632 609 l 833 610 q 878 579 873 610 q 879 563 879 571 l 879 114 q 859 66 879 73 q 836 64 849 64 l 745 64 l 745 0 l 868 0 q 949 47 936 0 q 954 85 954 64 l 954 589 q 891 673 954 662 q 863 674 878 674 l 655 674 q 557 605 570 674 l 510 334 l 564 334 q 589 305 587 331 l 589 106 q 566 65 589 71 q 543 64 556 64 l 350 64 q 320 99 323 72 l 320 537 q 384 612 327 608 l 472 612 l 472 674 z "},"ඤ":{"ha":1374,"x_min":30,"x_max":1343,"o":"m 1312 0 l 1312 64 l 887 64 q 856 99 857 66 l 856 377 q 897 416 864 414 l 1306 416 l 1306 602 q 1234 674 1303 673 l 716 674 q 625 662 658 674 q 553 621 586 646 l 475 563 l 475 604 q 416 674 471 671 l 144 674 q 33 601 52 674 q 30 570 30 585 l 30 0 l 102 0 l 102 552 q 146 614 102 608 q 170 616 157 616 l 254 616 l 254 612 l 374 612 q 411 570 408 601 l 412 509 q 222 350 222 350 l 222 298 l 267 298 q 236 208 236 278 l 236 64 q 285 1 236 8 q 297 0 292 0 l 419 0 q 472 39 461 1 q 522 0 484 1 l 640 0 q 705 46 690 0 q 709 72 709 58 l 709 423 q 644 492 703 488 l 492 492 l 576 556 q 656 602 620 591 q 734 612 688 612 l 1199 612 q 1233 575 1232 609 l 1233 479 l 861 479 q 783 401 784 476 l 783 68 q 830 1 783 7 q 842 0 836 0 l 940 0 q 901 -68 901 -22 l 901 -171 q 971 -232 903 -231 l 1343 -232 l 1343 -170 l 1008 -170 q 975 -141 977 -167 l 975 -65 q 1031 -3 975 -15 q 1055 0 1043 0 l 1312 0 m 640 400 l 640 104 q 608 64 637 65 l 548 64 q 503 110 507 64 q 502 137 502 121 l 502 255 l 444 255 l 444 136 q 414 66 444 76 q 393 64 404 64 l 332 64 q 305 95 307 69 l 305 208 q 331 294 305 273 q 351 308 340 301 l 351 342 l 315 342 l 422 433 l 609 433 q 640 400 639 430 z "},"ඕ":{"ha":699,"x_min":19,"x_max":631,"o":"m 557 563 l 556 102 q 522 64 551 66 l 415 64 q 363 121 368 76 l 363 212 l 297 212 l 297 121 q 247 64 286 68 l 138 64 q 104 85 109 64 q 103 102 103 92 l 103 476 q 136 515 106 514 l 205 515 q 220 499 218 513 l 220 340 q 267 300 222 301 l 385 300 q 438 347 437 302 l 438 579 l 380 579 l 380 380 q 361 358 377 359 l 294 358 q 277 380 278 361 l 277 532 q 221 579 274 578 l 110 579 q 30 491 35 567 l 30 65 q 94 0 33 1 l 267 0 q 330 35 317 0 q 331 41 331 39 q 397 0 343 1 l 567 0 q 631 68 629 3 l 631 639 q 589 741 631 722 q 537 749 567 749 l 236 749 q 145 792 157 749 q 142 825 142 806 q 167 856 148 854 l 628 856 l 628 913 l 134 913 q 68 857 69 910 l 68 817 q 114 746 71 758 l 19 746 l 19 688 l 511 688 q 557 644 553 678 l 557 563 z "},"ඔ":{"ha":699,"x_min":30,"x_max":631,"o":"m 385 340 l 267 340 q 220 381 221 343 l 220 543 q 203 559 220 559 l 138 559 q 103 517 104 556 l 103 102 q 125 65 103 69 q 138 64 130 64 l 247 64 q 296 106 292 64 q 297 121 297 113 l 297 245 l 363 245 l 363 121 q 415 64 372 66 l 522 64 q 556 102 555 69 l 556 728 q 517 781 556 777 q 500 783 509 783 l 30 783 l 30 849 l 532 849 q 631 760 629 846 l 631 68 q 567 0 628 1 l 397 0 q 331 41 342 1 q 267 0 316 4 l 94 0 q 30 65 31 3 l 30 534 q 110 623 33 621 l 221 623 q 277 575 275 620 l 277 423 q 294 401 279 403 l 361 401 q 380 423 378 404 l 380 623 l 438 623 l 438 388 q 385 340 435 342 z "},"ප":{"ha":692,"x_min":30,"x_max":632,"o":"m 30 73 l 30 404 q 106 480 33 479 l 236 480 l 236 571 q 193 612 231 610 l 31 612 l 31 674 l 214 674 q 301 598 300 671 l 301 416 l 142 416 q 103 378 104 414 l 103 102 q 136 64 106 65 l 526 64 q 557 102 555 73 l 557 378 q 518 416 552 415 l 359 416 l 359 598 q 446 674 362 673 l 631 674 l 631 612 l 469 612 q 426 571 427 609 l 426 480 l 556 480 q 632 404 631 477 l 632 73 q 579 1 632 8 q 562 0 571 0 l 100 0 q 31 54 38 0 q 30 73 30 64 z "},"ඵ":{"ha":697,"x_min":30,"x_max":632,"o":"m 365 791 l 514 791 q 556 762 552 791 q 557 747 557 755 l 557 633 l 395 633 q 366 646 370 633 q 365 663 365 652 l 365 791 m 98 0 l 562 0 q 631 54 624 0 q 632 73 632 64 l 632 758 q 586 844 632 830 q 543 849 568 849 l 210 849 l 210 792 l 294 792 l 294 643 q 330 582 294 590 q 357 579 342 579 l 557 579 l 557 102 q 529 64 555 65 l 129 64 q 103 98 103 66 l 103 300 q 140 335 106 334 l 334 335 l 334 487 q 260 560 331 559 l 30 560 l 30 499 l 228 499 q 259 473 258 496 l 259 392 l 106 392 q 30 317 31 389 l 30 73 q 75 1 30 11 q 98 0 85 0 z "},"ර":{"ha":616,"x_min":30,"x_max":545,"o":"m 30 582 q 85 675 31 631 l 357 894 l 461 894 l 191 674 l 463 674 q 545 594 544 671 l 545 79 q 473 0 536 4 l 91 0 q 30 65 31 3 l 30 582 m 103 552 l 103 114 q 121 66 103 73 q 149 64 130 64 l 438 64 q 471 81 465 64 q 473 107 473 92 l 473 560 q 426 612 461 608 l 155 612 q 103 552 104 609 z "},"ස":{"ha":766,"x_min":-8,"x_max":699,"o":"m 30 347 l 30 73 q 75 1 30 11 q 98 0 85 0 l 294 0 q 358 35 336 0 q 365 50 362 43 q 419 1 376 12 q 435 0 429 0 l 631 0 q 697 47 689 0 q 699 73 699 60 l 699 404 q 620 480 696 479 l 460 480 l 460 575 q 505 612 463 610 l 697 612 l 697 674 l 481 674 q 395 598 396 671 l 395 416 l 593 416 q 624 389 623 414 l 624 96 q 598 64 621 65 l 458 64 q 400 137 407 76 l 400 231 l 330 231 l 330 137 q 282 65 330 72 q 271 64 277 64 l 130 64 q 103 96 104 66 l 103 338 q 183 416 106 415 l 335 416 l 335 598 q 248 674 332 673 l 31 674 l 31 612 l 225 612 q 269 575 267 609 l 269 480 l -8 480 l -8 419 l 65 419 q 30 347 31 396 z "},"ශ":{"ha":803,"x_min":30,"x_max":736,"o":"m 617 61 l 503 61 l 503 0 l 651 0 q 732 47 719 0 q 736 85 736 64 l 736 589 q 674 673 736 662 q 646 674 661 674 l 431 674 q 334 605 346 674 l 288 334 l 342 334 q 365 305 363 331 l 365 106 q 343 65 365 71 q 320 64 334 64 l 133 64 q 103 99 106 72 l 103 574 q 123 610 103 605 q 142 612 132 612 l 254 612 l 254 674 l 106 674 q 30 598 31 671 l 30 77 q 96 0 42 5 l 347 0 q 433 39 418 0 q 438 81 438 57 l 438 332 q 392 388 435 387 l 365 388 l 399 574 q 452 610 410 609 l 616 610 q 662 575 658 610 q 663 563 663 570 l 663 426 l 562 426 q 502 372 503 423 l 502 208 q 617 61 503 95 m 666 370 l 666 95 q 557 190 567 118 q 556 205 556 198 l 556 351 q 571 370 559 369 l 666 370 z "},"ෂ":{"ha":692,"x_min":30,"x_max":632,"o":"m 30 73 q 83 1 30 8 q 100 0 91 0 l 562 0 q 631 54 624 0 q 632 73 632 64 l 632 403 q 585 475 631 461 l 610 498 q 632 547 632 519 l 632 602 q 583 673 632 662 q 570 674 575 674 l 433 674 q 346 598 347 671 l 346 416 l 445 416 l 304 292 q 279 216 279 267 l 279 148 l 351 148 l 351 208 q 368 269 351 251 q 374 275 372 273 l 529 415 q 557 378 556 411 l 557 102 q 526 64 552 66 l 136 64 q 103 102 104 66 l 103 378 q 142 416 106 415 l 289 416 l 289 598 q 202 674 286 673 l 31 674 l 31 612 l 179 612 q 222 571 221 609 l 222 480 l 106 480 q 30 404 31 477 l 30 73 m 412 477 l 412 571 q 456 612 418 610 l 538 612 q 568 582 566 612 q 568 564 568 575 q 544 509 567 530 l 510 477 l 412 477 z "},"ත":{"ha":803,"x_min":16,"x_max":736,"o":"m 418 400 q 387 433 415 431 l 216 433 l 109 342 l 149 342 l 149 308 q 104 247 111 286 q 103 208 103 231 l 103 95 q 129 64 106 65 l 387 64 q 418 104 418 66 l 418 400 m 270 563 l 362 642 q 450 674 404 674 l 659 674 q 734 621 720 674 q 736 600 736 610 l 736 72 q 682 1 736 12 q 665 0 673 0 l 528 0 l 528 64 l 631 64 q 662 102 661 66 l 662 571 q 621 612 659 610 l 471 612 q 393 582 429 610 l 286 492 l 425 492 q 491 423 486 481 l 491 72 q 444 3 491 18 q 420 0 431 0 l 91 0 q 31 47 41 0 q 30 64 30 57 l 30 208 q 61 298 31 281 l 16 298 l 16 350 q 206 509 16 350 l 206 570 q 168 612 203 610 l 47 612 l 47 674 l 210 674 q 270 604 264 662 l 270 563 z "},"ථ":{"ha":696,"x_min":30,"x_max":632,"o":"m 365 791 l 514 791 q 556 762 552 791 q 557 747 557 755 l 557 633 l 395 633 q 366 646 370 633 q 365 663 365 652 l 365 791 m 282 471 l 282 534 l 106 534 q 30 460 31 532 l 30 73 q 75 1 30 11 q 98 0 85 0 l 562 0 q 631 54 624 0 q 632 73 632 64 l 632 758 q 586 844 632 830 q 543 849 568 849 l 210 849 l 210 792 l 294 792 l 294 643 q 330 582 294 590 q 357 579 342 579 l 557 579 l 557 102 q 529 64 555 65 l 129 64 q 103 98 103 66 l 103 435 q 140 471 106 469 l 282 471 z "},"ට":{"ha":699,"x_min":30,"x_max":631,"o":"m 330 549 l 330 613 l 106 613 q 30 538 31 610 l 30 73 q 75 1 30 11 q 98 0 85 0 l 560 0 q 629 54 623 0 q 631 73 631 64 l 631 742 q 557 846 631 834 q 529 848 544 848 l 30 848 l 30 784 l 498 784 q 555 751 547 784 q 557 722 557 739 l 557 102 q 528 64 555 65 l 129 64 q 103 98 103 66 l 103 513 q 140 549 106 548 l 330 549 z "},"ඨ":{"ha":699,"x_min":30,"x_max":632,"o":"m 365 791 l 514 791 q 556 762 552 791 q 557 747 557 755 l 557 633 l 395 633 q 366 646 370 633 q 365 663 365 652 l 365 791 m 266 0 q 324 35 308 0 q 330 50 328 43 q 396 0 346 1 l 568 0 q 632 68 631 3 l 632 758 q 586 844 632 830 q 543 849 568 849 l 210 849 l 210 792 l 294 792 l 294 643 q 330 582 294 590 q 357 579 342 579 l 557 579 l 557 99 q 530 64 555 65 l 425 64 q 363 146 363 66 l 363 277 l 296 277 l 296 145 q 240 64 293 65 l 134 64 q 103 98 104 66 l 103 384 q 144 426 106 425 l 339 426 l 339 490 l 110 490 q 30 401 31 487 l 30 65 q 94 0 33 1 l 266 0 z "},"උ":{"ha":707,"x_min":30,"x_max":651,"o":"m 126 674 l 559 674 q 647 594 646 671 l 647 416 l 164 416 q 107 392 115 416 q 103 363 103 380 l 103 -84 q 123 -140 103 -132 q 146 -142 133 -142 l 541 -142 q 576 -106 575 -138 l 576 133 l 651 133 l 651 -125 q 593 -206 651 -198 q 571 -208 582 -208 l 103 -208 q 30 -117 31 -205 l 30 381 q 130 479 33 477 l 572 479 l 572 572 q 533 612 568 610 l 126 612 l 126 674 z "},"ඌ":{"ha":1206,"x_min":30,"x_max":1168,"o":"m 126 674 l 559 674 q 647 594 646 671 l 647 416 l 164 416 q 107 392 115 416 q 103 363 103 380 l 103 -84 q 123 -140 103 -132 q 146 -142 133 -142 l 541 -142 q 576 -106 575 -138 l 576 133 l 651 133 l 651 -125 q 593 -206 651 -198 q 571 -208 582 -208 l 103 -208 q 30 -117 31 -205 l 30 381 q 130 479 33 477 l 572 479 l 572 572 q 533 612 568 610 l 126 612 l 126 674 m 770 674 l 770 395 q 815 350 773 351 l 928 350 q 987 397 986 353 l 987 582 q 1012 612 991 610 l 1072 612 q 1096 583 1095 609 l 1096 96 q 1067 64 1093 65 l 878 64 q 848 95 850 72 l 848 206 l 770 206 l 770 64 q 825 0 776 4 l 1103 0 q 1166 46 1156 0 q 1168 62 1168 54 l 1168 618 q 1131 671 1168 658 q 1111 674 1122 674 l 972 674 q 926 616 928 671 l 926 439 q 899 412 918 414 l 853 412 q 830 427 831 412 q 829 439 829 434 l 829 674 l 770 674 z "},"ව":{"ha":697,"x_min":30,"x_max":631,"o":"m 529 848 l 30 848 l 30 784 l 498 784 q 555 751 547 784 q 557 722 557 739 l 557 102 q 528 64 555 65 l 129 64 q 103 98 103 66 l 103 377 q 140 412 106 411 l 334 412 l 334 594 q 260 667 331 666 l 30 667 l 30 604 l 228 604 q 259 579 258 601 l 259 473 l 106 473 q 30 399 31 471 l 30 73 q 75 1 30 11 q 98 0 85 0 l 560 0 q 629 54 623 0 q 631 73 631 64 l 631 742 q 557 846 631 834 q 529 848 544 848 z "},"ය":{"ha":766,"x_min":30,"x_max":699,"o":"m 294 674 l 294 612 l 136 612 q 103 570 104 609 l 103 95 q 130 64 106 65 l 271 64 q 330 137 323 76 l 330 231 l 400 231 l 400 137 q 448 65 400 72 q 458 64 453 64 l 598 64 q 624 96 623 66 l 624 389 q 593 416 621 415 l 365 416 l 365 595 q 452 674 368 673 l 697 674 l 697 612 l 480 612 q 435 575 437 609 l 435 480 l 620 480 q 699 404 697 477 l 699 73 q 654 1 699 11 q 631 0 643 0 l 435 0 q 373 33 395 0 q 365 50 368 42 q 309 1 354 11 q 294 0 301 0 l 98 0 q 31 47 39 0 q 30 73 30 58 l 30 594 q 106 674 33 673 l 294 674 z "},"෴":{"ha":2493,"x_min":62,"x_max":2436,"o":"m 184 259 l 220 194 l 160 157 l 201 81 q 243 80 214 62 l 445 201 q 517 202 488 224 q 547 178 517 202 l 643 331 q 659 328 651 342 l 716 254 l 840 431 q 859 431 849 445 q 860 427 860 429 l 933 319 l 1062 502 q 1081 503 1072 515 q 1084 498 1082 500 l 1160 331 l 1305 528 q 1325 525 1318 540 l 1388 313 l 1531 457 q 1552 449 1548 469 q 1552 446 1552 448 l 1591 262 l 1732 387 q 1752 373 1748 392 l 1789 202 l 1907 301 q 1925 292 1923 308 l 1948 183 l 1956 187 q 1961 191 1959 190 q 1965 193 1963 191 q 1969 195 1967 194 l 1971 195 q 2053 197 2014 218 l 2252 77 q 2298 77 2285 60 l 2340 155 l 2279 194 l 2314 259 l 2418 191 q 2424 156 2435 180 l 2352 23 q 2272 0 2329 -19 q 2253 7 2261 3 l 2052 121 q 1975 125 2011 145 l 1883 77 l 1864 199 l 1718 88 l 1691 277 l 1542 146 l 1493 338 l 1340 190 l 1282 395 l 1133 210 l 1055 382 l 913 194 l 833 324 l 707 151 l 648 218 l 564 94 l 503 138 q 446 133 481 153 l 232 8 q 155 14 184 -22 q 148 24 151 19 l 76 157 q 81 194 64 180 l 184 259 z "},"ඏ":{"ha":1176,"x_min":30,"x_max":1114,"o":"m 270 73 q 323 1 270 8 q 340 0 331 0 l 802 0 q 871 54 864 0 q 872 73 872 64 l 872 404 q 796 480 869 479 l 666 480 l 666 571 q 709 612 671 610 l 871 612 l 871 674 l 827 674 l 827 719 q 852 757 827 753 q 869 758 860 758 l 989 758 q 1046 718 1036 758 q 1047 701 1047 709 l 1047 271 q 1009 286 1034 286 l 951 286 q 884 220 888 278 l 884 76 q 937 20 884 27 q 951 19 945 19 l 1040 19 q 1114 106 1111 24 l 1114 715 q 1053 808 1114 785 q 1006 815 1031 815 l 853 815 q 765 765 777 815 q 762 730 762 750 l 762 674 l 686 674 q 600 598 601 671 l 600 416 l 758 416 q 798 378 795 411 l 798 102 q 766 64 792 66 l 376 64 q 343 102 345 66 l 343 378 q 382 416 346 415 l 541 416 l 541 598 q 454 674 538 673 l 381 674 l 381 730 q 339 808 381 795 q 290 815 319 815 l 137 815 q 34 747 54 815 q 30 715 30 731 l 30 106 q 103 19 33 20 l 194 19 q 258 64 251 19 q 259 76 259 71 l 259 220 q 193 286 252 282 l 134 286 q 98 273 110 286 l 96 271 l 96 701 q 144 757 96 750 q 156 758 151 758 l 274 758 q 315 738 309 758 q 316 719 316 728 l 316 674 l 271 674 l 271 612 l 433 612 q 476 571 475 609 l 476 480 l 346 480 q 270 404 271 477 l 270 73 m 1048 186 l 1048 119 q 1017 76 1044 77 l 960 76 q 939 95 940 77 l 939 205 q 964 231 941 229 l 1001 231 q 1048 186 1044 224 m 96 186 q 142 231 104 227 l 180 231 q 205 205 203 228 l 205 95 q 183 76 202 77 l 126 76 q 96 106 100 76 q 96 119 96 113 l 96 186 z "},"ඐ":{"ha":1649,"x_min":30,"x_max":1583,"o":"m 1048 186 l 1048 119 q 1017 76 1044 77 l 960 76 q 939 95 940 77 l 939 205 q 964 231 941 229 l 1001 231 q 1048 186 1044 224 m 96 186 q 142 231 104 227 l 180 231 q 205 205 203 228 l 205 95 q 183 76 202 77 l 126 76 q 96 106 100 76 q 96 119 96 113 l 96 186 m 270 73 q 323 1 270 8 q 340 0 331 0 l 802 0 q 871 54 864 0 q 872 73 872 64 l 872 404 q 796 480 869 479 l 666 480 l 666 571 q 709 612 671 610 l 871 612 l 871 674 l 827 674 l 827 719 q 852 757 827 753 q 869 758 860 758 l 989 758 q 1046 718 1036 758 q 1047 701 1047 709 l 1047 271 q 1009 286 1034 286 l 951 286 q 884 220 888 278 l 884 76 q 937 20 884 27 q 951 19 945 19 l 1040 19 q 1114 106 1111 24 l 1114 715 q 1053 808 1114 785 q 1006 815 1031 815 l 853 815 q 765 765 777 815 q 762 730 762 750 l 762 674 l 686 674 q 600 598 601 671 l 600 416 l 758 416 q 798 378 795 411 l 798 102 q 766 64 792 66 l 376 64 q 343 102 345 66 l 343 378 q 382 416 346 415 l 541 416 l 541 598 q 454 674 538 673 l 381 674 l 381 730 q 339 808 381 795 q 290 815 319 815 l 137 815 q 34 747 54 815 q 30 715 30 731 l 30 106 q 103 19 33 20 l 194 19 q 258 64 251 19 q 259 76 259 71 l 259 220 q 193 286 252 282 l 134 286 q 98 273 110 286 l 96 271 l 96 701 q 144 757 96 750 q 156 758 151 758 l 274 758 q 315 738 309 758 q 316 719 316 728 l 316 674 l 271 674 l 271 612 l 433 612 q 476 571 475 609 l 476 480 l 346 480 q 270 404 271 477 l 270 73 m 1191 674 l 1191 395 q 1236 350 1194 351 l 1343 350 q 1400 397 1398 353 l 1400 582 q 1423 612 1404 610 l 1485 612 q 1508 585 1507 609 l 1508 96 q 1481 64 1506 65 l 1294 64 q 1265 85 1268 64 q 1264 96 1264 91 l 1264 206 l 1191 206 l 1191 64 q 1245 0 1199 5 l 1518 0 q 1581 49 1573 0 q 1583 62 1583 56 l 1583 618 q 1546 671 1583 658 q 1526 674 1537 674 l 1397 674 q 1347 616 1348 671 l 1347 441 q 1321 414 1340 415 l 1274 414 q 1252 427 1253 414 q 1251 439 1251 433 l 1251 674 l 1191 674 z "},"ඍ":{"ha":1232,"x_min":30,"x_max":1175,"o":"m 796 674 l 796 612 l 1067 612 q 1100 594 1097 612 q 1101 578 1101 587 l 1101 438 l 853 438 q 798 393 804 438 q 796 380 796 387 l 796 57 q 846 0 799 1 l 1038 0 q 1108 53 1086 1 l 1122 0 l 1175 0 l 1175 610 q 1108 674 1172 673 l 796 674 m 1101 377 l 1101 187 q 1017 64 1093 69 l 892 64 q 869 90 872 75 l 869 349 q 892 377 873 376 l 1101 377 m 363 50 q 420 1 374 12 q 435 0 429 0 l 631 0 q 697 47 689 0 q 699 73 699 60 l 699 404 q 620 480 696 479 l 460 480 l 460 575 q 505 612 463 610 l 697 612 l 697 674 l 481 674 q 395 598 396 671 l 395 416 l 593 416 q 624 389 623 414 l 624 96 q 598 64 621 65 l 458 64 q 400 137 407 76 l 400 231 l 330 231 l 330 137 q 270 64 320 71 l 130 64 q 103 96 104 66 l 103 389 q 134 416 106 415 l 334 416 l 334 598 q 247 674 331 673 l 31 674 l 31 612 l 224 612 q 269 575 267 609 l 269 480 l 109 480 q 30 404 31 477 l 30 73 q 75 1 30 11 q 98 0 85 0 l 294 0 q 357 34 335 0 q 363 50 361 42 z "},"ඎ":{"ha":1686,"x_min":30,"x_max":1617,"o":"m 1238 673 l 1238 610 l 1510 610 q 1542 590 1539 610 q 1544 576 1544 583 l 1544 437 l 1295 437 q 1238 378 1244 429 l 1238 56 q 1289 -1 1241 0 l 1478 -1 q 1549 52 1529 0 l 1563 -1 l 1617 -1 l 1617 609 q 1550 673 1614 671 l 1238 673 m 1544 376 l 1544 186 q 1459 62 1535 68 l 1335 62 q 1312 88 1314 73 l 1312 347 q 1335 376 1316 374 l 1544 376 m 789 673 l 789 610 l 1062 610 q 1095 590 1092 610 q 1096 576 1096 583 l 1096 437 l 848 437 q 789 378 792 431 l 789 56 q 840 -1 792 0 l 1031 -1 q 1101 52 1081 0 l 1115 -1 l 1169 -1 l 1169 609 q 1103 673 1166 671 l 789 673 m 1096 376 l 1096 186 q 1010 62 1095 64 l 887 62 q 864 88 867 73 l 864 347 q 887 376 871 373 l 1096 376 m 363 50 q 420 1 374 12 q 435 0 429 0 l 631 0 q 697 47 689 0 q 699 73 699 60 l 699 404 q 620 480 696 479 l 460 480 l 460 575 q 505 612 463 610 l 697 612 l 697 674 l 481 674 q 395 598 396 671 l 395 416 l 593 416 q 624 389 623 414 l 624 96 q 598 64 621 65 l 458 64 q 400 137 407 76 l 400 231 l 330 231 l 330 137 q 270 64 320 71 l 130 64 q 103 96 104 66 l 103 389 q 134 416 106 415 l 334 416 l 334 598 q 247 674 331 673 l 31 674 l 31 612 l 224 612 q 269 575 267 609 l 269 480 l 109 480 q 30 404 31 477 l 30 73 q 75 1 30 11 q 98 0 85 0 l 294 0 q 357 34 335 0 q 363 50 361 42 z "},"/":{"ha":553,"x_min":24,"x_max":541,"o":"m 457 916 l 24 -130 l 110 -130 l 541 916 l 457 916 z "}," ":{"ha":271,"x_min":0,"x_max":0,"o":""},"£":{"ha":578,"x_min":58,"x_max":533,"o":"m 533 0 l 533 80 l 213 80 q 235 132 235 94 l 235 385 l 477 385 l 477 454 l 235 454 l 235 723 q 247 735 237 734 l 525 735 l 525 815 l 301 815 q 155 743 182 815 q 144 674 144 715 l 144 454 l 58 454 l 58 385 l 144 385 l 144 92 q 132 80 141 81 l 58 80 l 58 0 l 533 0 z "},"∑":{"ha":595,"x_min":31,"x_max":552,"o":"m 31 0 l 552 0 l 552 80 l 138 80 l 368 448 l 155 781 l 552 781 l 552 861 l 43 861 l 43 796 l 271 444 l 31 64 l 31 0 z "},"t":{"ha":366,"x_min":33,"x_max":363,"o":"m 363 665 l 203 665 l 203 834 l 117 834 l 117 665 l 33 665 l 33 595 l 117 595 l 117 138 q 189 11 117 35 q 271 0 221 0 l 363 0 l 363 73 l 214 73 q 203 84 205 76 l 203 595 l 363 595 l 363 665 z "},"ť":{"ha":373,"x_min":33,"x_max":376,"o":"m 363 665 l 203 665 l 203 834 l 117 834 l 117 665 l 33 665 l 33 595 l 117 595 l 117 138 q 189 11 117 35 q 271 0 221 0 l 363 0 l 363 73 l 214 73 q 203 84 205 76 l 203 595 l 363 595 l 363 665 m 286 819 l 320 819 q 288 730 313 770 l 317 705 q 376 838 374 765 l 376 935 l 286 935 l 286 819 z "},"þ":{"ha":589,"x_min":80,"x_max":524,"o":"m 168 -258 l 168 0 l 374 -4 q 510 54 484 -5 q 524 130 524 84 l 524 541 q 456 663 524 640 q 380 673 426 673 l 273 673 q 168 618 190 671 l 167 916 l 80 916 l 80 -258 l 168 -258 m 168 590 q 179 601 171 600 l 425 601 q 435 590 434 598 l 435 79 q 425 66 433 68 l 168 71 l 168 590 z "},"¾":{"ha":1053,"x_min":34,"x_max":998,"o":"m 361 433 l 361 534 q 316 610 359 594 q 357 684 355 632 l 357 770 q 254 865 354 867 l 38 861 l 38 802 l 270 802 q 281 791 279 799 l 281 650 q 270 640 278 642 l 81 640 l 81 581 l 274 581 q 285 571 283 578 l 285 408 q 274 399 282 400 l 34 399 l 34 338 l 254 336 q 361 433 359 339 m 730 869 l 266 -8 l 345 -8 l 807 869 l 730 869 m 922 0 l 922 119 l 998 119 l 998 180 l 922 180 l 922 525 l 837 525 q 765 498 785 525 q 743 461 757 487 l 574 170 l 574 119 l 848 119 l 848 0 l 922 0 m 812 457 q 822 464 819 464 l 848 464 l 848 180 l 652 180 l 812 457 z "},"³":{"ha":461,"x_min":34,"x_max":361,"o":"m 361 433 l 361 534 q 316 610 359 594 q 357 684 355 632 l 357 770 q 254 865 354 867 l 38 861 l 38 802 l 270 802 q 281 791 279 799 l 281 650 q 270 640 278 642 l 81 640 l 81 581 l 274 581 q 285 571 283 578 l 285 408 q 274 399 282 400 l 34 399 l 34 338 l 254 336 q 361 433 359 339 z "},"˜":{"ha":481,"x_min":64,"x_max":412,"o":"m 127 788 q 160 840 129 838 q 245 811 178 840 q 328 789 296 789 q 408 857 395 789 q 412 907 412 880 l 347 907 q 324 857 347 863 q 311 856 317 856 q 225 884 290 856 q 142 906 176 906 q 68 841 80 906 q 64 789 64 819 l 127 788 z "},"™":{"ha":876,"x_min":24,"x_max":806,"o":"m 764 869 l 735 869 l 590 589 l 464 837 q 419 869 442 868 l 373 869 l 373 331 l 445 331 l 445 739 l 564 505 l 608 505 l 731 741 l 731 331 l 806 331 l 806 826 q 764 869 800 867 m 224 331 l 224 810 l 343 810 l 343 869 l 24 869 l 24 810 l 148 810 l 148 331 l 224 331 z "},"²":{"ha":435,"x_min":53,"x_max":377,"o":"m 53 502 l 53 338 l 377 338 l 377 399 l 129 399 l 129 495 q 144 524 130 517 l 316 605 q 374 658 366 628 q 377 685 377 670 l 377 769 q 278 865 377 865 q 275 865 277 865 l 68 861 l 68 802 l 290 802 q 301 791 300 799 l 301 682 q 290 670 301 674 l 289 669 l 118 587 q 61 547 71 564 q 53 502 53 530 z "},"u":{"ha":593,"x_min":69,"x_max":514,"o":"m 321 -8 q 429 54 411 -7 l 439 0 l 514 0 l 514 665 l 426 665 l 427 64 l 168 64 q 157 75 159 66 l 157 665 l 69 665 l 69 123 q 137 1 69 24 q 213 -8 167 -8 l 321 -8 z "},"ú":{"ha":593,"x_min":69,"x_max":514,"o":"m 321 -8 q 429 54 411 -7 l 439 0 l 514 0 l 514 665 l 426 665 l 427 64 l 168 64 q 157 75 159 66 l 157 665 l 69 665 l 69 123 q 137 1 69 24 q 213 -8 167 -8 l 321 -8 m 248 750 l 331 932 l 430 930 l 316 750 l 248 750 z "},"û":{"ha":593,"x_min":69,"x_max":514,"o":"m 321 -8 q 429 54 411 -7 l 439 0 l 514 0 l 514 665 l 426 665 l 427 64 l 168 64 q 157 75 159 66 l 157 665 l 69 665 l 69 123 q 137 1 69 24 q 213 -8 167 -8 l 321 -8 m 332 925 l 233 925 l 109 750 l 190 750 l 282 882 l 366 750 l 452 750 l 332 925 z "},"ü":{"ha":593,"x_min":69,"x_max":514,"o":"m 321 -8 q 429 54 411 -7 l 439 0 l 514 0 l 514 665 l 426 665 l 427 64 l 168 64 q 157 75 159 66 l 157 665 l 69 665 l 69 123 q 137 1 69 24 q 213 -8 167 -8 l 321 -8 m 218 784 l 218 892 l 129 892 l 129 784 l 218 784 m 453 784 l 453 892 l 362 892 l 362 784 l 453 784 z "},"ù":{"ha":593,"x_min":69,"x_max":514,"o":"m 321 -8 q 429 54 411 -7 l 439 0 l 514 0 l 514 665 l 426 665 l 427 64 l 168 64 q 157 75 159 66 l 157 665 l 69 665 l 69 123 q 137 1 69 24 q 213 -8 167 -8 l 321 -8 m 142 930 l 241 932 l 334 750 l 266 750 l 142 930 z "},"ű":{"ha":593,"x_min":69,"x_max":514,"o":"m 321 -8 q 429 54 411 -7 l 439 0 l 514 0 l 514 665 l 426 665 l 427 64 l 168 64 q 157 75 159 66 l 157 665 l 69 665 l 69 123 q 137 1 69 24 q 213 -8 167 -8 l 321 -8 m 168 750 l 250 932 l 346 930 l 235 750 l 168 750 m 334 750 l 416 932 l 514 930 l 400 750 l 334 750 z "},"ū":{"ha":593,"x_min":69,"x_max":514,"o":"m 321 -8 q 429 54 411 -7 l 439 0 l 514 0 l 514 665 l 426 665 l 427 64 l 168 64 q 157 75 159 66 l 157 665 l 69 665 l 69 123 q 137 1 69 24 q 213 -8 167 -8 l 321 -8 m 458 860 l 119 860 l 119 793 l 458 793 l 458 860 z "},"_":{"ha":593,"x_min":27,"x_max":566,"o":"m 566 -61 l 27 -61 l 27 -123 l 566 -123 l 566 -61 z "}," ":{"ha":267,"x_min":0,"x_max":0,"o":""},"­":{"ha":433,"x_min":45,"x_max":388,"o":"m 388 420 l 45 420 l 45 347 l 388 347 l 388 420 z "},"µ":{"ha":593,"x_min":69,"x_max":514,"o":"m 156 -258 l 148 8 q 225 -8 172 -8 l 330 -8 q 429 54 412 -7 l 439 0 l 514 0 l 514 665 l 426 665 l 427 64 l 168 64 q 157 75 159 66 l 157 665 l 69 665 l 69 -258 l 156 -258 z "},"Ģ":{"ha":709,"x_min":85,"x_max":637,"o":"m 480 -8 q 627 64 600 -8 q 637 133 637 92 l 637 445 l 381 445 l 381 368 l 547 368 l 547 85 q 534 73 544 75 l 191 73 q 179 85 180 76 l 179 776 q 191 788 182 787 l 623 788 l 623 869 l 243 869 q 96 798 123 869 q 85 728 85 769 l 85 133 q 167 1 85 24 q 243 -8 198 -8 l 480 -8 m 327 -184 l 363 -184 q 328 -285 357 -239 l 361 -312 q 426 -164 425 -245 l 426 -57 l 327 -57 l 327 -184 z "},"ģ":{"ha":570,"x_min":65,"x_max":509,"o":"m 250 818 l 286 818 q 260 739 283 781 l 296 715 q 347 838 347 776 l 347 944 l 250 944 l 250 818 m 420 75 q 410 64 418 65 l 164 64 q 153 75 155 66 l 153 586 q 164 597 156 595 l 420 594 l 420 75 m 410 -194 l 87 -194 l 87 -266 l 354 -266 q 496 -203 468 -266 q 509 -127 509 -174 l 509 665 l 214 669 q 79 610 104 670 q 65 534 65 581 l 65 123 q 133 1 65 24 q 209 -8 163 -8 l 316 -8 q 420 45 399 -7 l 420 -182 q 410 -194 418 -193 z "},"Ķ":{"ha":724,"x_min":106,"x_max":712,"o":"m 410 397 q 422 387 418 395 l 614 0 l 712 0 l 544 334 q 486 425 506 408 q 463 438 475 433 q 526 518 496 453 q 536 541 530 529 l 678 861 l 586 861 l 422 488 q 411 476 416 477 l 195 476 l 195 861 l 106 861 l 106 0 l 195 0 l 195 397 l 410 397 m 320 -184 l 357 -184 q 321 -285 350 -239 l 354 -312 q 419 -164 418 -245 l 419 -57 l 320 -57 l 320 -184 z "},"ķ":{"ha":594,"x_min":92,"x_max":589,"o":"m 370 309 q 382 298 380 307 l 499 0 l 589 0 l 491 241 q 437 338 461 320 q 411 351 425 346 q 464 449 437 372 l 536 665 l 453 665 l 361 392 q 349 381 355 382 l 179 381 l 179 916 l 92 916 l 92 0 l 179 0 l 179 309 l 370 309 m 260 -179 l 297 -179 q 262 -277 290 -232 l 294 -302 q 355 -160 355 -237 l 355 -57 l 260 -57 l 260 -179 z "},"Ļ":{"ha":537,"x_min":99,"x_max":519,"o":"m 519 79 l 189 79 l 189 861 l 99 861 l 99 0 l 519 0 l 519 79 m 254 -184 l 290 -184 q 255 -285 283 -239 l 288 -312 q 353 -164 351 -245 l 353 -57 l 254 -57 l 254 -184 z "},"ļ":{"ha":269,"x_min":87,"x_max":183,"o":"m 178 0 l 178 916 l 91 916 l 91 0 l 178 0 m 87 -179 l 123 -179 q 88 -277 117 -232 l 121 -302 q 182 -160 182 -237 l 182 -57 l 87 -57 l 87 -179 z "},"Ņ":{"ha":765,"x_min":95,"x_max":670,"o":"m 608 0 l 670 0 l 670 861 l 590 861 l 590 176 l 157 861 l 95 861 l 95 0 l 175 0 l 175 684 l 608 0 m 330 -184 l 366 -184 q 331 -285 359 -239 l 363 -312 q 429 -164 427 -245 l 429 -57 l 330 -57 l 330 -184 z "},"ņ":{"ha":590,"x_min":79,"x_max":522,"o":"m 271 673 q 163 618 184 671 l 153 665 l 79 665 l 79 0 l 167 0 l 165 590 q 178 601 168 601 l 423 601 q 435 590 434 598 l 435 0 l 522 0 l 522 541 q 454 663 522 640 q 378 673 425 673 l 271 673 m 252 -179 l 289 -179 q 254 -277 282 -232 l 286 -302 q 347 -160 347 -237 l 347 -57 l 252 -57 l 252 -179 z "},"Ŗ":{"ha":709,"x_min":100,"x_max":655,"o":"m 191 0 l 190 361 l 422 361 q 445 346 439 358 l 564 0 l 655 0 l 555 289 q 511 366 533 347 q 631 519 629 389 l 631 709 q 484 865 631 859 q 461 865 473 865 l 100 861 l 100 0 l 191 0 m 519 788 q 537 770 536 785 l 537 454 q 519 437 534 438 l 190 437 l 190 788 l 519 788 m 320 -184 l 357 -184 q 321 -285 350 -239 l 354 -312 q 419 -164 418 -245 l 419 -57 l 320 -57 l 320 -184 z "},"ŗ":{"ha":355,"x_min":77,"x_max":354,"o":"m 271 673 q 161 620 186 671 l 153 665 l 77 665 l 79 0 l 165 0 l 165 587 q 176 598 168 598 l 354 598 l 354 673 l 271 673 m 77 -179 l 114 -179 q 79 -277 107 -232 l 111 -302 q 172 -160 172 -237 l 172 -57 l 77 -57 l 77 -179 z "},"Ş":{"ha":639,"x_min":62,"x_max":583,"o":"m 174 473 q 156 491 157 476 l 156 766 q 174 783 159 781 l 560 783 l 560 861 l 237 865 q 65 746 87 869 q 62 707 62 727 l 62 540 q 153 400 62 425 q 232 392 187 392 l 472 392 q 490 374 488 389 l 490 95 q 472 79 487 80 l 72 79 l 72 0 l 266 -3 l 239 -127 l 351 -127 q 361 -137 359 -130 l 361 -206 q 351 -216 358 -214 l 221 -216 l 221 -279 l 309 -279 q 430 -171 429 -277 l 430 -159 q 346 -73 430 -81 q 321 -72 334 -72 l 304 -72 l 317 -3 l 414 -4 q 583 134 574 -8 q 583 152 583 144 l 583 324 q 408 473 581 472 l 174 473 z "},"ş":{"ha":502,"x_min":46,"x_max":469,"o":"m 326 -5 q 457 53 431 -5 q 469 126 469 81 l 469 239 q 404 362 469 338 q 320 373 373 373 l 146 373 q 134 385 136 376 l 134 589 q 146 600 137 598 l 439 600 l 439 673 l 197 673 q 60 614 88 673 q 46 536 46 583 l 46 438 q 111 315 46 339 q 195 304 142 304 l 370 304 q 381 293 380 301 l 381 77 q 370 65 378 66 l 56 65 l 56 -5 l 202 -5 l 176 -125 l 289 -125 q 298 -134 297 -127 l 298 -203 q 289 -213 296 -212 l 159 -213 l 159 -277 l 247 -277 q 368 -168 366 -274 l 368 -156 q 283 -71 368 -79 q 259 -69 271 -69 l 241 -69 l 254 -5 l 326 -5 z "},"Ţ":{"ha":544,"x_min":7,"x_max":537,"o":"m 317 0 l 317 783 l 537 783 l 537 861 l 7 861 l 7 783 l 227 783 l 227 0 l 232 0 l 205 -125 l 317 -125 q 327 -134 326 -127 l 327 -203 q 317 -213 324 -212 l 187 -213 l 187 -277 l 275 -277 q 396 -168 395 -274 l 396 -156 q 312 -71 396 -79 q 288 -69 300 -69 l 270 -69 l 283 0 l 317 0 z "},"ţ":{"ha":366,"x_min":33,"x_max":363,"o":"m 363 665 l 203 665 l 203 834 l 117 834 l 117 665 l 33 665 l 33 595 l 117 595 l 117 138 q 186 12 118 37 l 156 -125 l 269 -125 q 278 -134 277 -127 l 278 -203 q 269 -213 275 -212 l 138 -213 l 138 -277 l 227 -277 q 347 -168 346 -274 l 347 -156 q 263 -71 347 -79 q 239 -69 251 -69 l 221 -69 l 235 1 q 271 0 248 0 l 363 0 l 363 73 l 214 73 q 203 84 205 76 l 203 595 l 363 595 l 363 665 z "},"Ș":{"ha":650,"x_min":62,"x_max":583,"o":"m 174 473 q 156 491 157 476 l 156 766 q 174 783 159 781 l 560 783 l 560 861 l 237 865 q 65 746 87 869 q 62 707 62 727 l 62 540 q 153 400 62 425 q 232 392 187 392 l 472 392 q 490 374 488 389 l 490 95 q 472 79 487 80 l 72 79 l 72 0 l 414 -4 q 583 134 574 -8 q 583 152 583 144 l 583 324 q 408 473 581 472 l 174 473 m 269 -184 l 305 -184 q 270 -285 298 -239 l 302 -312 q 368 -164 366 -245 l 368 -57 l 269 -57 l 269 -184 z "},"ș":{"ha":502,"x_min":46,"x_max":469,"o":"m 326 -5 q 457 53 431 -5 q 469 126 469 81 l 469 239 q 404 362 469 338 q 320 373 373 373 l 146 373 q 134 385 136 376 l 134 589 q 146 600 137 598 l 439 600 l 439 673 l 197 673 q 60 614 88 673 q 46 536 46 583 l 46 438 q 111 315 46 339 q 195 304 142 304 l 370 304 q 381 293 380 301 l 381 77 q 370 65 378 66 l 56 65 l 56 -5 l 326 -5 m 210 -179 l 247 -179 q 212 -277 240 -232 l 244 -302 q 305 -160 305 -237 l 305 -57 l 210 -57 l 210 -179 z "},"Ț":{"ha":544,"x_min":7,"x_max":537,"o":"m 317 0 l 317 783 l 537 783 l 537 861 l 7 861 l 7 783 l 227 783 l 227 0 l 317 0 m 224 -184 l 260 -184 q 225 -285 254 -239 l 258 -312 q 323 -164 321 -245 l 323 -57 l 224 -57 l 224 -184 z "},"ț":{"ha":366,"x_min":33,"x_max":363,"o":"m 363 665 l 203 665 l 203 834 l 117 834 l 117 665 l 33 665 l 33 595 l 117 595 l 117 138 q 189 11 117 35 q 271 0 221 0 l 363 0 l 363 73 l 214 73 q 203 84 205 76 l 203 595 l 363 595 l 363 665 m 199 -179 l 236 -179 q 201 -277 229 -232 l 233 -302 q 294 -160 294 -237 l 294 -57 l 199 -57 l 199 -179 z "},"ˉ":{"ha":491,"x_min":76,"x_max":415,"o":"m 415 860 l 76 860 l 76 793 l 415 793 l 415 860 z "},"₺":{"ha":693,"x_min":52,"x_max":635,"o":"m 477 -5 q 624 66 597 -5 q 635 136 635 95 l 635 349 l 544 349 l 544 90 q 532 77 541 79 l 250 77 l 250 326 l 453 401 l 453 461 l 250 387 l 250 473 l 453 548 l 453 609 l 250 534 l 250 814 l 159 814 l 159 500 l 52 463 l 52 401 l 159 439 l 159 353 l 52 315 l 52 254 l 159 292 l 159 -3 l 477 -5 z "},"₽":{"ha":709,"x_min":43,"x_max":642,"o":"m 224 0 l 224 201 l 423 201 l 423 267 l 224 267 l 224 346 l 477 346 q 636 446 613 346 q 642 502 642 472 l 642 662 q 517 817 642 803 q 475 818 496 818 l 134 814 l 134 415 l 43 415 l 43 346 l 134 346 l 134 267 l 43 267 l 43 201 l 134 201 l 134 0 l 224 0 m 533 736 q 549 720 549 736 l 549 431 q 533 415 547 416 l 224 415 l 224 736 l 533 736 z "},"ℓ":{"ha":557,"x_min":18,"x_max":515,"o":"m 515 -8 l 515 73 l 239 73 q 228 85 229 76 l 228 297 l 425 442 q 500 521 486 487 q 513 583 513 548 l 513 783 q 430 916 513 892 q 358 924 400 924 l 288 924 q 142 849 168 924 q 133 783 133 822 l 133 330 l 18 244 l 61 175 l 133 228 l 133 133 q 214 1 133 24 q 290 -8 245 -8 l 515 -8 m 228 830 q 239 842 231 841 l 407 842 q 419 830 418 840 l 419 552 q 406 530 419 540 q 401 528 401 528 l 228 399 l 228 830 z "},"Ω":{"ha":727,"x_min":43,"x_max":684,"o":"m 290 0 l 290 77 l 190 107 q 178 121 179 113 l 178 776 q 189 788 180 787 l 537 788 q 549 776 548 785 l 549 121 q 536 107 547 111 l 437 77 l 437 0 l 684 0 l 684 79 l 579 79 q 643 203 643 110 l 643 728 q 562 860 643 837 q 486 869 530 869 l 241 869 q 95 798 122 869 q 84 728 84 769 l 84 203 q 148 79 85 107 l 43 79 l 43 0 l 290 0 z "},"∆":{"ha":680,"x_min":9,"x_max":669,"o":"m 669 0 l 391 861 l 292 861 l 9 0 l 669 0 m 556 79 l 121 79 l 339 773 l 556 79 z "},"∕":{"ha":601,"x_min":22,"x_max":563,"o":"m 486 869 l 22 -8 l 100 -8 l 563 869 l 486 869 z "},"∙":{"ha":397,"x_min":113,"x_max":285,"o":"m 113 345 q 190 275 115 277 l 208 275 q 285 345 283 278 l 285 425 q 208 494 274 490 l 190 494 q 113 425 115 487 l 113 345 z "},"ų":{"ha":593,"x_min":69,"x_max":540,"o":"m 321 -8 q 429 54 411 -7 l 439 0 l 445 0 l 374 -64 q 339 -153 339 -96 l 339 -182 q 410 -271 339 -255 q 476 -277 437 -277 l 540 -277 l 540 -209 l 426 -209 q 416 -199 418 -206 l 416 -121 q 427 -98 418 -107 l 514 0 l 514 665 l 426 665 l 427 64 l 168 64 q 157 75 159 66 l 157 665 l 69 665 l 69 123 q 137 1 69 24 q 213 -8 167 -8 l 321 -8 z "},"ů":{"ha":593,"x_min":69,"x_max":514,"o":"m 321 -8 q 429 54 411 -7 l 439 0 l 514 0 l 514 665 l 426 665 l 427 64 l 168 64 q 157 75 159 66 l 157 665 l 69 665 l 69 123 q 137 1 69 24 q 213 -8 167 -8 l 321 -8 m 408 846 q 354 951 408 932 q 288 960 328 960 q 182 910 201 960 q 172 846 172 886 q 224 741 172 761 q 288 731 250 731 q 401 793 382 731 q 408 846 408 815 m 227 846 q 244 909 227 898 q 288 916 258 916 q 349 892 339 916 q 354 846 354 878 q 332 783 354 795 q 288 776 316 776 q 231 804 239 776 q 227 846 227 818 z "},"v":{"ha":545,"x_min":5,"x_max":538,"o":"m 407 119 l 538 665 l 454 665 l 319 75 q 308 64 315 65 l 231 64 l 94 665 l 5 665 l 160 0 l 266 -5 q 376 33 349 -11 q 407 119 392 58 z "},"ඃ":{"ha":302,"x_min":33,"x_max":247,"o":"m 33 202 l 33 18 q 53 0 35 1 l 228 0 q 247 16 245 3 l 247 203 q 225 222 244 221 l 54 222 q 33 202 34 220 m 102 165 l 176 165 q 186 157 184 163 l 186 66 q 176 57 183 57 l 102 57 q 92 66 92 60 l 92 157 q 102 165 95 165 m 33 656 l 33 471 q 53 453 35 454 l 228 453 q 247 469 245 456 l 247 656 q 225 675 244 674 l 54 675 q 33 656 34 674 m 102 618 l 176 618 q 186 610 184 616 l 186 521 q 176 510 183 511 l 102 510 q 92 519 92 513 l 92 610 q 102 618 95 618 z "},"w":{"ha":905,"x_min":72,"x_max":833,"o":"m 334 -8 q 452 52 423 -7 q 571 -8 481 -8 l 689 -8 q 821 50 795 -8 q 833 123 833 79 l 833 665 l 745 665 l 746 75 q 734 64 743 65 l 507 64 q 495 75 496 66 l 495 665 l 410 665 l 410 75 q 397 64 407 65 l 171 64 q 159 75 160 66 l 159 665 l 72 665 l 72 113 q 127 3 72 24 q 216 -8 159 -8 l 334 -8 z "},"x":{"ha":585,"x_min":12,"x_max":576,"o":"m 104 0 l 237 288 q 250 298 243 297 l 332 298 q 343 289 339 298 l 343 288 l 483 0 l 576 0 l 461 229 q 407 321 423 307 q 380 338 395 332 q 437 423 406 354 q 444 438 439 430 l 547 665 l 461 665 l 335 380 q 323 369 328 369 l 264 369 q 254 378 258 369 l 254 380 l 127 665 l 38 665 l 140 438 q 201 340 174 359 q 205 338 203 339 q 149 279 174 326 q 125 229 144 267 l 12 0 l 104 0 z "},"y":{"ha":590,"x_min":68,"x_max":511,"o":"m 414 -194 l 88 -194 l 88 -266 l 357 -266 q 499 -203 471 -266 q 511 -127 511 -174 l 511 665 l 425 665 l 425 64 l 167 64 q 156 75 157 66 l 156 665 l 68 665 l 68 123 q 136 1 68 24 q 212 -8 165 -8 l 319 -8 q 425 46 403 -7 l 425 -182 q 414 -194 422 -193 z "},"ý":{"ha":590,"x_min":68,"x_max":511,"o":"m 414 -194 l 88 -194 l 88 -266 l 357 -266 q 499 -203 471 -266 q 511 -127 511 -174 l 511 665 l 425 665 l 425 64 l 167 64 q 156 75 157 66 l 156 665 l 68 665 l 68 123 q 136 1 68 24 q 212 -8 165 -8 l 319 -8 q 425 46 403 -7 l 425 -182 q 414 -194 422 -193 m 248 750 l 331 932 l 430 930 l 316 750 l 248 750 z "},"ÿ":{"ha":590,"x_min":68,"x_max":511,"o":"m 414 -194 l 88 -194 l 88 -266 l 357 -266 q 499 -203 471 -266 q 511 -127 511 -174 l 511 665 l 425 665 l 425 64 l 167 64 q 156 75 157 66 l 156 665 l 68 665 l 68 123 q 136 1 68 24 q 212 -8 165 -8 l 319 -8 q 425 46 403 -7 l 425 -182 q 414 -194 422 -193 m 218 784 l 218 892 l 129 892 l 129 784 l 218 784 m 453 784 l 453 892 l 362 892 l 362 784 l 453 784 z "},"¥":{"ha":718,"x_min":42,"x_max":674,"o":"m 589 171 l 589 232 l 404 232 l 404 311 l 589 311 l 589 372 l 484 372 q 491 385 486 376 q 503 414 499 404 l 674 814 l 582 814 l 410 389 q 395 378 403 378 l 328 378 q 315 389 317 381 l 140 815 l 42 815 l 213 415 q 233 372 222 392 l 130 372 l 130 311 l 313 311 l 313 232 l 130 232 l 130 171 l 313 171 l 313 0 l 404 0 l 404 171 l 589 171 z "},"z":{"ha":481,"x_min":22,"x_max":445,"o":"m 444 69 l 130 69 q 121 83 115 69 q 123 87 122 85 l 445 572 q 345 665 442 663 l 49 665 l 49 595 l 342 595 q 350 579 355 593 l 22 81 q 121 0 24 1 l 444 0 l 444 69 z "},"ź":{"ha":481,"x_min":22,"x_max":445,"o":"m 444 69 l 130 69 q 121 83 115 69 q 123 87 122 85 l 445 572 q 345 665 442 663 l 49 665 l 49 595 l 342 595 q 350 579 355 593 l 22 81 q 121 0 24 1 l 444 0 l 444 69 m 198 750 l 281 932 l 380 930 l 266 750 l 198 750 z "},"ž":{"ha":481,"x_min":22,"x_max":445,"o":"m 444 69 l 130 69 q 121 83 115 69 q 123 87 122 85 l 445 572 q 345 665 442 663 l 49 665 l 49 595 l 342 595 q 350 579 355 593 l 22 81 q 121 0 24 1 l 444 0 l 444 69 m 199 757 l 298 757 l 423 932 l 342 932 l 250 800 l 165 932 l 80 932 l 199 757 z "},"ż":{"ha":481,"x_min":22,"x_max":445,"o":"m 444 69 l 130 69 q 121 83 115 69 q 123 87 122 85 l 445 572 q 345 665 442 663 l 49 665 l 49 595 l 342 595 q 350 579 355 593 l 22 81 q 121 0 24 1 l 444 0 l 444 69 m 285 781 l 285 899 l 190 899 l 190 781 l 285 781 z "},"‍":{"ha":0,"x_min":-213,"x_max":213,"o":"m 43 888 l 213 722 l 168 677 l 33 814 l 33 8 l -33 8 l -33 814 l -168 677 l -213 722 l -43 888 l -213 1054 l -168 1097 l 0 929 l 168 1097 l 213 1054 l 43 888 z "},"‌":{"ha":0,"x_min":-33,"x_max":33,"o":"m -33 7 l -33 1038 l 33 1038 l 33 7 l -33 7 z "}}}
